<svg id="a8c9c32a-23de-46d2-beed-653f8d4d0fd2" data-name="Layer 1" xmlns="http://www.w3.org/2000/svg" viewBox="0 0 342.6 167.4">
  <g>
    <g>
      <path d="M30.3,116.4c12.5-.7,23.6-4.7,32.4-14.1A24.4,24.4,0,0,0,68.4,92c1.4-5.4-.1-10.1-3.4-14.4a30.2,30.2,0,0,0-8.9-7.8,70.1,70.1,0,0,0-18-7.8L20.3,56.9A69.4,69.4,0,0,1,9.4,52.4,41.5,41.5,0,0,1,6,50C-.5,44.8-1.3,37.2,1.6,30.1a37.4,37.4,0,0,1,6.2-9.4A61.7,61.7,0,0,1,29.1,6,63.7,63.7,0,0,1,48.7.5c7.2-1,14.2-.7,21,2.1,8.6,3.4,13.5,10.9,13.6,20a38.1,38.1,0,0,1-.7,7.5,8.5,8.5,0,0,1-1.2,2.8c-1.8,2.3-4.6,2.1-6-.5a9.7,9.7,0,0,1-.6-3.4,47.2,47.2,0,0,1,.4-7.6c.7-4.1-.9-7.2-3.6-9.7A23.4,23.4,0,0,0,61,6.8a47.2,47.2,0,0,0-19.8.7A63.7,63.7,0,0,0,15.1,19.9,34.6,34.6,0,0,0,5.6,31.8a14.6,14.6,0,0,0-1.4,7.5,10.3,10.3,0,0,0,4.7,8,30.5,30.5,0,0,0,9.2,4.6c5.9,2,11.9,3.3,17.8,5.2a131.6,131.6,0,0,1,15.2,5.4A49.7,49.7,0,0,1,64.3,71a28.4,28.4,0,0,1,7,9.8c2.6,6.6,1.5,12.9-2.1,18.8s-7.8,9.1-13.1,12.3a51.1,51.1,0,0,1-19.8,6.7,36.9,36.9,0,0,1-12.8-.7,15.9,15.9,0,0,1-5.7-2.3,8.6,8.6,0,0,1-2.9-3.1,5.5,5.5,0,0,1,.9-7.2,19.7,19.7,0,0,1,6.8-4.5,101,101,0,0,1,23.5-6.4,36.9,36.9,0,0,1,4.7-.1h.8c.3,0,.7.1.7.5s-.4.5-.8.6a33.1,33.1,0,0,0-6.2.5,93.2,93.2,0,0,0-20.6,5.9,23,23,0,0,0-6.8,4.3c-2.4,2.4-2.3,4.9.3,7.2a11.9,11.9,0,0,0,4.4,2.1A28.5,28.5,0,0,0,30.3,116.4Z"/>
      <path d="M105.6,53.8a10.3,10.3,0,0,0-2.9,2.1,1.4,1.4,0,0,0-.6,1.4c-.2,1.8-.5,2.2-2.3,2a2.7,2.7,0,0,0-2.3.7L87.1,69.2a18.1,18.1,0,0,1-2.9,1.9,3.5,3.5,0,0,1-3.8,0A3.7,3.7,0,0,1,79,67.4a9.8,9.8,0,0,1,.6-2.3,24.4,24.4,0,0,1,8.5-10.6,11.1,11.1,0,0,1,6.4-2.1,7.6,7.6,0,0,1,4.9,1.4,1.6,1.6,0,0,0,2.2-.1l3.2-2.3a4.6,4.6,0,0,1,1.8-1,1.8,1.8,0,0,1,2.3,2,5.3,5.3,0,0,1-.5,1.8c-1,2.1-1.9,4.1-2.8,6.2a14.9,14.9,0,0,0-1.3,4.7c-.2,1.8.2,2.1,1.9,2a18.3,18.3,0,0,0,2.5-.6,76.3,76.3,0,0,0,15.9-7.3l1.3-.7a.6.6,0,0,1,.8.1.7.7,0,0,1-.1.9l-1.7,1.3A87.4,87.4,0,0,1,114.8,66a64.7,64.7,0,0,1-6.6,2.6l-2.6.6c-2.4.1-3.7-1.3-3.6-3.8a9.9,9.9,0,0,1,.8-3.7,56.9,56.9,0,0,1,2.4-6.5A3.4,3.4,0,0,0,105.6,53.8ZM94.9,58.6c-4.1,1.2-6.8,4.1-9.2,7.4A63.5,63.5,0,0,0,94.9,58.6Z"/>
      <path d="M106,109.7a35,35,0,0,1,2.8-12.4,80.1,80.1,0,0,1,12.7-20.7,16.7,16.7,0,0,1,2.5-2.8,2.2,2.2,0,0,0,.6-2.8,27.9,27.9,0,0,1-.8-7,15.6,15.6,0,0,1,3.6-10.3,20.1,20.1,0,0,1,7.6-6.3,5.2,5.2,0,0,1,7.1,3.9,4.8,4.8,0,0,1-1.8,4.8,2.4,2.4,0,0,1-3.7-.5c-.5-.7-1-.9-1.7-.3-3,2.7-5.4,5.7-5.6,9.9,0,.4-.2.9,0,1.3s-.2,1.3.4,1.7,1-.4,1.4-.7c5.8-4.7,12.9-6.9,19.8-9.1a5.5,5.5,0,0,1,2.2-.2.5.5,0,0,1,.5.5.4.4,0,0,1-.3.6l-1.5.5a59,59,0,0,0-19.6,10.1,8.7,8.7,0,0,1-1,.8,1.9,1.9,0,0,0-.7,2.4,60.7,60.7,0,0,1,1.7,9.3c1,10.8-1,21-7.8,29.8a19.6,19.6,0,0,1-6.5,5.6,10.3,10.3,0,0,1-5,1.3,6.1,6.1,0,0,1-6.2-4.4c-.2-.6-.3-1.3-.5-1.9A16.2,16.2,0,0,1,106,109.7Zm20-33.8-.6.2a7.6,7.6,0,0,0-.9.9,68.4,68.4,0,0,0-13,19.9,40.7,40.7,0,0,0-2.7,9.2,18,18,0,0,0,.4,7.3c.7,2.8,2.6,3.6,5.1,2.5a11.2,11.2,0,0,0,2.8-1.6,22.5,22.5,0,0,0,7.1-10.1c2.9-7.3,3.4-14.7,2.9-22.3A31.6,31.6,0,0,0,126,75.9Z"/>
      <path d="M153.6,67.8l4.3-3.9a112.5,112.5,0,0,1,14.3-11.5,16.8,16.8,0,0,1,3.4-2,7.3,7.3,0,0,1,2.1-.6c2.1-.3,3.3.5,3.8,2.4a11.4,11.4,0,0,1,.6,4c.1,1,.2,2,.4,3a5.2,5.2,0,0,0,3.9,3.5,19.4,19.4,0,0,0,7.2-.2c6.9-1.1,13.9-2.8,20.8-4.3.5-.2,1.5-.8,1.7,0s-.8,1-1.5,1.2c-5.7,1.6-11.5,2.8-17.4,4.2a45.4,45.4,0,0,1-7.2,1.3,13.6,13.6,0,0,1-4.5-.6,6.8,6.8,0,0,1-4.7-4.3,16.4,16.4,0,0,1-1-4.9c-.2-3.4-.8-3.7-4-2.3a29.6,29.6,0,0,0-5.2,3.5c-5.2,3.8-9.7,8.4-14.2,13l-3.6,3.6a7.1,7.1,0,0,1-1.8,1.2,2.1,2.1,0,0,1-3.1-1.9,10.1,10.1,0,0,1,.6-3.8,153.3,153.3,0,0,1,5.8-16.9A220,220,0,0,1,180.7,2.9c.4-.4.7-1,1.2-1.5A2.4,2.4,0,0,1,184.7.3a3.1,3.1,0,0,1,2.2,2.6,5.9,5.9,0,0,1-.8,3.2c-1.4,3-3.1,5.8-4.8,8.7-7.5,12.5-14.8,25.1-21.2,38.3-2,4.1-3.8,8.1-5.8,12.2l-.9,2.3A.2.2,0,0,0,153.6,67.8Z"/>
      <path d="M235.1,53.8a9,9,0,0,0-2.9,2.1,1.4,1.4,0,0,0-.6,1.4c-.2,1.8-.5,2.2-2.3,2a2.7,2.7,0,0,0-2.3.7l-10.4,9.2a18.1,18.1,0,0,1-2.9,1.9,3.5,3.5,0,0,1-3.8,0,3.9,3.9,0,0,1-1.5-3.7,20.2,20.2,0,0,1,.7-2.3,24.4,24.4,0,0,1,8.5-10.6,11.1,11.1,0,0,1,6.4-2.1,7.8,7.8,0,0,1,4.9,1.4,1.6,1.6,0,0,0,2.2-.1l3.2-2.3a4.6,4.6,0,0,1,1.8-1,1.8,1.8,0,0,1,2.3,2,5.3,5.3,0,0,1-.5,1.8c-1,2.1-1.9,4.1-2.8,6.2a14.9,14.9,0,0,0-1.3,4.7c-.2,1.8.2,2.1,1.9,2a18.3,18.3,0,0,0,2.5-.6,76.3,76.3,0,0,0,15.9-7.3l1.2-.7a.7.7,0,0,1,.9.1.7.7,0,0,1-.1.9l-1.7,1.3A87.4,87.4,0,0,1,244.3,66a64.7,64.7,0,0,1-6.6,2.6l-2.6.6c-2.4.1-3.7-1.3-3.6-3.8a9.9,9.9,0,0,1,.8-3.7,56.9,56.9,0,0,1,2.4-6.5A3.4,3.4,0,0,0,235.1,53.8Zm-10.7,4.8c-4.1,1.2-6.8,4.1-9.3,7.4A59.2,59.2,0,0,0,224.4,58.6Z"/>
    </g>
    <g>
      <path d="M217.8,114.8c.5,0,.9-.5,1.3-.8a45.8,45.8,0,0,1,19.9-9.7c4.3-1,8.6-1.8,12.8-2.6h3.5c.6.1,1.3.1,1.3.9s-.7.6-1.3.6a85.7,85.7,0,0,0-22.8,5.7,46.1,46.1,0,0,0-12.4,7.5,15,15,0,0,0-4,4.3,3.7,3.7,0,0,0,.3,5,16.7,16.7,0,0,0,1.2,1.6c3.5,4.4,4.4,9.4,3.4,14.8a44,44,0,0,1-3.1,9.5,66.2,66.2,0,0,1-6.9,12.2,13.4,13.4,0,0,1-2.6,2.7c-2.3,1.8-4.1,1.2-4.9-1.7a31.1,31.1,0,0,1-.4-3.2c-.3-6.1.7-12.1,1.8-18.1a213.7,213.7,0,0,1,11.3-39.6,87.4,87.4,0,0,1,11.1-20.1c1.7-2.2,3.3-4.3,5.6-5.7a7,7,0,0,1,5.9-1.3,8.2,8.2,0,0,1,5.7,4.4,6.8,6.8,0,0,1,.5,2.3c0,1.9-1.4,2.9-3.3,2.4a7.5,7.5,0,0,1-2.4-1.9,1.9,1.9,0,0,0-2.5-.3,14,14,0,0,0-4.1,3.6,65.9,65.9,0,0,0-7.9,11.6,143.1,143.1,0,0,0-6.9,14.9C217.8,114,217.5,114.3,217.8,114.8Zm-4,10.5a4.3,4.3,0,0,0-.8,1.9,216.6,216.6,0,0,0-6,20.9,90.3,90.3,0,0,0-1.8,12.7,10.3,10.3,0,0,0,.3,3.9c.2.8.8,1,1.4.6a16.2,16.2,0,0,0,1.8-1.9,70.2,70.2,0,0,0,7.4-12.7,33.1,33.1,0,0,0,3.2-11C220,133.9,217.5,129.5,213.8,125.3Z"/>
      <path d="M240.7,152.6a68,68,0,0,1,1.8-9.4c3-12,6.6-23.8,10.2-35.6a337.5,337.5,0,0,1,12-33.7c3.2-7.8,6.8-15.4,10.4-23a7.9,7.9,0,0,1,1.4-2.3,3.3,3.3,0,0,1,4.2-.7,3.6,3.6,0,0,1,1.9,3.9,10.9,10.9,0,0,1-1.1,2.7l-6.8,12.1a288.1,288.1,0,0,0-18.5,40.8c-4.5,12.5-8.5,25.1-11.9,38.1a31.8,31.8,0,0,0-1.6,8.6,1.6,1.6,0,0,1,0,.7.8.8,0,0,1-.8.7.7.7,0,0,1-.9-.5A7.5,7.5,0,0,1,240.7,152.6Z"/>
      <path d="M305,105.2a16.2,16.2,0,0,0-3.7,3.7c-1.7,2.1-3.2,4.2-5,6.2s-2.2,2.2-3.9,1.6-2.3-2.1-2.6-3.6a19.7,19.7,0,0,1,.8-8,57.4,57.4,0,0,1,3.1-9.1c.1-.6.5-1,.3-1.6a1.3,1.3,0,0,0-1.2-.1,37.3,37.3,0,0,0-9.7,3.4c-1,.6-1.1.7-.2,1.6,2.2,2.5,2.5,5.3,1.8,8.4a21.1,21.1,0,0,1-6.8,10.8,8.9,8.9,0,0,1-4.4,2c-4.8.6-7.9-3.2-8.4-7.4a17.1,17.1,0,0,1,1.2-7.7,44,44,0,0,1,5.3-9.1,9.1,9.1,0,0,1,2.1-1.8,4.1,4.1,0,0,1,5.5.6c1.2,1.1,1.2,1.1,2.7.3a69.3,69.3,0,0,1,9.9-3.7l1.1-.3c4-.9,6.2.9,5.6,5a15.4,15.4,0,0,1-.9,3.7c-1.1,3.8-2.5,7.4-3.3,11.2a1.7,1.7,0,0,1-.1.8c.6.3.8-.1,1-.3l2-2.2,9.6-11.5a5.3,5.3,0,0,1,1.2-1.4,1.7,1.7,0,0,1,2.9.9,5.2,5.2,0,0,1-.1,2.5c-.6,2.1-1.2,4.3-1.7,6.4a27.2,27.2,0,0,0-.9,5.6c-.1,1-.3,2.3.6,2.9s1.8-.6,2.6-1.2a36.5,36.5,0,0,0,4.7-5.7A113.8,113.8,0,0,1,324,97.7a12.4,12.4,0,0,1,2.1-1.9c1.6-1.1,2.8-.8,3.6,1a6.6,6.6,0,0,1,.4,1.5,4.2,4.2,0,0,0,3.1,3.2,20.6,20.6,0,0,0,7.8.8c.6,0,1.4-.3,1.6.5s-.9,1-1.5,1.1a16.3,16.3,0,0,1-3.8.1,46.8,46.8,0,0,1-5.4-1,4.8,4.8,0,0,1-3.9-4.2c-.2-.4,0-1.2-.6-1.4s-1.1.5-1.4,1c-2.7,2.7-4.7,6-6.8,9.2s-2.7,4.3-4.2,6.3a16.2,16.2,0,0,1-3.5,3.4c-2.6,1.6-5.3.9-6.4-2.1a13.4,13.4,0,0,1-.7-6.6Zm-33.6,8.6c0,1.4.1,1.9.5,2.2a2.3,2.3,0,0,0,2.1-.5c.2-.1.5-.2.6-.4a17.8,17.8,0,0,0,6.9-11.2,4.1,4.1,0,0,0-1.2-3.5c-.5-.6-.9-.8-1.6-.3a9.3,9.3,0,0,1-1.3,1.5,39.7,39.7,0,0,0-5.2,9.2A7.1,7.1,0,0,0,271.4,113.8Z"/>
    </g>
  </g>
</svg>
