<?xml version="1.0" encoding="UTF-8"?>
<svg id="uuid-0b2065a0-cadb-474d-9668-45916bffb0fe" data-name="Layer 1" xmlns="http://www.w3.org/2000/svg" viewBox="0 0 220 120">
  <defs>
    <style>
      .uuid-b79239ec-75a4-43a5-b820-a4a63347bdb1 {
        fill: #f7c0c0;
      }

      .uuid-b79239ec-75a4-43a5-b820-a4a63347bdb1, .uuid-eb62fc2b-b267-4b4b-90eb-f6805e6c7b91 {
        stroke-width: 0px;
      }

      .uuid-eb62fc2b-b267-4b4b-90eb-f6805e6c7b91 {
        fill: #d62d26;
      }
    </style>
  </defs>
  <path class="uuid-eb62fc2b-b267-4b4b-90eb-f6805e6c7b91" d="M23.1,87.9c-1.3,0-2.5-.3-3.6-.8-1.1-.5-1.9-1.3-2.6-2.3-.6-1-1-2.2-1-3.7v-7.3h5.8v7c0,.5.1.9.3,1.2.2.3.5.5,1,.5.9,0,1.3-.5,1.3-1.6v-22.5h5.9v21.9c0,1.5-.3,2.9-.9,4-.6,1.1-1.4,2-2.5,2.6-1.1.6-2.3.9-3.7.9Z"/>
  <path class="uuid-eb62fc2b-b267-4b4b-90eb-f6805e6c7b91" d="M32.5,87.7v-29.2h11.7v5.6h-5.7v5.7h5.5v5.5h-5.5v6.7h6.1v5.7h-12.1Z"/>
  <path class="uuid-eb62fc2b-b267-4b4b-90eb-f6805e6c7b91" d="M61.4,87.9c-2.7,0-4.6-.7-5.8-2s-1.8-3.4-1.8-6.3v-2.9h5.8v3.7c0,.7.1,1.2.3,1.6s.6.6,1.1.6.9-.2,1.1-.5c.2-.3.3-.8.3-1.5s0-1.6-.3-2.2c-.2-.6-.5-1.2-.9-1.7s-1-1.2-1.8-1.9l-2.6-2.5c-2-1.8-2.9-4-2.9-6.3s.6-4.4,1.7-5.7,2.8-2,5-2,4.6.7,5.7,2.1c1.1,1.4,1.7,3.6,1.7,6.5h-5.9v-2c0-.4-.1-.7-.3-.9s-.5-.3-.9-.3-.8.1-1,.4c-.2.3-.3.6-.3,1s.1.9.3,1.3c.2.5.7,1,1.3,1.6l3.4,3.2c.7.6,1.3,1.3,1.9,2s1,1.5,1.4,2.5.5,2.1.5,3.5c0,2.7-.5,4.9-1.5,6.5-1,1.6-2.8,2.3-5.3,2.3Z"/>
  <path class="uuid-eb62fc2b-b267-4b4b-90eb-f6805e6c7b91" d="M76.9,87.9c-2.4,0-4.2-.7-5.4-2-1.2-1.4-1.7-3.4-1.7-6v-21.4h5.7v21.2c0,.5,0,1,0,1.4s.2.8.4,1.1c.2.3.5.4,1,.4s.8-.1,1-.4.3-.7.4-1.1c0-.5,0-.9,0-1.4v-21.2h5.7v21.4c0,2.7-.6,4.7-1.7,6-1.2,1.4-2.9,2-5.4,2Z"/>
  <path class="uuid-eb62fc2b-b267-4b4b-90eb-f6805e6c7b91" d="M86,87.7v-29.2h5.6v29.2h-5.6Z"/>
  <path class="uuid-eb62fc2b-b267-4b4b-90eb-f6805e6c7b91" d="M100.9,87.9c-2.7,0-4.6-.7-5.8-2s-1.8-3.4-1.8-6.3v-2.9h5.8v3.7c0,.7.1,1.2.3,1.6s.6.6,1.1.6.9-.2,1.1-.5c.2-.3.3-.8.3-1.5s0-1.6-.3-2.2-.5-1.2-.9-1.7-1-1.2-1.8-1.9l-2.6-2.5c-2-1.8-2.9-4-2.9-6.3s.6-4.4,1.7-5.7,2.8-2,5-2,4.6.7,5.7,2.1,1.7,3.6,1.7,6.5h-5.9v-2c0-.4-.1-.7-.3-.9s-.5-.3-.9-.3-.8.1-1,.4c-.2.3-.3.6-.3,1s.1.9.3,1.3c.2.5.7,1,1.3,1.6l3.4,3.2c.7.6,1.3,1.3,1.9,2s1,1.5,1.4,2.5c.3.9.5,2.1.5,3.5,0,2.7-.5,4.9-1.5,6.5-1,1.6-2.8,2.3-5.3,2.3Z"/>
  <g>
    <path class="uuid-b79239ec-75a4-43a5-b820-a4a63347bdb1" d="M5.2,45.5l2.4-3.4,1.3.9c.2.1.3.3.4.5,0,.2.1.4,0,.6,0,.2,0,.4-.2.6-.1.2-.2.3-.4.4s-.3.1-.5.2-.3,0-.5,0l-.2,2-.6-.4.2-2-.5-.3-1,1.4-.5-.4ZM7.1,43.9l.7.5c0,0,.2.1.3.1s.2,0,.3,0c.1,0,.2-.1.3-.2,0-.1.1-.2.1-.3s0-.2,0-.3-.1-.2-.2-.3l-.7-.5-.8,1.1Z"/>
    <path class="uuid-b79239ec-75a4-43a5-b820-a4a63347bdb1" d="M9.4,48.2l1.6-3.9,2.4,1-.2.6-1.8-.8-.4.9,1.5.6-.2.6-1.5-.6-.5,1.2,1.8.8-.2.6-2.4-1Z"/>
    <path class="uuid-b79239ec-75a4-43a5-b820-a4a63347bdb1" d="M15.9,45.8h.7c0,0,1.1,4.4,1.1,4.4h-.7c0,0-.2-.9-.2-.9l-1.9-.2-.4.8h-.7c0,0,2-4.1,2-4.1ZM15.3,48.5l1.4.2-.5-2-.9,1.9Z"/>
    <path class="uuid-b79239ec-75a4-43a5-b820-a4a63347bdb1" d="M21.7,50c-.3,0-.6,0-.8,0-.3,0-.5-.2-.7-.4-.2-.2-.4-.4-.5-.6-.1-.3-.2-.5-.3-.8,0-.3,0-.6,0-.9s.2-.5.4-.7c.2-.2.4-.4.6-.5.2-.1.5-.2.8-.3.3,0,.7,0,1,.1.3.1.6.3.8.5l-.5.4c-.1-.1-.3-.3-.5-.3s-.4-.1-.6,0c-.2,0-.4,0-.5.2-.2.1-.3.2-.4.4s-.2.3-.3.5,0,.4,0,.6c0,.2,0,.4.2.6s.2.3.4.5.3.2.5.3c.2,0,.4,0,.6,0,.2,0,.4,0,.6-.2.2-.1.3-.3.4-.4l.6.2c-.2.3-.4.5-.6.7s-.6.3-.9.3Z"/>
    <path class="uuid-b79239ec-75a4-43a5-b820-a4a63347bdb1" d="M27.3,44.5v.6c.1,0-1.2.3-1.2.3l.8,3.5h-.6c0,.1-.8-3.3-.8-3.3l-1.3.3v-.6c-.1,0,3.1-.7,3.1-.7Z"/>
    <path class="uuid-b79239ec-75a4-43a5-b820-a4a63347bdb1" d="M30,48.2c0,0-.2,0-.2,0,0,0-.1-.1-.2-.2,0,0,0-.2,0-.2,0,0,.1-.1.2-.2s.2,0,.3,0c0,0,.1.1.2.2,0,0,0,.2,0,.3,0,0-.1.1-.2.2Z"/>
    <path class="uuid-b79239ec-75a4-43a5-b820-a4a63347bdb1" d="M34.7,46.9c-.1,0-.3,0-.4,0-.1,0-.3,0-.4-.1l.3-.6c0,0,.1,0,.2,0,0,0,.2,0,.2,0,.1,0,.2,0,.3-.2s.1-.2.2-.3c0-.1,0-.2,0-.3l-.8-2.9.6-.2.8,2.9c0,.2,0,.4,0,.7s-.2.4-.3.6c-.2.2-.3.3-.6.3Z"/>
    <path class="uuid-b79239ec-75a4-43a5-b820-a4a63347bdb1" d="M38.9,45.7c-.2,0-.4,0-.7,0s-.4,0-.6-.1c-.2,0-.3-.2-.5-.4l.5-.4c0,0,.1.1.3.2.1,0,.2,0,.4,0,.1,0,.3,0,.4,0,.2,0,.3-.1.4-.2.1,0,.2-.2.3-.3,0-.1,0-.2,0-.3,0-.1-.1-.2-.2-.3-.1,0-.2,0-.4,0-.1,0-.3,0-.5,0-.3,0-.6,0-.8,0-.2,0-.5,0-.6-.2-.2-.1-.3-.3-.4-.6,0-.2,0-.5,0-.7,0-.2.2-.4.4-.6.2-.2.4-.3.7-.4.2,0,.4,0,.7,0,.2,0,.4,0,.6.1.2,0,.3.2.5.4l-.5.4c0,0-.1-.1-.3-.2-.1,0-.2,0-.4,0-.1,0-.3,0-.4,0-.2,0-.3.1-.4.2-.1,0-.2.2-.3.3,0,.1,0,.2,0,.3,0,.1.1.2.2.3s.2,0,.4,0,.3,0,.5,0c.3,0,.5,0,.8,0,.3,0,.5.1.7.2.2.1.3.3.4.5,0,.2,0,.5,0,.7s-.2.4-.4.6c-.2.2-.4.3-.7.4Z"/>
    <path class="uuid-b79239ec-75a4-43a5-b820-a4a63347bdb1" d="M45.9,39.1l.2.6-1.3.4,1.1,3.4-.6.2-1.1-3.4-1.3.4-.2-.6,3.1-1Z"/>
    <path class="uuid-b79239ec-75a4-43a5-b820-a4a63347bdb1" d="M49.7,37.9l.7-.2-.7,2.6.6,1.8-.6.2-.6-1.8-2.1-1.8.7-.2,1.5,1.2.5-1.9Z"/>
    <path class="uuid-b79239ec-75a4-43a5-b820-a4a63347bdb1" d="M53.1,41.2l-1.3-4,1.4-.4c.2,0,.4,0,.6,0s.4.1.6.3c.2.1.3.3.4.5,0,.2,0,.4,0,.7s-.1.4-.3.6c-.1.2-.3.3-.5.3l-.8.3.5,1.6-.6.2ZM53,38.8l.7-.2c.1,0,.2,0,.3-.2,0,0,.1-.2.2-.3,0-.1,0-.2,0-.3,0-.1-.1-.2-.2-.3,0,0-.2-.1-.3-.2s-.2,0-.3,0l-.7.2.4,1.3Z"/>
    <path class="uuid-b79239ec-75a4-43a5-b820-a4a63347bdb1" d="M57,39.9l-1.3-4,2.5-.8.2.6-1.9.6.3,1,1.5-.5.2.6-1.5.5.4,1.2,1.9-.6.2.6-2.5.8Z"/>
    <path class="uuid-b79239ec-75a4-43a5-b820-a4a63347bdb1" d="M62.4,38.2c-.2,0-.4.1-.7.1-.2,0-.4,0-.6-.1-.2,0-.4-.2-.5-.3l.5-.4c0,0,.2.1.3.2.1,0,.2,0,.4,0,.1,0,.3,0,.4,0,.2,0,.3-.1.4-.2.1,0,.2-.2.3-.3,0-.1,0-.2,0-.3,0-.1-.1-.2-.2-.3s-.2,0-.4,0c-.1,0-.3,0-.5,0-.3,0-.6,0-.8,0-.2,0-.5,0-.6-.2s-.3-.3-.4-.5c0-.2,0-.5,0-.7,0-.2.2-.4.4-.6.2-.2.4-.3.7-.4.2,0,.4-.1.7-.1.2,0,.4,0,.6.1.2,0,.4.2.5.4l-.5.4c0,0-.2-.1-.3-.2-.1,0-.2,0-.4,0-.1,0-.3,0-.4,0-.2,0-.3.1-.4.2-.1,0-.2.2-.3.3,0,.1,0,.2,0,.3,0,.1.1.2.2.3s.2,0,.4,0,.3,0,.5,0c.3,0,.5,0,.8,0,.3,0,.5,0,.7.2.2.1.3.3.4.5,0,.2,0,.5,0,.7,0,.2-.2.4-.4.6-.2.2-.4.3-.7.4Z"/>
    <path class="uuid-b79239ec-75a4-43a5-b820-a4a63347bdb1" d="M67.2,36.6c-.3,0-.5.1-.8,0-.3,0-.5-.1-.8-.2-.2-.1-.5-.3-.6-.5-.2-.2-.3-.5-.4-.7s-.1-.6-.1-.9c0-.3,0-.6.2-.8s.3-.5.5-.7c.2-.2.4-.3.7-.4.3-.1.6-.1,1,0,.3,0,.6.2.9.4l-.4.5c-.2-.1-.4-.2-.6-.2-.2,0-.4,0-.6,0-.2,0-.4.2-.5.3-.1.1-.2.3-.3.5s-.1.4-.1.6,0,.4,0,.6c0,.2.2.4.3.5s.3.3.5.4.4.1.5.2c.2,0,.4,0,.6,0,.2,0,.4-.2.5-.3s.3-.3.3-.5h.6c0,.4-.3.7-.5.9-.2.2-.5.4-.8.5Z"/>
    <path class="uuid-b79239ec-75a4-43a5-b820-a4a63347bdb1" d="M70.2,35.5l-1.4-4,1.5-.5c.2,0,.4,0,.6,0,.2,0,.4.1.6.3.2.1.3.3.4.5,0,.2,0,.4,0,.5,0,.2,0,.3-.1.5,0,.2-.2.3-.3.4l1.5,1.3-.7.2-1.5-1.3-.5.2.6,1.6-.6.2ZM70.1,33.1l.8-.3c.1,0,.2-.1.3-.2,0,0,.1-.2.1-.3,0-.1,0-.2,0-.3,0-.1-.1-.2-.2-.3,0,0-.2-.1-.3-.1s-.2,0-.3,0l-.8.3.4,1.3Z"/>
    <path class="uuid-b79239ec-75a4-43a5-b820-a4a63347bdb1" d="M74.5,33.9l-1.4-3.9.6-.2,1.4,3.9-.6.2Z"/>
    <path class="uuid-b79239ec-75a4-43a5-b820-a4a63347bdb1" d="M76.7,33.1l-1.5-3.9,1.4-.5c.2,0,.4,0,.6,0,.2,0,.4.1.6.3.2.1.3.3.4.5,0,.2.1.4,0,.7,0,.2-.1.4-.3.6s-.3.3-.5.4l-.8.3.6,1.6-.6.2ZM76.5,30.7l.7-.3c.1,0,.2-.1.3-.2s.1-.2.1-.3,0-.2,0-.3c0-.1-.1-.2-.2-.3,0,0-.2-.1-.3-.1-.1,0-.2,0-.3,0l-.7.3.5,1.3Z"/>
    <path class="uuid-b79239ec-75a4-43a5-b820-a4a63347bdb1" d="M82.1,26.6l.2.6-1.3.5,1.3,3.3-.6.2-1.3-3.3-1.2.5-.2-.6,3.1-1.2Z"/>
    <path class="uuid-b79239ec-75a4-43a5-b820-a4a63347bdb1" d="M88.6,28.7c-.2,0-.4.1-.7.1-.2,0-.4,0-.6,0-.2,0-.4-.2-.5-.3l.5-.4c0,0,.2.1.3.2.1,0,.2,0,.4,0,.1,0,.3,0,.4,0,.1,0,.3-.1.4-.2s.2-.2.2-.3c0-.1,0-.2,0-.3,0-.1-.1-.2-.2-.2-.1,0-.2,0-.4,0-.1,0-.3,0-.4,0-.3,0-.6,0-.8,0-.3,0-.5,0-.7-.2-.2-.1-.3-.3-.4-.5,0-.2-.1-.5,0-.7,0-.2.2-.4.4-.6.2-.2.4-.3.7-.4.2,0,.4-.1.7-.1s.4,0,.6,0c.2,0,.4.2.5.3l-.5.4c0,0-.2-.1-.3-.2-.1,0-.2,0-.4,0-.1,0-.3,0-.4,0-.2,0-.3.1-.4.2-.1,0-.2.2-.2.3,0,.1,0,.2,0,.3,0,.1.1.2.2.3.1,0,.2,0,.4,0,.1,0,.3,0,.5,0,.3,0,.5,0,.8,0,.3,0,.5,0,.7.2.2.1.3.3.4.5,0,.2,0,.5,0,.7,0,.2-.2.4-.4.6-.2.2-.4.3-.7.4Z"/>
    <path class="uuid-b79239ec-75a4-43a5-b820-a4a63347bdb1" d="M91.3,23.1l.7-.3,2.9,3.4-.6.2-.6-.6-1.8.7v.8s-.6.2-.6.2v-4.5ZM91.9,25.8l1.3-.5-1.4-1.6v2.1Z"/>
    <path class="uuid-b79239ec-75a4-43a5-b820-a4a63347bdb1" d="M97.7,25.2c-.2,0-.4.1-.7.1s-.4,0-.6,0c-.2,0-.4-.2-.5-.3l.5-.4c0,0,.2.1.3.2s.2,0,.4,0c.1,0,.3,0,.4,0,.1,0,.3-.1.4-.2.1,0,.2-.2.2-.3,0-.1,0-.2,0-.3,0-.1-.1-.2-.2-.2-.1,0-.2,0-.4,0-.1,0-.3,0-.5,0-.3,0-.6,0-.8,0-.2,0-.5,0-.7-.2-.2-.1-.3-.3-.4-.5,0-.2,0-.5,0-.7,0-.2.2-.4.4-.6.2-.2.4-.3.7-.4.2,0,.4-.1.7-.1.2,0,.4,0,.6,0s.4.2.5.3l-.5.4c0,0-.2-.1-.3-.2-.1,0-.2,0-.4,0-.1,0-.3,0-.4,0-.2,0-.3.1-.4.2s-.2.2-.2.3,0,.2,0,.3c0,.1.1.2.2.3s.2,0,.4,0c.1,0,.3,0,.5,0,.3,0,.5,0,.8,0,.3,0,.5,0,.7.2.2.1.3.3.4.5,0,.2,0,.5,0,.7s-.2.4-.4.6c-.2.2-.4.3-.7.4Z"/>
    <path class="uuid-b79239ec-75a4-43a5-b820-a4a63347bdb1" d="M102,23.6c-.2,0-.4.1-.7.1-.2,0-.4,0-.6,0-.2,0-.4-.2-.5-.3l.5-.4c0,0,.2.1.3.2.1,0,.2,0,.4,0,.1,0,.3,0,.4,0,.1,0,.3-.1.4-.2.1,0,.2-.2.2-.3,0-.1,0-.2,0-.3,0-.1-.1-.2-.2-.2-.1,0-.2,0-.4,0-.1,0-.3,0-.4,0-.3,0-.6,0-.8,0-.2,0-.5,0-.7-.2-.2-.1-.3-.3-.4-.5,0-.2,0-.5,0-.7,0-.2.2-.4.4-.6.2-.2.4-.3.7-.4.2,0,.4-.1.7-.1.2,0,.4,0,.6,0s.4.2.5.3l-.5.4c0,0-.2-.1-.3-.2-.1,0-.2,0-.4,0-.1,0-.3,0-.4,0-.2,0-.3.1-.4.2-.1,0-.2.2-.2.3,0,.1,0,.2,0,.3,0,.1.1.2.2.3s.2,0,.4,0c.1,0,.3,0,.5,0,.3,0,.5,0,.8,0s.5,0,.7.2c.2.1.3.3.4.5,0,.2,0,.5,0,.7,0,.2-.2.4-.4.6s-.4.3-.7.4Z"/>
    <path class="uuid-b79239ec-75a4-43a5-b820-a4a63347bdb1" d="M107.1,21.7l-1.4-4,.6-.2,2.8,2.2-1-2.9.6-.2,1.4,4-.6.2-2.8-2.2,1,2.9-.6.2Z"/>
    <path class="uuid-b79239ec-75a4-43a5-b820-a4a63347bdb1" d="M113.5,19.5c-.3,0-.5.1-.8,0-.3,0-.5-.1-.8-.2s-.5-.3-.6-.5c-.2-.2-.3-.5-.4-.7s-.1-.6-.1-.9c0-.3,0-.6.2-.8.1-.2.3-.5.5-.7s.4-.3.7-.4c.3,0,.5-.1.8,0,.3,0,.5.1.8.2s.5.3.6.5c.2.2.3.5.4.7s.1.6.1.9c0,.3,0,.6-.2.8-.1.2-.3.5-.5.7s-.4.3-.7.4ZM113.3,18.9c.2,0,.4-.2.5-.3.1-.1.2-.3.3-.5,0-.2.1-.4.1-.6s0-.4,0-.6c0-.2-.2-.4-.3-.5-.1-.2-.3-.3-.5-.4s-.4-.1-.5-.2-.4,0-.6,0-.4.2-.5.3-.2.3-.3.5c0,.2-.1.4-.1.6s0,.4,0,.6c0,.2.2.4.3.5.1.2.3.3.5.4s.4.1.5.2.4,0,.6,0Z"/>
    <path class="uuid-b79239ec-75a4-43a5-b820-a4a63347bdb1" d="M116.9,18.3l-1.3-4,1.3-.4c.3,0,.6-.1.8,0,.3,0,.5.1.8.2.2.1.5.3.6.5.2.2.3.5.4.7,0,.3.1.6,0,.8,0,.3-.1.5-.2.8-.1.2-.3.5-.5.6-.2.2-.5.3-.7.4l-1.3.4ZM117.3,17.5l.7-.2c.2,0,.4-.2.5-.3.1-.1.3-.3.4-.4,0-.2.1-.4.2-.5,0-.2,0-.4,0-.6,0-.2-.2-.4-.3-.5s-.3-.3-.4-.4c-.2,0-.4-.1-.5-.2-.2,0-.4,0-.6,0l-.7.2.9,2.8Z"/>
    <path class="uuid-b79239ec-75a4-43a5-b820-a4a63347bdb1" d="M121.6,16.8l-1.2-4,2.5-.8.2.6-1.9.6.3,1,1.5-.5.2.6-1.5.5.4,1.3,1.9-.6.2.6-2.5.8Z"/>
    <path class="uuid-b79239ec-75a4-43a5-b820-a4a63347bdb1" d="M125.8,15.7c0,0-.2,0-.2,0s-.1-.1-.2-.2c0,0,0-.2,0-.2s.1-.1.2-.2c0,0,.2,0,.3,0s.1.1.2.2c0,0,0,.2,0,.3s-.1.1-.2.2Z"/>
    <path class="uuid-b79239ec-75a4-43a5-b820-a4a63347bdb1" d="M128.2,15c-.1,0-.3,0-.4,0-.1,0-.3,0-.4-.1l.3-.6c0,0,.1,0,.2,0s.2,0,.2,0c.1,0,.2,0,.3-.2,0,0,.1-.2.2-.3,0-.1,0-.2,0-.3l-.8-2.9.6-.2.8,2.9c0,.2,0,.4,0,.7,0,.2-.2.4-.3.6-.2.2-.3.3-.6.3Z"/>
    <path class="uuid-b79239ec-75a4-43a5-b820-a4a63347bdb1" d="M132.4,13.9c-.2,0-.4,0-.7,0-.2,0-.4,0-.6-.2-.2,0-.3-.2-.4-.4l.5-.4c0,0,.1.2.3.2.1,0,.2,0,.4,0,.1,0,.3,0,.4,0,.2,0,.3,0,.4-.2.1,0,.2-.2.3-.3,0-.1,0-.2,0-.3,0-.1-.1-.2-.2-.3s-.2,0-.4-.1-.3,0-.5,0c-.3,0-.6,0-.8,0-.2,0-.5-.1-.6-.2-.2-.1-.3-.3-.4-.6s0-.5,0-.7.2-.4.4-.6.4-.3.7-.3c.2,0,.4,0,.7,0s.4,0,.6.2c.2,0,.3.2.5.4l-.5.3c0,0-.1-.2-.3-.2-.1,0-.2,0-.4,0-.1,0-.3,0-.4,0-.2,0-.3,0-.4.2-.1,0-.2.2-.3.3,0,.1,0,.2,0,.3,0,.1.1.2.2.3s.2,0,.4,0c.1,0,.3,0,.5,0,.3,0,.5,0,.8,0,.3,0,.5.1.6.3.2.1.3.3.4.6,0,.2,0,.5,0,.7,0,.2-.2.4-.4.6s-.4.3-.7.3Z"/>
    <path class="uuid-b79239ec-75a4-43a5-b820-a4a63347bdb1" d="M137.7,12.6l-.9-4.1,1.4-.3c.2,0,.4,0,.6,0s.4.2.5.4.2.4.3.6c0,.2,0,.4,0,.7,0,.2-.2.4-.3.5-.2.1-.3.2-.6.3l-.8.2.3,1.7h-.6ZM137.8,10.2l.7-.2c.1,0,.2,0,.3-.2,0,0,.1-.2.2-.3,0-.1,0-.2,0-.3s0-.2-.2-.3c0,0-.2-.1-.3-.2-.1,0-.2,0-.3,0l-.7.2.3,1.3Z"/>
    <path class="uuid-b79239ec-75a4-43a5-b820-a4a63347bdb1" d="M143.7,11.5c-.3,0-.6,0-.8,0s-.5-.2-.7-.3c-.2-.2-.4-.4-.6-.6-.2-.2-.3-.5-.3-.8,0-.3,0-.6,0-.9,0-.3.2-.5.3-.8.2-.2.3-.4.6-.6s.5-.3.8-.3c.3,0,.6,0,.8,0s.5.2.7.3c.2.2.4.4.6.6s.3.5.3.8c0,.3,0,.6,0,.9,0,.3-.2.5-.3.8-.2.2-.3.4-.6.6-.2.2-.5.3-.8.3ZM143.6,10.9c.2,0,.4-.1.5-.2.2-.1.3-.2.4-.4.1-.2.2-.3.2-.5s0-.4,0-.6c0-.2-.1-.4-.2-.6s-.2-.3-.4-.4-.3-.2-.5-.3c-.2,0-.4,0-.6,0-.2,0-.4.1-.5.2-.2.1-.3.2-.4.4-.1.2-.2.3-.2.5s0,.4,0,.6c0,.2.1.4.2.6.1.2.2.3.4.4s.3.2.5.3.4,0,.6,0Z"/>
    <path class="uuid-b79239ec-75a4-43a5-b820-a4a63347bdb1" d="M148.6,10.7c-.2,0-.5,0-.7,0-.2,0-.4-.1-.6-.2s-.3-.3-.4-.4l.5-.3c0,0,.1.2.2.2.1,0,.2.1.4.1.1,0,.3,0,.4,0,.2,0,.3,0,.4-.1.1,0,.2-.2.3-.3,0-.1.1-.2,0-.3,0-.1,0-.2-.2-.3-.1,0-.2-.1-.4-.1-.1,0-.3,0-.5,0-.3,0-.6,0-.8-.1-.2,0-.4-.2-.6-.3s-.3-.4-.3-.6c0-.2,0-.5.1-.7.1-.2.3-.4.5-.5.2-.1.5-.2.7-.3.2,0,.4,0,.7,0,.2,0,.4.1.6.2s.3.3.4.4l-.6.3c0,0-.1-.2-.2-.2-.1,0-.2-.1-.4-.1s-.3,0-.4,0c-.2,0-.3,0-.4.1-.1,0-.2.2-.3.3,0,.1-.1.2,0,.3,0,.1,0,.3.2.3,0,0,.2.1.4.1.1,0,.3,0,.5,0,.3,0,.5,0,.8.1s.5.2.6.3c.2.1.3.3.3.6,0,.2,0,.5-.1.7-.1.2-.3.4-.5.5s-.5.2-.7.3Z"/>
    <path class="uuid-b79239ec-75a4-43a5-b820-a4a63347bdb1" d="M154.4,5.7v.6c0,0-1.3.1-1.3.1l.4,3.6h-.6c0,0-.4-3.5-.4-3.5h-1.3c0,.1,0-.5,0-.5l3.3-.3Z"/>
    <path class="uuid-b79239ec-75a4-43a5-b820-a4a63347bdb1" d="M158.2,9.7c-.3,0-.6,0-.8-.1-.3,0-.5-.2-.7-.4-.2-.2-.4-.4-.5-.7-.1-.3-.2-.5-.2-.8,0-.3,0-.6.1-.9,0-.3.2-.5.4-.7.2-.2.4-.4.6-.5.2-.1.5-.2.8-.2.3,0,.6,0,.9.2s.6.3.8.6l-.5.3c-.2-.2-.3-.3-.5-.4-.2,0-.4-.1-.6-.1-.2,0-.4,0-.5.2s-.3.2-.4.4c-.1.1-.2.3-.3.5s0,.4,0,.6c0,.2,0,.4.1.6s.2.3.3.5.3.2.5.3c.2,0,.4,0,.6,0,.1,0,.3,0,.4,0,.1,0,.3-.1.4-.2s.2-.2.3-.3c0-.1.1-.3.2-.4h-.9c0,0,0-.5,0-.5h1.6c0,.2,0,.5-.1.8s-.2.5-.4.7-.4.4-.6.5c-.2.1-.5.2-.8.2Z"/>
    <path class="uuid-b79239ec-75a4-43a5-b820-a4a63347bdb1" d="M161.8,9.5v-4.2c0,0,1.5,0,1.5,0,.2,0,.4,0,.6.2.2.1.3.3.4.4s.2.4.2.6c0,.2,0,.4,0,.5,0,.2-.2.3-.3.4-.1.1-.3.2-.4.3l1.1,1.7h-.7s-1-1.7-1-1.7h-.6s0,1.7,0,1.7h-.6ZM162.3,7.2h.9c.1,0,.2,0,.3-.1,0,0,.2-.1.2-.2,0-.1,0-.2,0-.3s0-.2,0-.3-.1-.2-.2-.2c-.1,0-.2,0-.3,0h-.9s0,1.4,0,1.4Z"/>
    <path class="uuid-b79239ec-75a4-43a5-b820-a4a63347bdb1" d="M166.2,9.4v-4.2s2.6,0,2.6,0v.6s-2,0-2,0v1s1.6,0,1.6,0v.6s-1.6,0-1.6,0v1.3s2,0,2,0v.6s-2.6,0-2.6,0Z"/>
    <path class="uuid-b79239ec-75a4-43a5-b820-a4a63347bdb1" d="M171.8,9.6c-.2,0-.4,0-.7-.1-.2,0-.4-.2-.5-.3s-.3-.3-.3-.5l.6-.2c0,0,0,.2.2.3,0,0,.2.1.3.2.1,0,.3,0,.4,0,.2,0,.3,0,.5,0s.3-.1.4-.2c0,0,.1-.2.1-.3,0-.1,0-.2-.1-.3s-.2-.2-.3-.2-.3,0-.4-.1c-.3,0-.6-.1-.8-.2-.2-.1-.4-.2-.5-.4s-.2-.4-.2-.7c0-.2,0-.5.2-.6s.3-.3.6-.4c.2,0,.5-.1.8-.1.2,0,.4,0,.6.1s.4.2.5.3c.2.1.3.3.3.5l-.6.2c0,0,0-.2-.2-.3,0,0-.2-.1-.3-.2-.1,0-.3,0-.4,0-.2,0-.3,0-.5,0-.1,0-.3.1-.3.2,0,0-.1.2-.1.3,0,.1,0,.3.1.3,0,0,.2.1.3.2.1,0,.3,0,.5.1.3,0,.5.1.8.3.2.1.4.3.5.4s.2.4.2.6c0,.2,0,.5-.2.6-.2.2-.3.3-.6.4-.2,0-.5.1-.8.1Z"/>
    <path class="uuid-b79239ec-75a4-43a5-b820-a4a63347bdb1" d="M176.8,10c-.3,0-.6-.1-.8-.3-.2-.1-.4-.3-.6-.5-.2-.2-.3-.5-.4-.7s-.1-.6,0-.9c0-.3.1-.6.3-.8.1-.3.3-.5.5-.6s.4-.3.7-.4c.3,0,.5-.1.8,0,.3,0,.6.1.9.3s.5.4.7.7l-.6.2c-.1-.2-.3-.3-.5-.5-.2-.1-.4-.2-.6-.2-.2,0-.4,0-.6,0-.2,0-.3.2-.5.3-.1.1-.3.3-.4.5,0,.2-.2.4-.2.6,0,.2,0,.4,0,.6,0,.2.1.4.3.5.1.2.3.3.4.4.2,0,.3.2.5.2.1,0,.3,0,.4,0,.1,0,.3,0,.4-.2.1,0,.2-.2.3-.3s.2-.2.3-.4h-.9c0,0,0-.6,0-.6l1.6.2c0,.3-.1.6-.2.8-.1.3-.3.5-.5.6-.2.2-.4.3-.7.4-.3,0-.5.1-.8,0Z"/>
    <path class="uuid-b79239ec-75a4-43a5-b820-a4a63347bdb1" d="M180.3,10.4l.7-4.1h.6c0,.1-.6,3.6-.6,3.6l1.8.3v.6c-.1,0-2.5-.4-2.5-.4Z"/>
    <path class="uuid-b79239ec-75a4-43a5-b820-a4a63347bdb1" d="M186.4,11.6l1.1-4,2.5.7-.2.6-1.9-.5-.3,1,1.5.4-.2.6-1.5-.4-.4,1.3,1.9.5-.2.6-2.5-.7Z"/>
    <path class="uuid-b79239ec-75a4-43a5-b820-a4a63347bdb1" d="M190.1,12.7l2.2-1.4-.7-2.5.7.3.5,1.9,1.6-1,.7.3-2.2,1.4.7,2.5-.7-.3-.5-1.9-1.6,1-.7-.3Z"/>
    <path class="uuid-b79239ec-75a4-43a5-b820-a4a63347bdb1" d="M194.9,14.7l2-3.7,1.3.7c.2.1.4.3.5.4.1.2.2.4.2.6,0,.2,0,.4-.2.6-.1.2-.3.4-.4.5-.2.1-.4.2-.6.2-.2,0-.4,0-.6-.1l-.7-.4-.8,1.5-.6-.3ZM196.5,12.9l.7.4c.1,0,.2,0,.3,0,.1,0,.2,0,.3-.1,0,0,.2-.1.2-.3s0-.2,0-.3c0-.1,0-.2,0-.3s-.1-.2-.2-.2l-.7-.4-.6,1.2Z"/>
    <path class="uuid-b79239ec-75a4-43a5-b820-a4a63347bdb1" d="M198.4,16.7l2.4-3.4,1.3.9c.2.1.3.3.4.5s.1.4,0,.6c0,.2,0,.4-.2.6-.1.2-.2.3-.4.4-.2,0-.3.1-.5.2s-.3,0-.5,0l-.2,2-.6-.4.2-2-.5-.3-1,1.4-.5-.4ZM200.2,15.1l.7.5c0,0,.2.1.3.1.1,0,.2,0,.3,0,.1,0,.2-.1.3-.2,0-.1.1-.2.1-.3,0-.1,0-.2,0-.3s-.1-.2-.2-.3l-.7-.5-.8,1.1Z"/>
    <path class="uuid-b79239ec-75a4-43a5-b820-a4a63347bdb1" d="M201.9,19.2l2.9-3.1,1.9,1.8-.4.5-1.5-1.4-.7.7,1.2,1.1-.4.5-1.2-1.1-.9,1,1.5,1.4-.4.5-1.9-1.8Z"/>
    <path class="uuid-b79239ec-75a4-43a5-b820-a4a63347bdb1" d="M205.6,23.2c-.1-.2-.2-.4-.3-.6,0-.2,0-.4,0-.6,0-.2,0-.4.2-.6l.5.3c0,0,0,.2,0,.3,0,.1,0,.3,0,.4s.1.3.2.4c0,.1.2.2.3.3s.3.1.4.1.2,0,.3,0c.1,0,.2-.2.2-.3,0-.1,0-.3,0-.4,0-.1-.1-.3-.2-.4-.1-.3-.2-.5-.3-.8s0-.5,0-.7c0-.2.2-.4.4-.6.2-.2.4-.2.7-.2s.5,0,.7.2c.2.1.4.3.6.5.1.2.2.4.3.6s.1.4,0,.6,0,.4-.2.6l-.5-.3c0,0,0-.2,0-.3,0-.1,0-.2,0-.4s-.1-.3-.2-.4c0-.1-.2-.2-.3-.3-.1,0-.3-.1-.4-.1-.1,0-.2,0-.3,0-.1,0-.2.2-.2.3s0,.2,0,.4c0,.1.1.3.2.4.1.2.2.5.3.7s0,.5,0,.7c0,.2-.2.4-.4.5-.2.1-.4.2-.6.2-.2,0-.5,0-.7-.2s-.4-.3-.6-.5Z"/>
    <path class="uuid-b79239ec-75a4-43a5-b820-a4a63347bdb1" d="M207.8,27c0-.2-.2-.4-.2-.6,0-.2,0-.4,0-.6,0-.2.2-.4.3-.5l.4.4c0,0-.1.2-.2.3s0,.2,0,.4c0,.1,0,.3.1.4,0,.1.2.3.3.4.1.1.2.2.3.2.1,0,.2,0,.3,0,.1,0,.2-.1.2-.3,0-.1,0-.2,0-.4s0-.3,0-.4c0-.3-.1-.6-.1-.8,0-.2,0-.5.1-.7s.3-.3.5-.5c.2-.1.5-.1.7,0,.2,0,.4.2.6.3.2.2.3.4.5.6,0,.2.2.4.2.6s0,.4,0,.6-.2.4-.3.5l-.4-.5c0,0,.1-.2.2-.3,0-.1,0-.2,0-.4s0-.3-.1-.4c0-.1-.1-.3-.3-.4s-.2-.2-.3-.2-.2,0-.3,0c-.1,0-.2.1-.3.3,0,.1,0,.2,0,.4,0,.1,0,.3.1.5,0,.3.1.5.1.8,0,.3,0,.5-.1.7s-.3.4-.5.5c-.2.1-.5.1-.7,0s-.4-.2-.6-.3c-.2-.2-.3-.4-.5-.6Z"/>
    <path class="uuid-b79239ec-75a4-43a5-b820-a4a63347bdb1" d="M209.3,31.8h4.2s0,1.6,0,1.6c0,.2,0,.4-.2.6-.1.2-.3.3-.5.4s-.4.2-.6.2c-.2,0-.4,0-.5-.1s-.3-.2-.4-.3c-.1-.1-.2-.3-.2-.5l-1.8,1v-.7s1.7-1,1.7-1v-.6s-1.7,0-1.7,0v-.6ZM211.6,32.4v.9c0,.1,0,.2,0,.3s.1.2.2.2c0,0,.2,0,.3,0s.2,0,.3,0c.1,0,.2-.1.2-.2s0-.2,0-.3v-.9s-1.3,0-1.3,0Z"/>
    <path class="uuid-b79239ec-75a4-43a5-b820-a4a63347bdb1" d="M209,35.9l4,1.3-.8,2.5-.6-.2.6-1.9-1-.3-.5,1.5-.6-.2.5-1.5-1.2-.4-.6,1.9-.6-.2.8-2.5Z"/>
    <path class="uuid-b79239ec-75a4-43a5-b820-a4a63347bdb1" d="M210.2,43.1l-.4.6-4.3-1.3.4-.5.8.2,1.1-1.5-.5-.7.4-.5,2.5,3.7ZM208.2,41.2l-.8,1.1,2,.6-1.2-1.7Z"/>
    <path class="uuid-b79239ec-75a4-43a5-b820-a4a63347bdb1" d="M203,44.5c.2-.2.5-.3.7-.4.3,0,.5,0,.8,0,.3,0,.5.1.8.3s.5.3.7.6.3.5.4.8.1.5,0,.8c0,.3,0,.5-.2.8s-.3.5-.5.6c-.3.2-.6.3-.9.4-.3,0-.6,0-.9,0l.2-.6c.2,0,.4,0,.6,0,.2,0,.4-.1.6-.3.2-.1.3-.3.4-.4s.1-.4.1-.5c0-.2,0-.4,0-.6,0-.2-.2-.4-.3-.5-.1-.2-.3-.3-.5-.4-.2,0-.4-.2-.6-.2-.2,0-.4,0-.6,0-.2,0-.4.1-.5.3-.2.1-.3.3-.4.5,0,.2-.1.4-.1.6h-.6c0-.2,0-.5.2-.8.1-.3.3-.6.6-.8Z"/>
    <path class="uuid-b79239ec-75a4-43a5-b820-a4a63347bdb1" d="M199.8,51.5l-.3-.5,1.2-.6-1.7-3.2.5-.3,1.7,3.1,1.2-.6.3.5-2.9,1.6Z"/>
    <path class="uuid-b79239ec-75a4-43a5-b820-a4a63347bdb1" d="M196.3,48.3c0,0,.2,0,.3,0s.1,0,.2.2c0,0,0,.2,0,.2,0,0,0,.1-.2.2,0,0-.2,0-.3,0,0,0-.1,0-.2-.2,0,0,0-.2,0-.3,0,0,0-.1.2-.2Z"/>
    <path class="uuid-b79239ec-75a4-43a5-b820-a4a63347bdb1" d="M191.8,50c.1,0,.3,0,.4,0,.1,0,.3,0,.4,0l-.2.6c0,0-.1,0-.2,0,0,0-.2,0-.2,0-.1,0-.2,0-.3.2,0,0-.1.2-.2.3,0,.1,0,.2,0,.3l.9,2.8-.6.2-.9-2.8c0-.2,0-.4,0-.7,0-.2.2-.4.3-.6.1-.2.3-.3.6-.4Z"/>
    <path class="uuid-b79239ec-75a4-43a5-b820-a4a63347bdb1" d="M187.6,51.1c.2,0,.4,0,.7,0,.2,0,.4,0,.6.2s.3.2.4.4l-.5.4c0,0-.1-.2-.3-.2s-.2,0-.4,0c-.1,0-.3,0-.4,0-.2,0-.3,0-.4.2-.1,0-.2.2-.3.3,0,.1,0,.2,0,.3,0,.1,0,.2.2.3.1,0,.2,0,.4.1.1,0,.3,0,.5,0,.3,0,.6,0,.8,0s.5.1.6.2c.2.1.3.3.4.6,0,.2,0,.5,0,.7,0,.2-.2.4-.4.6-.2.2-.4.3-.7.3-.2,0-.4,0-.7,0-.2,0-.4,0-.6-.2s-.3-.2-.5-.4l.5-.3c0,0,.1.2.2.2.1,0,.2,0,.4,0,.1,0,.3,0,.4,0,.2,0,.3,0,.4-.2.1,0,.2-.2.3-.3,0-.1,0-.2,0-.3,0-.1-.1-.2-.2-.3,0,0-.2,0-.4,0-.1,0-.3,0-.5,0-.3,0-.5,0-.8,0-.3,0-.5-.1-.6-.3-.2-.1-.3-.3-.4-.6,0-.2,0-.5,0-.7s.2-.4.4-.6c.2-.2.4-.3.7-.3Z"/>
    <path class="uuid-b79239ec-75a4-43a5-b820-a4a63347bdb1" d="M180,57v-.6c-.1,0,1.2-.2,1.2-.2l-.6-3.5h.6c0-.1.6,3.4.6,3.4l1.3-.2v.6c.1,0-3.1.6-3.1.6Z"/>
    <path class="uuid-b79239ec-75a4-43a5-b820-a4a63347bdb1" d="M175.8,57.6h-.7c0,0,1.1-2.4,1.1-2.4l-.3-1.9h.6c0,0,.3,1.8.3,1.8l1.7,2.1h-.7c0,0-1.2-1.4-1.2-1.4l-.8,1.7Z"/>
    <path class="uuid-b79239ec-75a4-43a5-b820-a4a63347bdb1" d="M173.1,53.7l.5,4.2-1.4.2c-.2,0-.4,0-.6,0-.2,0-.4-.2-.5-.4-.1-.2-.2-.4-.2-.6,0-.2,0-.4,0-.6,0-.2.2-.4.4-.5.2-.1.4-.2.6-.2h.8c0,0-.2-1.8-.2-1.8h.6ZM172.7,56.1h-.8c-.1,0-.2.1-.3.2,0,0-.2.2-.2.3,0,.1,0,.2,0,.3,0,.1,0,.2.1.3,0,0,.2.2.3.2.1,0,.2,0,.3,0h.8c0,0-.2-1.4-.2-1.4Z"/>
    <path class="uuid-b79239ec-75a4-43a5-b820-a4a63347bdb1" d="M169,54.2l.4,4.2-2.6.3v-.6c0,0,1.9-.2,1.9-.2v-1c-.1,0-1.7.2-1.7.2v-.6c0,0,1.5-.2,1.5-.2v-1.3c-.1,0-2.1.2-2.1.2v-.6c0,0,2.5-.3,2.5-.3Z"/>
    <path class="uuid-b79239ec-75a4-43a5-b820-a4a63347bdb1" d="M163.4,54.6c.2,0,.5,0,.7,0s.4.1.6.3c.2.1.3.3.4.4l-.6.3c0,0-.1-.2-.2-.2-.1,0-.2-.1-.4-.1-.1,0-.3,0-.4,0-.2,0-.3,0-.4.1s-.2.1-.3.2c0,0-.1.2,0,.3,0,.1,0,.2.2.3,0,0,.2.1.4.2.1,0,.3,0,.4,0,.3,0,.6,0,.8.1.2,0,.4.2.6.3.2.2.2.4.3.6,0,.2,0,.5-.2.7-.1.2-.3.4-.5.5-.2.1-.5.2-.7.2-.2,0-.4,0-.7,0-.2,0-.4-.1-.6-.3-.2-.1-.3-.3-.4-.5l.6-.3c0,0,.1.2.2.2s.2.1.4.1c.1,0,.3,0,.4,0,.2,0,.3,0,.4-.1.1,0,.2-.1.3-.2,0,0,.1-.2.1-.3,0-.1,0-.3-.2-.3,0,0-.2-.1-.3-.1-.1,0-.3,0-.5,0-.3,0-.5,0-.8-.1-.2,0-.4-.2-.6-.3-.2-.2-.2-.4-.3-.6,0-.2,0-.5.2-.7.1-.2.3-.4.5-.5.2-.1.5-.2.7-.2Z"/>
    <path class="uuid-b79239ec-75a4-43a5-b820-a4a63347bdb1" d="M158.3,55.2c.3,0,.6,0,.8,0,.3,0,.5.2.7.4s.4.4.5.6.2.5.3.8c0,.3,0,.6,0,.9,0,.3-.2.5-.4.7-.2.2-.4.4-.6.5-.2.1-.5.2-.8.3-.3,0-.7,0-1-.1-.3-.1-.6-.3-.8-.5l.5-.4c.1.1.3.3.5.3.2,0,.4.1.6,0,.2,0,.4,0,.5-.2.2-.1.3-.2.4-.4.1-.2.2-.3.3-.5,0-.2,0-.4,0-.6,0-.2,0-.4-.2-.6s-.2-.3-.4-.5c-.1-.1-.3-.2-.5-.3-.2,0-.4,0-.6,0-.2,0-.4,0-.6.2-.2.1-.3.3-.4.4l-.6-.2c.2-.3.4-.5.6-.7.3-.2.6-.3.9-.3Z"/>
    <path class="uuid-b79239ec-75a4-43a5-b820-a4a63347bdb1" d="M155.2,55.6l.5,4.2-1.5.2c-.2,0-.4,0-.6,0s-.4-.2-.5-.4c-.1-.2-.2-.4-.2-.6,0-.2,0-.4,0-.5,0-.2.1-.3.3-.4.1-.1.3-.2.4-.3l-1.2-1.6h.7c0,0,1.2,1.5,1.2,1.5h.6c0,0-.2-1.7-.2-1.7h.6ZM154.8,58h-.9c-.1.1-.2.1-.3.2,0,0-.2.2-.2.3,0,.1,0,.2,0,.3,0,.1,0,.2.1.3,0,0,.2.2.3.2.1,0,.2,0,.3,0h.8c0,0-.1-1.4-.1-1.4Z"/>
    <path class="uuid-b79239ec-75a4-43a5-b820-a4a63347bdb1" d="M150.7,56.2l.5,4.2h-.6c0,0-.5-4.1-.5-4.1h.6Z"/>
    <path class="uuid-b79239ec-75a4-43a5-b820-a4a63347bdb1" d="M148.4,56.4l.5,4.2-1.4.2c-.2,0-.4,0-.6,0-.2,0-.4-.2-.5-.4-.1-.2-.2-.4-.2-.6,0-.2,0-.4,0-.7,0-.2.2-.4.4-.5s.4-.2.6-.2h.8c0-.1-.2-1.8-.2-1.8h.6ZM148,58.8h-.8c-.1.1-.2.2-.3.2,0,0-.2.2-.2.3s0,.2,0,.3c0,.1,0,.2.1.3,0,0,.2.2.3.2s.2,0,.3,0h.8c0,0-.2-1.4-.2-1.4Z"/>
    <path class="uuid-b79239ec-75a4-43a5-b820-a4a63347bdb1" d="M141.7,61.6v-.6c0,0,1.2-.2,1.2-.2l-.5-3.5h.6c0,0,.5,3.5.5,3.5l1.3-.2v.6c0,0-3.2.5-3.2.5Z"/>
    <path class="uuid-b79239ec-75a4-43a5-b820-a4a63347bdb1" d="M135.8,58.1c.2,0,.5,0,.7,0s.4.1.6.2c.2.1.3.3.4.4l-.5.3c0,0-.1-.2-.2-.2s-.2-.1-.4-.1c-.1,0-.3,0-.4,0-.2,0-.3,0-.4.1s-.2.2-.3.3c0,.1,0,.2,0,.3,0,.1,0,.2.2.3.1,0,.2.1.4.1s.3,0,.5,0c.3,0,.6,0,.8,0s.4.2.6.3c.2.1.3.3.3.6,0,.2,0,.5-.1.7-.1.2-.3.4-.5.5-.2.1-.5.2-.7.3-.2,0-.4,0-.7,0-.2,0-.4-.1-.6-.2s-.3-.3-.4-.4l.6-.3c0,0,.1.2.2.2.1,0,.2,0,.4.1s.3,0,.4,0c.2,0,.3,0,.4-.1s.2-.2.3-.3c0-.1.1-.2,0-.3,0-.1,0-.3-.2-.3,0,0-.2-.1-.4-.1-.1,0-.3,0-.5,0-.3,0-.5,0-.8-.1-.2,0-.5-.2-.6-.3s-.3-.3-.3-.6c0-.2,0-.5.1-.7s.3-.4.5-.5c.2-.1.5-.2.7-.3Z"/>
    <path class="uuid-b79239ec-75a4-43a5-b820-a4a63347bdb1" d="M132,63.1h-.7c0,.1-2.2-3.8-2.2-3.8h.7c0-.1.4.6.4.6l1.9-.3.2-.8h.7c0-.1-.9,4.3-.9,4.3ZM131.9,60.3l-1.4.2,1,1.8.4-2Z"/>
    <path class="uuid-b79239ec-75a4-43a5-b820-a4a63347bdb1" d="M126.1,59.6c.2,0,.5,0,.7,0,.2,0,.4.1.6.2s.3.2.4.4l-.5.3c0,0-.1-.2-.2-.2s-.2,0-.4-.1c-.1,0-.3,0-.4,0-.2,0-.3,0-.4.1-.1,0-.2.2-.3.3,0,.1,0,.2,0,.3,0,.1,0,.2.2.3.1,0,.2.1.4.1.1,0,.3,0,.5,0,.3,0,.6,0,.8,0,.2,0,.4.2.6.3s.3.3.3.6c0,.2,0,.5-.1.7-.1.2-.3.4-.5.5-.2.1-.5.2-.7.3-.2,0-.4,0-.7,0-.2,0-.4-.1-.6-.2-.2-.1-.3-.3-.4-.4l.6-.3c0,0,.1.2.2.2.1,0,.2,0,.4.1s.3,0,.4,0c.2,0,.3,0,.4-.1.1,0,.2-.2.3-.3,0-.1.1-.2,0-.3,0-.1,0-.3-.2-.3s-.2-.1-.4-.1c-.1,0-.3,0-.5,0-.3,0-.5,0-.8,0s-.5-.2-.6-.3c-.2-.1-.3-.3-.3-.6,0-.2,0-.5.1-.7.1-.2.3-.4.5-.5.2-.1.5-.2.7-.3Z"/>
    <path class="uuid-b79239ec-75a4-43a5-b820-a4a63347bdb1" d="M121.6,60.3c.2,0,.5,0,.7,0s.4.1.6.2c.2.1.3.3.4.4l-.5.3c0,0-.1-.2-.2-.2-.1,0-.2,0-.4-.1-.1,0-.3,0-.4,0-.2,0-.3,0-.4.1-.1,0-.2.2-.3.3,0,.1,0,.2,0,.3,0,.1,0,.2.2.3.1,0,.2.1.4.1.1,0,.3,0,.5,0,.3,0,.6,0,.8,0s.4.2.6.3c.2.1.3.3.3.6,0,.2,0,.5-.1.7-.1.2-.3.4-.5.5s-.5.2-.7.3c-.2,0-.4,0-.7,0s-.4-.1-.6-.2c-.2-.1-.3-.3-.4-.4l.6-.3c0,0,.1.2.2.2.1,0,.2,0,.4.1.1,0,.3,0,.4,0,.2,0,.3,0,.4-.1.1,0,.2-.2.3-.3s.1-.2,0-.3c0-.1,0-.3-.2-.3,0,0-.2-.1-.4-.1-.1,0-.3,0-.5,0-.3,0-.5,0-.8-.1-.2,0-.5-.2-.6-.3-.2-.1-.3-.3-.3-.6,0-.2,0-.5.1-.7.1-.2.3-.4.5-.5.2-.1.5-.2.7-.3Z"/>
    <path class="uuid-b79239ec-75a4-43a5-b820-a4a63347bdb1" d="M116.2,61.2l.6,4.2h-.7c0,0-2.3-2.7-2.3-2.7l.4,3h-.6c0,0-.6-4.1-.6-4.1h.7c0,0,2.3,2.7,2.3,2.7l-.4-3h.6Z"/>
    <path class="uuid-b79239ec-75a4-43a5-b820-a4a63347bdb1" d="M109.5,62.1c.3,0,.6,0,.8,0s.5.2.7.4c.2.2.4.4.5.6.1.2.2.5.3.8,0,.3,0,.6,0,.9s-.2.5-.4.7c-.2.2-.4.4-.6.6-.2.1-.5.2-.8.3-.3,0-.6,0-.8,0-.3,0-.5-.2-.7-.4-.2-.2-.4-.4-.5-.6-.1-.2-.2-.5-.3-.8s0-.6,0-.9.2-.5.4-.7c.2-.2.4-.4.6-.6s.5-.2.8-.3ZM109.6,62.7c-.2,0-.4,0-.5.2-.2.1-.3.2-.4.4-.1.2-.2.3-.2.5,0,.2,0,.4,0,.6,0,.2,0,.4.2.6,0,.2.2.3.4.5.2.1.3.2.5.3.2,0,.4,0,.6,0,.2,0,.4,0,.5-.2.2-.1.3-.2.4-.4.1-.2.2-.3.2-.5,0-.2,0-.4,0-.6,0-.2,0-.4-.2-.6s-.2-.3-.4-.5c-.2-.1-.3-.2-.5-.3-.2,0-.4,0-.6,0Z"/>
    <path class="uuid-b79239ec-75a4-43a5-b820-a4a63347bdb1" d="M106,62.6l.5,4.2-1.4.2c-.3,0-.6,0-.8,0-.3,0-.5-.2-.7-.4-.2-.2-.4-.4-.5-.6-.1-.2-.2-.5-.3-.8s0-.6,0-.8c0-.3.2-.5.4-.7s.4-.4.6-.5c.2-.1.5-.2.8-.3l1.4-.2ZM105.4,63.3h-.8c-.2.1-.4.2-.6.3-.2,0-.3.2-.4.4-.1.2-.2.3-.3.5,0,.2,0,.4,0,.6,0,.2,0,.4.2.6s.2.3.4.4c.2.1.3.2.5.3.2,0,.4,0,.6,0h.8c0,0-.3-3-.3-3Z"/>
    <path class="uuid-b79239ec-75a4-43a5-b820-a4a63347bdb1" d="M101,63.1l.4,4.2-2.6.3v-.6c0,0,1.9-.2,1.9-.2v-1c0,0-1.7.2-1.7.2v-.6c0,0,1.5-.2,1.5-.2v-1.3c-.1,0-2.1.2-2.1.2v-.6c0,0,2.5-.3,2.5-.3Z"/>
    <path class="uuid-b79239ec-75a4-43a5-b820-a4a63347bdb1" d="M96.7,63.5c0,0,.2,0,.2,0,0,0,.1.1.1.2,0,0,0,.2,0,.2,0,0-.1.1-.2.1s-.2,0-.2,0c0,0-.1-.1-.1-.2,0,0,0-.2,0-.2,0,0,.1-.1.2-.1Z"/>
    <path class="uuid-b79239ec-75a4-43a5-b820-a4a63347bdb1" d="M94.2,63.7c.1,0,.3,0,.4,0,.1,0,.3.1.4.2l-.4.5c0,0-.1,0-.2,0,0,0-.2,0-.2,0-.1,0-.2,0-.3.1,0,0-.2.2-.2.3,0,.1,0,.2,0,.3l.2,3h-.6s-.2-2.9-.2-2.9c0-.2,0-.5.1-.7.1-.2.2-.4.4-.5.2-.1.4-.2.6-.2Z"/>
    <path class="uuid-b79239ec-75a4-43a5-b820-a4a63347bdb1" d="M89.8,64c.2,0,.5,0,.7,0,.2,0,.4.2.6.3.2.1.3.3.4.5l-.6.2c0,0-.1-.2-.2-.2-.1,0-.2-.1-.4-.2-.1,0-.3,0-.4,0-.2,0-.3,0-.4.1-.1,0-.2.1-.3.2,0,0-.1.2-.1.3,0,.1,0,.2.2.3,0,0,.2.1.4.2.1,0,.3,0,.4,0,.3,0,.6,0,.8.2.2,0,.4.2.6.4s.2.4.2.6c0,.2,0,.5-.2.7-.1.2-.3.3-.5.5-.2.1-.5.2-.8.2-.2,0-.4,0-.7,0-.2,0-.4-.2-.6-.3-.2-.1-.3-.3-.4-.5l.6-.2c0,0,.1.2.2.2,0,0,.2.1.4.2.1,0,.3,0,.4,0,.2,0,.3,0,.4,0,.1,0,.2-.1.3-.2,0,0,.1-.2.1-.3,0-.1,0-.3-.1-.3s-.2-.1-.3-.2c-.1,0-.3,0-.5,0-.3,0-.5,0-.8-.2-.2,0-.4-.2-.6-.4s-.2-.4-.2-.6c0-.2,0-.5.2-.7.1-.2.3-.3.5-.5.2-.1.5-.2.8-.2Z"/>
    <path class="uuid-b79239ec-75a4-43a5-b820-a4a63347bdb1" d="M84.3,64.3l.3,4.2h-1.4c-.2.1-.4,0-.6,0-.2,0-.3-.2-.5-.4-.1-.2-.2-.4-.2-.6,0-.2,0-.4.1-.6,0-.2.2-.4.4-.5.2-.1.4-.2.6-.2h.8c0,0-.1-1.7-.1-1.7h.6ZM83.9,66.7h-.8c-.1,0-.2,0-.3.2s-.2.2-.2.3c0,.1,0,.2,0,.3,0,.1,0,.2.1.3,0,0,.2.2.3.2.1,0,.2,0,.3,0h.8c0,0,0-1.4,0-1.4Z"/>
    <path class="uuid-b79239ec-75a4-43a5-b820-a4a63347bdb1" d="M78.3,64.7c.3,0,.6,0,.8,0s.5.2.7.4c.2.2.4.4.5.7.1.3.2.5.2.8,0,.3,0,.6,0,.9,0,.3-.2.5-.4.7-.2.2-.4.4-.6.5-.2.1-.5.2-.8.2-.3,0-.6,0-.8,0s-.5-.2-.7-.4c-.2-.2-.4-.4-.5-.7-.1-.3-.2-.5-.2-.8,0-.3,0-.6,0-.9,0-.3.2-.5.4-.7.2-.2.4-.4.6-.5.2-.1.5-.2.8-.2ZM78.3,65.3c-.2,0-.4,0-.5.2-.2,0-.3.2-.4.4-.1.2-.2.3-.3.5s0,.4,0,.6c0,.2,0,.4.2.6s.2.3.4.5.3.2.5.3c.2,0,.4,0,.6,0s.4,0,.5-.2.3-.2.4-.4.2-.3.3-.5c0-.2,0-.4,0-.6,0-.2,0-.4-.2-.6s-.2-.3-.4-.5c-.1-.1-.3-.2-.5-.3-.2,0-.4,0-.6,0Z"/>
    <path class="uuid-b79239ec-75a4-43a5-b820-a4a63347bdb1" d="M73.2,65.2c.2,0,.5,0,.7,0,.2,0,.4.1.6.2s.3.3.4.4l-.6.3c0,0-.1-.2-.2-.2s-.2-.1-.4-.1c-.1,0-.3,0-.4,0-.2,0-.3,0-.4.1-.1,0-.2.2-.3.3,0,.1-.1.2,0,.3,0,.1,0,.2.2.3.1,0,.2.1.4.2.1,0,.3,0,.4,0,.3,0,.6,0,.8.1.2,0,.4.2.6.3.2.1.2.4.3.6,0,.2,0,.5-.1.7-.1.2-.3.4-.5.5-.2.1-.5.2-.7.2-.2,0-.4,0-.7,0s-.4-.1-.6-.2c-.2-.1-.3-.3-.4-.4l.6-.3c0,0,.1.2.2.2s.2.1.4.1c.1,0,.3,0,.4,0,.2,0,.3,0,.4-.1.1,0,.2-.2.3-.3,0-.1.1-.2,0-.3,0-.1,0-.3-.2-.3,0,0-.2-.1-.4-.1s-.3,0-.5,0c-.3,0-.5,0-.8-.1-.2,0-.5-.2-.6-.3-.2-.1-.3-.3-.3-.6,0-.2,0-.5.1-.7.1-.2.3-.4.5-.5.2-.1.5-.2.7-.2Z"/>
    <path class="uuid-b79239ec-75a4-43a5-b820-a4a63347bdb1" d="M67.7,70.4v-.6c-.1,0,1.2-.2,1.2-.2l-.6-3.5h.6c0-.1.6,3.4.6,3.4l1.3-.2v.6c.1,0-3.1.6-3.1.6Z"/>
    <path class="uuid-b79239ec-75a4-43a5-b820-a4a63347bdb1" d="M63.4,67.1c.3,0,.6,0,.8,0,.3,0,.5.1.8.3.2.1.4.3.6.6s.3.5.4.8c0,.3,0,.6,0,.9,0,.3-.1.5-.3.8-.1.2-.3.4-.5.6-.2.2-.5.3-.7.4-.3,0-.6,0-.9,0-.3,0-.6-.2-.9-.4l.5-.4c.2.1.4.2.6.3.2,0,.4,0,.6,0,.2,0,.4-.1.5-.3.1-.1.3-.3.4-.4,0-.2.2-.4.2-.6s0-.4,0-.6c0-.2-.1-.4-.3-.6-.1-.2-.3-.3-.4-.4-.2-.1-.3-.2-.5-.2-.2,0-.4,0-.6,0-.1,0-.3,0-.4.2-.1,0-.2.2-.3.3,0,.1-.2.2-.2.4s0,.3,0,.5l.9-.2v.5c.1,0-1.4.4-1.4.4,0-.3-.1-.6,0-.9,0-.3.1-.5.3-.8.1-.2.3-.5.5-.6s.5-.3.7-.4Z"/>
    <path class="uuid-b79239ec-75a4-43a5-b820-a4a63347bdb1" d="M59.7,68.2l1.5,3.9-1.4.5c-.2,0-.4,0-.6,0-.2,0-.4-.1-.6-.3s-.3-.3-.4-.5c0-.2,0-.4,0-.5,0-.2,0-.3.1-.5s.2-.3.3-.4l-1.6-1.3.7-.3,1.5,1.2.5-.2-.6-1.6.6-.2ZM59.9,70.6l-.8.3c-.1,0-.2.1-.3.2,0,0-.1.2-.1.3,0,.1,0,.2,0,.3s.1.2.2.3c0,0,.2.1.3.1.1,0,.2,0,.3,0l.8-.3-.5-1.3Z"/>
    <path class="uuid-b79239ec-75a4-43a5-b820-a4a63347bdb1" d="M55.3,69.9l1.9,3.8-2.3,1.2-.3-.6,1.8-.9-.4-.9-1.4.7-.3-.6,1.4-.7-.6-1.2-1.8.9-.3-.6,2.3-1.2Z"/>
    <path class="uuid-b79239ec-75a4-43a5-b820-a4a63347bdb1" d="M50,72.9c.2-.1.4-.2.6-.3.2,0,.4,0,.6,0s.4,0,.6.2l-.4.5c0,0-.2,0-.3,0-.1,0-.3,0-.4,0s-.3.1-.4.2c-.1,0-.2.2-.3.3,0,.1-.1.2-.2.4,0,.1,0,.2,0,.3,0,.1.2.2.3.2.1,0,.3,0,.4,0,.1,0,.3,0,.4-.2.3-.1.5-.2.8-.3.2,0,.5,0,.7,0,.2,0,.4.2.5.4.1.2.2.4.2.7,0,.2,0,.5-.2.7-.1.2-.3.4-.5.6-.2.1-.4.2-.6.3-.2,0-.4,0-.6,0-.2,0-.4,0-.6-.2l.4-.5c0,0,.2,0,.3,0,.1,0,.2,0,.4,0s.3-.1.4-.2c.1,0,.2-.2.3-.3,0-.1.1-.2.2-.4,0-.1,0-.2,0-.3,0-.1-.2-.2-.3-.2-.1,0-.2,0-.4,0-.1,0-.3.1-.4.2-.3.1-.5.2-.8.3-.3,0-.5,0-.7,0-.2,0-.4-.2-.5-.4s-.2-.4-.2-.7c0-.2,0-.5.2-.7.1-.2.3-.4.5-.6Z"/>
    <path class="uuid-b79239ec-75a4-43a5-b820-a4a63347bdb1" d="M45.8,76.4c.2-.2.4-.4.7-.5.3,0,.5-.1.8-.1.3,0,.5,0,.8.2.3.1.5.3.7.5.2.2.4.5.5.7.1.3.2.5.2.8,0,.3,0,.5-.1.8,0,.3-.2.5-.4.7-.2.2-.5.4-.8.5-.3.1-.6.1-1,0l.2-.6c.2,0,.4,0,.6,0,.2,0,.4-.2.5-.3.1-.1.2-.3.3-.5,0-.2,0-.4,0-.6s0-.4-.1-.6c0-.2-.2-.4-.4-.5-.2-.2-.3-.3-.5-.3-.2,0-.4-.1-.6-.1-.2,0-.4,0-.6,0-.2,0-.3.2-.5.3-.1.1-.2.2-.2.4,0,.1-.1.3-.1.4,0,.1,0,.3,0,.4,0,.1,0,.3.1.4l.6-.6.4.4-1.1,1.2c-.2-.2-.4-.4-.5-.7s-.2-.5-.2-.8c0-.3,0-.5.1-.8,0-.3.2-.5.4-.7Z"/>
    <path class="uuid-b79239ec-75a4-43a5-b820-a4a63347bdb1" d="M43.2,79.5l3.5,2.4-.4.5-3-2-1,1.5-.5-.4,1.4-2Z"/>
    <path class="uuid-b79239ec-75a4-43a5-b820-a4a63347bdb1" d="M39.8,85.7l4,1.2-.7,2.5-.6-.2.6-1.9-1-.3-.5,1.5-.6-.2.5-1.5-1.3-.4-.6,1.9-.6-.2.7-2.5Z"/>
    <path class="uuid-b79239ec-75a4-43a5-b820-a4a63347bdb1" d="M38.6,90.3l2.1,1.6,2.1-1.5v.8s-1.6,1.1-1.6,1.1l1.5,1.2v.8s-2.1-1.5-2.1-1.5l-2.1,1.5v-.8s1.6-1.1,1.6-1.1l-1.6-1.2v-.8Z"/>
    <path class="uuid-b79239ec-75a4-43a5-b820-a4a63347bdb1" d="M39,96.4l4-1.3.4,1.4c0,.2,0,.4,0,.6,0,.2-.1.4-.3.6-.1.2-.3.3-.5.3-.2,0-.4,0-.7,0s-.4-.1-.6-.3c-.2-.1-.3-.3-.3-.5l-.3-.8-1.6.5-.2-.6ZM41.4,96.2l.2.7c0,.1,0,.2.2.3,0,0,.2.1.3.2s.2,0,.3,0c.1,0,.2-.1.3-.2s.1-.2.2-.3c0-.1,0-.2,0-.3l-.2-.7-1.3.4Z"/>
    <path class="uuid-b79239ec-75a4-43a5-b820-a4a63347bdb1" d="M40.7,100.8l3.6-2.2.8,1.3c.1.2.2.4.2.6,0,.2,0,.4-.2.6-.1.2-.3.3-.5.5-.2.1-.3.2-.5.2s-.3,0-.5,0c-.2,0-.3-.1-.4-.3l-1,1.8-.4-.6.9-1.7-.3-.5-1.4.9-.3-.5ZM43,100.1l.5.7c0,.1.1.2.2.2.1,0,.2,0,.3,0,.1,0,.2,0,.3-.1.1,0,.2-.2.2-.3,0-.1,0-.2,0-.3s0-.2,0-.3l-.5-.7-1.1.7Z"/>
    <path class="uuid-b79239ec-75a4-43a5-b820-a4a63347bdb1" d="M43.6,105l2.9-3,1.9,1.8-.4.5-1.4-1.4-.7.7,1.2,1.1-.4.5-1.2-1.1-.9.9,1.4,1.4-.4.5-1.9-1.8Z"/>
    <path class="uuid-b79239ec-75a4-43a5-b820-a4a63347bdb1" d="M48.4,108.9c-.2-.1-.4-.3-.5-.4-.1-.2-.2-.4-.3-.6,0-.2,0-.4,0-.6h.6c0,.2,0,.3,0,.4,0,.1.1.2.2.3,0,.1.2.2.3.3.1,0,.3.1.4.2s.3,0,.4,0c.1,0,.2-.1.3-.2,0-.1,0-.2,0-.3s0-.2-.2-.3-.2-.2-.3-.3c-.2-.2-.4-.4-.6-.6-.2-.2-.2-.4-.3-.6,0-.2,0-.4.2-.7.1-.2.3-.4.5-.4.2,0,.5-.1.7,0,.3,0,.5.1.7.3.2.1.4.3.5.4.1.2.2.4.3.6,0,.2,0,.4,0,.6h-.6c0-.2,0-.3,0-.4,0-.1-.1-.2-.2-.3s-.2-.2-.3-.3c-.1,0-.3-.1-.4-.2s-.3,0-.4,0-.2,0-.3.2c0,.1-.1.2,0,.4,0,.1,0,.2.2.3,0,.1.2.2.3.3.2.2.4.4.5.6s.2.4.3.6,0,.4-.1.6c-.1.2-.3.4-.5.4-.2,0-.5.1-.7,0-.3,0-.5-.1-.7-.3Z"/>
    <path class="uuid-b79239ec-75a4-43a5-b820-a4a63347bdb1" d="M52.9,111.2c-.2,0-.4-.2-.6-.3-.2-.1-.3-.3-.4-.5,0-.2-.1-.4-.1-.6h.6c0,.1,0,.2,0,.3,0,.1.1.2.3.3s.2.2.4.2c.1,0,.3,0,.4,0s.3,0,.4,0,.2-.1.2-.3c0-.1,0-.2,0-.3s-.1-.2-.2-.3c-.1,0-.2-.2-.4-.3-.3-.2-.5-.3-.7-.5-.2-.2-.3-.4-.4-.6,0-.2,0-.4,0-.7,0-.2.2-.4.4-.5.2-.1.4-.2.7-.2.3,0,.5,0,.8.1.2,0,.4.2.6.3.2.1.3.3.4.5s.1.4.1.6h-.6c0-.1,0-.2,0-.3,0-.1-.1-.2-.3-.3s-.2-.2-.4-.2c-.1,0-.3,0-.4,0-.1,0-.3,0-.4,0-.1,0-.2.1-.2.2,0,.1,0,.3,0,.4,0,.1.1.2.2.3.1,0,.2.2.4.3.2.1.4.3.6.5s.3.4.4.6c0,.2,0,.4,0,.7,0,.2-.2.4-.4.5-.2.1-.4.2-.7.2-.3,0-.5,0-.8-.1Z"/>
    <path class="uuid-b79239ec-75a4-43a5-b820-a4a63347bdb1" d="M58.6,112.9l.9-4.1,1.5.3c.2,0,.4.1.6.3.2.1.3.3.3.5,0,.2,0,.4,0,.7,0,.2-.1.4-.2.5-.1.1-.2.3-.4.3-.2,0-.3.1-.5.1l.6,1.9-.7-.2-.6-1.9h-.6c0-.1-.4,1.5-.4,1.5h-.6ZM59.7,110.8l.8.2c.1,0,.2,0,.3,0s.2,0,.3-.2c0,0,.1-.2.2-.3s0-.2,0-.4c0-.1,0-.2-.2-.3,0,0-.2-.1-.3-.2l-.8-.2-.3,1.3Z"/>
    <path class="uuid-b79239ec-75a4-43a5-b820-a4a63347bdb1" d="M63.1,113.8l.6-4.2,2.6.4v.6c0,0-2-.3-2-.3v1c-.1,0,1.4.2,1.4.2v.6c0,0-1.7-.2-1.7-.2l-.2,1.3,2,.3v.6c0,0-2.7-.4-2.7-.4Z"/>
    <path class="uuid-b79239ec-75a4-43a5-b820-a4a63347bdb1" d="M69.1,110.3h.7c0,0,1.2,4.3,1.2,4.3h-.7s-.2-.9-.2-.9h-1.9c0-.1-.3.6-.3.6h-.7s1.8-4.1,1.8-4.1ZM68.6,113h1.4c0,0-.6-1.9-.6-1.9l-.8,1.9Z"/>
    <path class="uuid-b79239ec-75a4-43a5-b820-a4a63347bdb1" d="M74.7,114.8c-.3,0-.5,0-.8-.2-.2-.1-.5-.3-.7-.5-.2-.2-.3-.4-.4-.7-.1-.3-.2-.5-.2-.8,0-.3,0-.6.2-.8.1-.3.3-.5.5-.7.2-.2.4-.4.7-.5.3-.1.5-.2.8-.2.3,0,.7,0,.9.2s.5.4.7.6l-.6.3c-.1-.2-.3-.3-.5-.4-.2-.1-.4-.2-.6-.2-.2,0-.4,0-.6.1-.2,0-.3.2-.5.3s-.2.3-.3.5c0,.2-.1.4-.1.6,0,.2,0,.4.1.6,0,.2.2.4.3.5.1.1.3.3.5.3.2,0,.4.1.6.1.2,0,.4,0,.6-.1.2,0,.4-.2.5-.4l.6.3c-.2.3-.4.5-.7.6-.3.2-.6.2-.9.2Z"/>
    <path class="uuid-b79239ec-75a4-43a5-b820-a4a63347bdb1" d="M80.9,110.4v.6s-1.3,0-1.3,0v3.6c.1,0-.5,0-.5,0v-3.6c-.1,0-1.4,0-1.4,0v-.6s3.3-.1,3.3-.1Z"/>
    <path class="uuid-b79239ec-75a4-43a5-b820-a4a63347bdb1" d="M82.7,114.6c0,0-.2,0-.2,0,0,0-.1-.1-.1-.2,0,0,0-.2,0-.2s.1-.1.2-.1c0,0,.2,0,.2,0,0,0,.1.1.1.2,0,0,0,.2,0,.2,0,0-.1.1-.2.1Z"/>
    <path class="uuid-b79239ec-75a4-43a5-b820-a4a63347bdb1" d="M87.5,114.2c-.1,0-.3,0-.4,0-.1,0-.3,0-.4-.2l.4-.5c0,0,.1,0,.2,0s.2,0,.2,0c.1,0,.2,0,.3-.1s.2-.2.2-.3c0-.1,0-.2,0-.3l-.3-3h.6c0,0,.3,2.9.3,2.9,0,.2,0,.5-.1.7s-.2.4-.4.5c-.2.1-.4.2-.6.2Z"/>
    <path class="uuid-b79239ec-75a4-43a5-b820-a4a63347bdb1" d="M91.9,113.7c-.2,0-.5,0-.7,0-.2,0-.4-.1-.6-.2s-.3-.3-.4-.4l.6-.3c0,0,.1.2.2.2.1,0,.2.1.4.1.1,0,.3,0,.4,0,.2,0,.3,0,.4-.1.1,0,.2-.2.3-.3,0-.1.1-.2,0-.3,0-.1,0-.2-.2-.3,0,0-.2-.1-.4-.2-.1,0-.3,0-.4,0-.3,0-.6,0-.8-.1-.2,0-.4-.2-.6-.3-.2-.1-.2-.4-.3-.6,0-.2,0-.5.1-.7.1-.2.3-.4.5-.5s.5-.2.7-.2c.2,0,.4,0,.7,0s.4.1.6.2.3.3.4.4l-.6.3c0,0-.1-.2-.2-.2-.1,0-.2-.1-.4-.1-.1,0-.3,0-.4,0-.2,0-.3,0-.4.1-.1,0-.2.2-.3.3,0,.1-.1.2,0,.3,0,.1,0,.3.2.3,0,0,.2.1.3.1s.3,0,.5,0c.3,0,.5,0,.8.1.2,0,.4.2.6.3.2.2.3.3.3.6,0,.2,0,.5-.1.7s-.3.4-.5.5c-.2.1-.5.2-.7.2Z"/>
    <path class="uuid-b79239ec-75a4-43a5-b820-a4a63347bdb1" d="M99.7,108.3v.6c0,0-1.2.2-1.2.2l.6,3.5h-.6c0,0-.6-3.4-.6-3.4l-1.3.2v-.6c0,0,3.2-.5,3.2-.5Z"/>
    <path class="uuid-b79239ec-75a4-43a5-b820-a4a63347bdb1" d="M103.6,107.6h.7c0-.1-1,2.4-1,2.4l.3,1.9h-.6c0,.1-.3-1.8-.3-1.8l-1.8-2h.7c0-.1,1.3,1.3,1.3,1.3l.7-1.8Z"/>
    <path class="uuid-b79239ec-75a4-43a5-b820-a4a63347bdb1" d="M106.5,111.3l-.8-4.1,1.4-.3c.2,0,.4,0,.6,0,.2,0,.4.2.5.4.1.2.2.4.3.6,0,.2,0,.4,0,.7s-.2.4-.3.5-.3.2-.6.3l-.8.2.3,1.7h-.6ZM106.7,108.9l.7-.2c.1,0,.2,0,.3-.2,0,0,.1-.2.2-.3,0-.1,0-.2,0-.4,0-.1,0-.2-.2-.3,0,0-.2-.2-.3-.2-.1,0-.2,0-.3,0l-.7.2.3,1.3Z"/>
    <path class="uuid-b79239ec-75a4-43a5-b820-a4a63347bdb1" d="M110.6,110.5l-.9-4.1,2.5-.5v.6c.1,0-1.8.4-1.8.4l.2,1,1.6-.3v.6c.1,0-1.4.3-1.4.3l.3,1.3,1.9-.4v.6c.1,0-2.4.5-2.4.5Z"/>
    <path class="uuid-b79239ec-75a4-43a5-b820-a4a63347bdb1" d="M116.2,109.4c-.2,0-.4,0-.7,0s-.4,0-.6-.2c-.2,0-.3-.2-.4-.4l.5-.3c0,0,.1.2.2.2.1,0,.2,0,.4,0,.1,0,.3,0,.4,0,.2,0,.3,0,.4-.2.1,0,.2-.2.3-.3,0-.1,0-.2,0-.3,0-.1,0-.2-.2-.3s-.2,0-.4-.1c-.1,0-.3,0-.5,0-.3,0-.6,0-.8,0-.2,0-.5-.1-.6-.3-.2-.1-.3-.3-.3-.6,0-.2,0-.5,0-.7,0-.2.3-.4.5-.5s.4-.3.7-.3c.2,0,.4,0,.7,0,.2,0,.4,0,.6.2s.3.2.4.4l-.5.3c0,0-.1-.2-.2-.2-.1,0-.2,0-.4,0-.1,0-.3,0-.4,0-.2,0-.3,0-.4.2-.1,0-.2.2-.3.3,0,.1,0,.2,0,.3,0,.1,0,.2.2.3s.2,0,.4,0c.1,0,.3,0,.5,0,.3,0,.5,0,.8,0,.3,0,.5.1.6.3.2.1.3.3.3.6,0,.2,0,.5,0,.7,0,.2-.3.4-.5.5-.2.2-.4.3-.7.3Z"/>
    <path class="uuid-b79239ec-75a4-43a5-b820-a4a63347bdb1" d="M121.1,108.3c-.3,0-.5,0-.8,0-.3,0-.5-.2-.7-.3-.2-.2-.4-.3-.6-.6-.2-.2-.3-.5-.3-.8,0-.3,0-.6,0-.9,0-.3.1-.5.3-.8.1-.2.3-.4.5-.6.2-.2.5-.3.7-.3.3,0,.7,0,1,0,.3,0,.6.2.8.5l-.5.4c-.2-.1-.3-.2-.6-.3-.2,0-.4,0-.6,0-.2,0-.4.1-.5.2s-.3.3-.4.4-.2.4-.2.6c0,.2,0,.4,0,.6,0,.2.1.4.2.6.1.2.3.3.4.4s.3.2.5.2.4,0,.6,0c.2,0,.4-.1.6-.3.2-.1.3-.3.4-.5l.6.2c-.1.3-.3.6-.6.8-.2.2-.5.4-.9.4Z"/>
    <path class="uuid-b79239ec-75a4-43a5-b820-a4a63347bdb1" d="M124.2,107.5l-1-4.1,1.5-.4c.2,0,.4,0,.6,0s.4.2.5.3c.1.2.2.4.3.6,0,.2,0,.4,0,.5,0,.2-.1.3-.2.5-.1.1-.2.3-.4.3l1.4,1.5-.7.2-1.4-1.4h-.6c0,.1.4,1.8.4,1.8h-.6ZM124.3,105.1l.8-.2c.1,0,.2,0,.3-.2,0,0,.1-.2.2-.3,0-.1,0-.2,0-.3,0-.1,0-.2-.2-.3,0,0-.2-.1-.3-.2-.1,0-.2,0-.3,0l-.8.2.3,1.3Z"/>
    <path class="uuid-b79239ec-75a4-43a5-b820-a4a63347bdb1" d="M128.6,106.4l-1-4.1h.6c0-.1,1,3.9,1,3.9h-.6Z"/>
    <path class="uuid-b79239ec-75a4-43a5-b820-a4a63347bdb1" d="M130.9,105.9l-1-4.1,1.4-.3c.2,0,.4,0,.6,0,.2,0,.4.2.5.3s.3.3.3.6c0,.2,0,.4,0,.7,0,.2-.2.4-.3.5-.2.2-.3.3-.5.3l-.8.2.4,1.6h-.6ZM130.9,103.4l.7-.2c.1,0,.2,0,.3-.2,0,0,.1-.2.2-.3s0-.2,0-.4,0-.2-.2-.3c0,0-.2-.1-.3-.2-.1,0-.2,0-.3,0l-.7.2.3,1.3Z"/>
    <path class="uuid-b79239ec-75a4-43a5-b820-a4a63347bdb1" d="M137,100l.2.6-1.3.3.9,3.5-.6.2-.9-3.5-1.3.3-.2-.6,3.2-.8Z"/>
    <path class="uuid-b79239ec-75a4-43a5-b820-a4a63347bdb1" d="M143.2,102.9c-.2,0-.4,0-.7,0-.2,0-.4,0-.6-.2-.2,0-.3-.2-.4-.4l.5-.4c0,0,.1.2.3.2s.2,0,.4,0c.1,0,.3,0,.4,0,.2,0,.3-.1.4-.2s.2-.2.3-.3c0-.1,0-.2,0-.3,0-.1-.1-.2-.2-.3s-.2,0-.4-.1c-.1,0-.3,0-.5,0-.3,0-.6,0-.8,0-.2,0-.5-.1-.6-.2-.2-.1-.3-.3-.4-.6,0-.2,0-.5,0-.7,0-.2.2-.4.4-.6.2-.2.4-.3.7-.3.2,0,.4,0,.7,0,.2,0,.4,0,.6.2.2,0,.3.2.5.4l-.5.4c0,0-.1-.2-.3-.2-.1,0-.2,0-.4,0-.1,0-.3,0-.4,0-.2,0-.3,0-.4.2s-.2.2-.3.3c0,.1,0,.2,0,.3,0,.1.1.2.2.3s.2,0,.4,0,.3,0,.5,0c.3,0,.5,0,.8,0,.3,0,.5.1.6.3s.3.3.4.6c0,.2,0,.5,0,.7,0,.2-.2.4-.4.6-.2.2-.4.3-.7.3Z"/>
    <path class="uuid-b79239ec-75a4-43a5-b820-a4a63347bdb1" d="M146.5,97.6l.7-.2,2.5,3.7-.6.2-.5-.7-1.8.5v.8c0,0-.7.2-.7.2l.5-4.4ZM146.9,100.4l1.4-.3-1.2-1.7-.2,2.1Z"/>
    <path class="uuid-b79239ec-75a4-43a5-b820-a4a63347bdb1" d="M152.7,100.5c-.2,0-.4,0-.7,0-.2,0-.4,0-.6-.2s-.3-.2-.4-.4l.5-.4c0,0,.1.2.3.2.1,0,.2,0,.4,0,.1,0,.3,0,.4,0,.2,0,.3-.1.4-.2s.2-.2.3-.3c0-.1,0-.2,0-.3,0-.1-.1-.2-.2-.3s-.2,0-.4-.1-.3,0-.5,0c-.3,0-.6,0-.8,0s-.5-.1-.6-.2c-.2-.1-.3-.3-.4-.6,0-.2,0-.5,0-.7,0-.2.2-.4.4-.6s.4-.3.7-.3c.2,0,.4,0,.7,0,.2,0,.4,0,.6.2.2,0,.3.2.5.4l-.5.4c0,0-.1-.2-.3-.2-.1,0-.2,0-.4,0-.1,0-.3,0-.4,0-.2,0-.3,0-.4.2s-.2.2-.3.3c0,.1,0,.2,0,.3,0,.1.1.2.2.3,0,0,.2,0,.4,0,.1,0,.3,0,.5,0,.3,0,.5,0,.8,0,.3,0,.5.1.6.3s.3.3.4.6c0,.2,0,.5,0,.7,0,.2-.2.4-.4.6-.2.2-.4.3-.7.3Z"/>
    <path class="uuid-b79239ec-75a4-43a5-b820-a4a63347bdb1" d="M157.2,99.3c-.2,0-.4,0-.7,0-.2,0-.4,0-.6-.2-.2,0-.3-.2-.4-.4l.5-.4c0,0,.1.2.3.2.1,0,.2,0,.4,0,.1,0,.3,0,.4,0,.2,0,.3,0,.4-.2.1,0,.2-.2.3-.3,0-.1,0-.2,0-.3,0-.1,0-.2-.2-.3-.1,0-.2,0-.4-.1-.1,0-.3,0-.5,0-.3,0-.6,0-.8,0-.2,0-.5-.1-.6-.2s-.3-.3-.4-.6c0-.2,0-.5,0-.7,0-.2.2-.4.4-.6.2-.2.4-.3.7-.3.2,0,.4,0,.7,0,.2,0,.4,0,.6.2.2,0,.3.2.5.4l-.5.3c0,0-.1-.2-.3-.2s-.2,0-.4,0c-.1,0-.3,0-.4,0-.2,0-.3,0-.4.2-.1,0-.2.2-.3.3s0,.2,0,.3c0,.1.1.2.2.3,0,0,.2,0,.4,0,.1,0,.3,0,.5,0,.3,0,.5,0,.8,0,.3,0,.5.1.6.3.2.1.3.3.4.6,0,.2,0,.5,0,.7s-.2.4-.4.6-.4.3-.7.3Z"/>
    <path class="uuid-b79239ec-75a4-43a5-b820-a4a63347bdb1" d="M162.5,98l-1-4.1.7-.2,2.6,2.5-.7-3h.6c0-.1,1,3.9,1,3.9l-.7.2-2.6-2.5.7,3h-.6Z"/>
    <path class="uuid-b79239ec-75a4-43a5-b820-a4a63347bdb1" d="M169.1,96.5c-.3,0-.5,0-.8,0-.3,0-.5-.2-.7-.3s-.4-.3-.6-.6c-.2-.2-.3-.5-.3-.8,0-.3,0-.6,0-.9,0-.3.1-.5.3-.8.1-.2.3-.4.5-.6.2-.2.5-.3.7-.3.3,0,.6,0,.8,0,.3,0,.5.2.7.3.2.2.4.3.6.6.2.2.3.5.3.8,0,.3,0,.6,0,.9,0,.3-.1.5-.3.8-.1.2-.3.4-.5.6-.2.2-.5.3-.7.3ZM168.9,95.9c.2,0,.4-.1.5-.2.2-.1.3-.3.4-.4,0-.2.2-.4.2-.6,0-.2,0-.4,0-.6,0-.2-.1-.4-.2-.6-.1-.2-.3-.3-.4-.4-.2-.1-.3-.2-.5-.2-.2,0-.4,0-.6,0-.2,0-.4.1-.5.2-.2.1-.3.3-.4.4,0,.2-.2.4-.2.6,0,.2,0,.4,0,.6,0,.2.1.4.2.6.1.2.3.3.4.4s.3.2.5.2c.2,0,.4,0,.6,0Z"/>
    <path class="uuid-b79239ec-75a4-43a5-b820-a4a63347bdb1" d="M172.5,95.6l-.9-4.1,1.4-.3c.3,0,.6,0,.8,0,.3,0,.5.2.8.3.2.1.4.3.6.6.2.2.3.5.3.8,0,.3,0,.6,0,.8,0,.3-.1.5-.3.8-.1.2-.3.4-.6.6-.2.2-.5.3-.8.3l-1.4.3ZM173,94.9l.7-.2c.2,0,.4-.1.5-.2.2-.1.3-.2.4-.4.1-.2.2-.3.2-.5,0-.2,0-.4,0-.6s-.1-.4-.2-.5c-.1-.2-.3-.3-.4-.4-.2-.1-.3-.2-.5-.2-.2,0-.4,0-.6,0l-.7.2.6,2.9Z"/>
    <path class="uuid-b79239ec-75a4-43a5-b820-a4a63347bdb1" d="M177.3,94.6l-.9-4.1,2.5-.5v.6c.1,0-1.8.4-1.8.4l.2,1,1.6-.3v.6c.1,0-1.4.3-1.4.3l.3,1.3,1.9-.4v.6c.1,0-2.4.5-2.4.5Z"/>
    <path class="uuid-b79239ec-75a4-43a5-b820-a4a63347bdb1" d="M181.6,93.8c0,0-.2,0-.2,0,0,0-.1-.1-.1-.2,0,0,0-.2,0-.2,0,0,.1-.1.2-.1,0,0,.2,0,.2,0,0,0,.1.1.1.2,0,0,0,.2,0,.2,0,0-.1.1-.2.1Z"/>
    <path class="uuid-b79239ec-75a4-43a5-b820-a4a63347bdb1" d="M184.1,93.3c-.1,0-.3,0-.4,0-.1,0-.3,0-.4-.2l.3-.5c0,0,.1,0,.2,0,0,0,.2,0,.2,0,.1,0,.2,0,.3-.1,0,0,.2-.2.2-.3,0-.1,0-.2,0-.3l-.5-2.9h.6c0-.1.5,2.8.5,2.8,0,.2,0,.5,0,.7,0,.2-.2.4-.4.5-.2.1-.4.2-.6.3Z"/>
    <path class="uuid-b79239ec-75a4-43a5-b820-a4a63347bdb1" d="M188.4,92.7c-.2,0-.5,0-.7,0-.2,0-.4-.1-.6-.2-.2-.1-.3-.3-.4-.4l.6-.3c0,0,.1.2.2.2.1,0,.2.1.4.1.1,0,.3,0,.4,0,.2,0,.3,0,.4-.1.1,0,.2-.2.3-.3s.1-.2,0-.3c0-.1,0-.2-.2-.3,0,0-.2-.1-.4-.2-.1,0-.3,0-.4,0-.3,0-.6,0-.8-.1s-.4-.2-.6-.3c-.2-.1-.2-.4-.3-.6,0-.2,0-.5.1-.7.1-.2.3-.4.5-.5.2-.1.5-.2.7-.2.2,0,.4,0,.7,0,.2,0,.4.1.6.2.2.1.3.3.4.4l-.6.3c0,0-.1-.2-.2-.2-.1,0-.2-.1-.4-.1-.1,0-.3,0-.4,0-.2,0-.3,0-.4.1s-.2.2-.3.3-.1.2,0,.3c0,.1,0,.3.2.3s.2.1.3.1c.1,0,.3,0,.5,0,.3,0,.5,0,.8.1.2,0,.4.2.6.3.2.2.3.3.3.6,0,.2,0,.5-.1.7-.1.2-.3.4-.5.5-.2.1-.5.2-.7.2Z"/>
  </g>
  <path class="uuid-eb62fc2b-b267-4b4b-90eb-f6805e6c7b91" d="M43,46.9v-29.2h11.7v5.6h-5.7v5.7h5.5v5.5h-5.5v6.7h6.1v5.7h-12.1Z"/>
  <path class="uuid-eb62fc2b-b267-4b4b-90eb-f6805e6c7b91" d="M57,46.9v-29.2h6l2.7,14v-14h5.6v29.2h-5.7l-2.9-14.6v14.6h-5.7Z"/>
  <path class="uuid-eb62fc2b-b267-4b4b-90eb-f6805e6c7b91" d="M80.7,47.1c-2.1,0-3.8-.7-5.1-2-1.3-1.3-1.9-3.2-1.9-5.5v-13.5c0-2.8.6-5,1.7-6.5,1.1-1.5,3-2.3,5.5-2.3s2.6.3,3.7.8,1.9,1.3,2.5,2.3c.6,1,.9,2.3.9,3.8v5h-5.8v-4.3c0-.9-.1-1.5-.3-1.8-.2-.3-.6-.5-1-.5s-.9.2-1.1.6c-.2.4-.3.9-.3,1.6v14.6c0,.8.1,1.4.4,1.7.2.3.6.5,1,.5s.8-.2,1.1-.6c.2-.4.3-.9.3-1.6v-5.3h5.9v5.5c0,2.6-.6,4.4-1.9,5.6-1.3,1.2-3.1,1.7-5.4,1.7Z"/>
  <path class="uuid-eb62fc2b-b267-4b4b-90eb-f6805e6c7b91" d="M90.1,46.9v-29.2h5.8v10.4h2.8v-10.4h5.8v29.2h-5.8v-13.2h-2.8v13.2h-5.8Z"/>
  <path class="uuid-eb62fc2b-b267-4b4b-90eb-f6805e6c7b91" d="M106.2,46.9l2.8-29.2h9.9l2.8,29.2h-5.5l-.4-4.7h-3.5l-.4,4.7h-5.7ZM112.7,37.5h2.7l-1.3-14.9h-.3l-1.1,14.9Z"/>
  <path class="uuid-eb62fc2b-b267-4b4b-90eb-f6805e6c7b91" d="M123.5,46.9v-29.2h6l2.7,14v-14h5.6v29.2h-5.7l-2.9-14.6v14.6h-5.7Z"/>
  <path class="uuid-eb62fc2b-b267-4b4b-90eb-f6805e6c7b91" d="M143,46.9v-23.6h-3.5v-5.6h12.8v5.6h-3.5v23.6h-5.8Z"/>
  <path class="uuid-eb62fc2b-b267-4b4b-90eb-f6805e6c7b91" d="M153.9,46.9v-29.2h11.7v5.6h-5.7v5.7h5.5v5.5h-5.5v6.7h6.1v5.7h-12.1ZM156,16.8v-3.7l7.9-3.6v5.8l-7.9,1.6Z"/>
  <path class="uuid-eb62fc2b-b267-4b4b-90eb-f6805e6c7b91" d="M167.9,46.9v-29.2h11.7v5.6h-5.7v5.7h5.5v5.5h-5.5v6.7h6.1v5.7h-12.1Z"/>
  <path class="uuid-eb62fc2b-b267-4b4b-90eb-f6805e6c7b91" d="M182.5,50.8l1.1-3.9h-2.1v-4.9h6.2v4.8l-1.7,4.1h-3.5Z"/>
  <path class="uuid-eb62fc2b-b267-4b4b-90eb-f6805e6c7b91" d="M124.4,87.9c-2.1,0-3.8-.7-5.1-2-1.3-1.3-1.9-3.2-1.9-5.5v-13.5c0-2.8.6-5,1.7-6.5,1.1-1.5,3-2.3,5.5-2.3s2.6.3,3.7.8,1.9,1.3,2.5,2.3c.6,1,.9,2.3.9,3.8v5h-5.8v-4.3c0-.9-.1-1.5-.3-1.8-.2-.3-.6-.5-1-.5s-.9.2-1.1.6c-.2.4-.3.9-.3,1.6v14.6c0,.8.1,1.4.4,1.7s.6.5,1,.5.8-.2,1.1-.6c.2-.4.3-.9.3-1.6v-5.3h5.9v5.5c0,2.6-.6,4.4-1.9,5.6-1.3,1.2-3.1,1.7-5.4,1.7Z"/>
  <path class="uuid-eb62fc2b-b267-4b4b-90eb-f6805e6c7b91" d="M133.8,87.7v-29.2h5.8v10.4h2.8v-10.4h5.8v29.2h-5.8v-13.2h-2.8v13.2h-5.8Z"/>
  <path class="uuid-eb62fc2b-b267-4b4b-90eb-f6805e6c7b91" d="M149.9,87.7l2.8-29.2h9.9l2.8,29.2h-5.5l-.4-4.7h-3.5l-.4,4.7h-5.7ZM156.4,78.3h2.7l-1.3-14.9h-.3l-1.1,14.9Z"/>
  <path class="uuid-eb62fc2b-b267-4b4b-90eb-f6805e6c7b91" d="M167.2,87.7v-29.2h6l2.7,14v-14h5.6v29.2h-5.7l-2.9-14.6v14.6h-5.7Z"/>
  <path class="uuid-eb62fc2b-b267-4b4b-90eb-f6805e6c7b91" d="M184.2,87.7v-29.2h6l2.7,14v-14h5.6v29.2h-5.7l-2.9-14.6v14.6h-5.7Z"/>
  <path class="uuid-eb62fc2b-b267-4b4b-90eb-f6805e6c7b91" d="M204.6,87.7v-9.6l-4.7-19.6h5.8l1.6,9.9,1.6-9.9h5.8l-4.6,19.6v9.6h-5.5Z"/>
</svg>