<?xml version="1.0" encoding="UTF-8"?>
<svg id="uuid-0a1cad83-e10f-419d-93a1-47ff301c9308" data-name="Layer 1" xmlns="http://www.w3.org/2000/svg" viewBox="0 0 220 220">
  <defs>
    <style>
      .uuid-766b3585-8a59-4175-8b78-16590b62d1b2 {
        fill: none;
      }

      .uuid-766b3585-8a59-4175-8b78-16590b62d1b2, .uuid-6f3ccc1d-102b-4d42-a6d5-17d8716539d7 {
        stroke-width: 0px;
      }

      .uuid-6f3ccc1d-102b-4d42-a6d5-17d8716539d7 {
        fill: #d62d26;
      }
    </style>
  </defs>
  <g>
    <circle class="uuid-766b3585-8a59-4175-8b78-16590b62d1b2" cx="110" cy="110" r="104.3"/>
    <path class="uuid-6f3ccc1d-102b-4d42-a6d5-17d8716539d7" d="M110,220c-14.8,0-29.3-2.9-42.8-8.6-13.1-5.5-24.9-13.5-35-23.6-10.1-10.1-18-21.9-23.6-35C2.9,139.3,0,124.8,0,110s2.9-29.3,8.6-42.8c5.5-13.1,13.5-24.9,23.6-35,10.1-10.1,21.9-18,35-23.6C80.7,2.9,95.2,0,110,0s29.3,2.9,42.8,8.6c13.1,5.5,24.9,13.5,35,23.6,10.1,10.1,18,21.9,23.6,35,5.7,13.6,8.6,28,8.6,42.8s-2.9,29.3-8.6,42.8c-5.5,13.1-13.5,24.9-23.6,35s-21.9,18-35,23.6c-13.6,5.7-28,8.6-42.8,8.6ZM110,11.4C55.6,11.4,11.4,55.6,11.4,110s44.3,98.6,98.6,98.6,98.6-44.3,98.6-98.6S164.4,11.4,110,11.4Z"/>
  </g>
  <path class="uuid-6f3ccc1d-102b-4d42-a6d5-17d8716539d7" d="M110,161.7c-13.6,0-26.4-3.8-36.1-10.8-10.3-7.4-15.9-17.4-15.9-28.2s2.5-5.7,5.7-5.7,5.7,2.5,5.7,5.7c0,7,4,13.8,11.2,19,7.8,5.6,18.3,8.7,29.5,8.7s21.7-3.1,29.5-8.7c7.2-5.2,11.2-11.9,11.2-19s2.5-5.7,5.7-5.7,5.7,2.5,5.7,5.7c0,10.8-5.7,20.8-15.9,28.2-9.7,7-22.5,10.8-36.1,10.8Z"/>
  <g>
    <path class="uuid-6f3ccc1d-102b-4d42-a6d5-17d8716539d7" d="M84.7,92c-3.1,0-5.7-2.5-5.7-5.7s-3.2-7.2-7.2-7.2-7.2,3.2-7.2,7.2-2.5,5.7-5.7,5.7-5.7-2.5-5.7-5.7c0-10.2,8.3-18.5,18.5-18.5s18.5,8.3,18.5,18.5-2.5,5.7-5.7,5.7Z"/>
    <path class="uuid-6f3ccc1d-102b-4d42-a6d5-17d8716539d7" d="M161,92c-3.1,0-5.7-2.5-5.7-5.7s-3.2-7.2-7.2-7.2-7.2,3.2-7.2,7.2-2.5,5.7-5.7,5.7-5.7-2.5-5.7-5.7c0-10.2,8.3-18.5,18.5-18.5s18.5,8.3,18.5,18.5-2.5,5.7-5.7,5.7Z"/>
  </g>
</svg>