<svg id="fce7fb99-d1b2-443b-a12f-bfd58a9c3d6b" data-name="Layer 1" xmlns="http://www.w3.org/2000/svg" xmlns:xlink="http://www.w3.org/1999/xlink" viewBox="0 0 242 239">
  <defs>
    <style>
      .aa813c65-6358-481f-b70d-ac9b9a42a00f {
        fill: none;
      }

      .ac6f91b9-e0bc-48ac-8597-6aa8ba958ef5 {
        clip-path: url(#e1d41270-53fc-4ed3-b2bc-d2c6f66d146d);
      }

      .ecb3d321-c0a5-4b20-9767-c91981a523cd {
        fill: #FAF9F6
;
        stroke: #000;
        stroke-miterlimit: 10;
      }

      .a418c871-f887-4931-99dc-f7a287974fb7 {
        fill: #e8c328;
      }
    </style>
    <clipPath id="e1d41270-53fc-4ed3-b2bc-d2c6f66d146d">
      <circle class="aa813c65-6358-481f-b70d-ac9b9a42a00f" cx="121" cy="119.5" r="119"/>
    </clipPath>
  </defs>
  <g class="ac6f91b9-e0bc-48ac-8597-6aa8ba958ef5">
    <rect class="ecb3d321-c0a5-4b20-9767-c91981a523cd" x="-27.5" y="-28.5" width="298" height="298"/>
    <g>
      <path d="M51.3,144.5c-3.2,0-5.5-1-7-2.9s-2.2-4.9-2.2-8.7v-6.6h5.7v6.2c0,1.3.1,2.4.2,3.5a5.7,5.7,0,0,0,.8,2.5,2.5,2.5,0,0,0,2.3,1,2.5,2.5,0,0,0,2.2-.9,5.1,5.1,0,0,0,.8-2.7c.1-1.1.2-2.4.2-3.9V94.5h5.9v37.3c0,4.2-.8,7.4-2.2,9.5A7.8,7.8,0,0,1,51.3,144.5Z"/>
      <polygon class="a418c871-f887-4931-99dc-f7a287974fb7" points="103.4 94.5 103.4 144.5 63.4 144.5 63.4 94.5 69.3 94.5 69.3 139.6 97.5 139.6 97.5 94.5 103.4 94.5"/>
      <path d="M72.2,137.3l7.6-42.8h7.1l8.2,42.8H89.6l-1.4-9.6H79.1l-1.3,9.6ZM79.8,123h7.6l-3.9-21.3h-.1Z"/>
      <path d="M109.1,144.5v-50h9a13.5,13.5,0,0,1,5.9,1.1,6.7,6.7,0,0,1,3,3.6,27.6,27.6,0,0,1,.9,6.6v1a24.8,24.8,0,0,1-.8,6.8,5.8,5.8,0,0,1-3,3.8,5.7,5.7,0,0,1,2.8,2.5,15.9,15.9,0,0,1,1.4,4.2,43.9,43.9,0,0,1,.4,5.3v1.1a33.3,33.3,0,0,1-1,8,7.5,7.5,0,0,1-3.1,4.5,9.8,9.8,0,0,1-5.8,1.5Zm5.8-29.1h3.4a5,5,0,0,0,1.9-.3,1.7,1.7,0,0,0,1.1-1.1,5.9,5.9,0,0,0,.6-2.4c.1-1.1.1-2.6.1-4.4v-1.4a14.7,14.7,0,0,0-.4-4.2,2.8,2.8,0,0,0-1.3-1.8,6.2,6.2,0,0,0-2.5-.5h-2.9Zm0,24.4h3.6a3.4,3.4,0,0,0,2.6-.9,4.6,4.6,0,0,0,1.3-2.9,27.8,27.8,0,0,0,.4-5.7v-1.7a21.2,21.2,0,0,0-.8-6.7,3,3,0,0,0-3.1-2h-4Z"/>
      <path d="M128.8,144.5l7.6-50h7.1l8.3,50h-5.6l-1.4-9.5h-9.1l-1.3,9.5Zm7.6-14.3h7.7l-4-26.4H140Z"/>
      <polygon points="154.2 144.5 154.2 94.5 158.6 94.5 170.2 128.5 169.6 114.1 169.6 94.5 174.8 94.5 174.8 144.5 170.5 144.5 159.3 110.2 159.6 122.8 159.6 144.5 154.2 144.5"/>
      <polygon points="185.9 144.5 185.9 123.5 177.3 94.5 183.1 94.5 188.9 114.8 189 114.8 194 94.5 199.9 94.5 191.8 123.5 191.8 144.5 185.9 144.5"/>
    </g>
  </g>
</svg>
