<?xml version="1.0" encoding="UTF-8"?>
<svg id="uuid-643bbebc-a7d0-484c-a369-09d881b6237b" data-name="Layer 1" xmlns="http://www.w3.org/2000/svg" viewBox="0 0 300 120">
  <defs>
    <style>
      .uuid-d0b79d5c-f2ef-4b61-81b3-94d68658eb24 {
        fill: #170a0a;
      }

      .uuid-d0b79d5c-f2ef-4b61-81b3-94d68658eb24, .uuid-6a71cbd8-8d63-4268-8202-79bcc3dd76d6 {
        stroke-width: 0px;
      }

      .uuid-6a71cbd8-8d63-4268-8202-79bcc3dd76d6 {
        fill: #d62d26;
      }
    </style>
  </defs>
  <path class="uuid-6a71cbd8-8d63-4268-8202-79bcc3dd76d6" d="M83.1,87.7v-29.2h5.6v29.2h-5.6Z"/>
  <path class="uuid-6a71cbd8-8d63-4268-8202-79bcc3dd76d6" d="M91.6,67l1.1-3.9h-2.1v-4.9h6.2v4.8l-1.7,4.1h-3.5Z"/>
  <path class="uuid-6a71cbd8-8d63-4268-8202-79bcc3dd76d6" d="M98.9,87.7v-29.2h8.9l2.5,17.8,2.4-17.8h9v29.2h-5.3v-21l-3.4,21h-5.2l-3.6-21v21h-5.3Z"/>
  <g>
    <path class="uuid-6a71cbd8-8d63-4268-8202-79bcc3dd76d6" d="M108.1,29.9c-.3.1-.6.2-.9.2-.3,0-.6,0-.9-.1-.3-.1-.5-.3-.7-.4-.2-.2-.4-.4-.5-.7s-.2-.6-.2-.9c0-.3,0-.6.1-.9.1-.3.3-.5.4-.7.2-.2.4-.4.7-.5s.6-.2.9-.2c.3,0,.6,0,.9.1.3.1.5.3.7.4.2.2.4.4.5.7s.2.6.2.9c0,.3,0,.6-.1.9-.1.3-.3.5-.4.7-.2.2-.4.4-.7.5ZM106.3,26c-1,.5-1.5,1.7-1,2.7s1.7,1.5,2.7,1,1.5-1.7,1-2.7-1.7-1.5-2.7-1Z"/>
    <path class="uuid-6a71cbd8-8d63-4268-8202-79bcc3dd76d6" d="M107.6,28.8c-.3.1-.5.2-.8.1-.3,0-.4-.2-.5-.4s0-.1,0-.2.1,0,.2,0c0,.1.2.2.4.3.2,0,.4,0,.6,0s.4-.2.5-.4c0-.2.1-.3,0-.5s0-.1,0-.2.1,0,.2,0c0,.2,0,.4,0,.7-.1.2-.3.4-.6.5Z"/>
    <g>
      <path class="uuid-6a71cbd8-8d63-4268-8202-79bcc3dd76d6" d="M106.5,27.7c0,0-.1,0-.2,0s-.1-.1-.2,0-.1.1,0,.2,0,.1,0,.2-.1,0-.2,0c0-.2,0-.4.2-.5s.4,0,.5.2,0,.1,0,.2Z"/>
      <path class="uuid-6a71cbd8-8d63-4268-8202-79bcc3dd76d6" d="M107.9,27c0,0-.1,0-.2,0s-.1-.1-.2,0-.1.1,0,.2,0,.1,0,.2-.1,0-.2,0c0-.2,0-.4.2-.5s.4,0,.5.2,0,.1,0,.2Z"/>
    </g>
  </g>
  <g>
    <path class="uuid-d0b79d5c-f2ef-4b61-81b3-94d68658eb24" d="M45.9,45.5l2.4-3.4,1.3.9c.2.1.3.3.4.5,0,.2.1.4,0,.6,0,.2,0,.4-.2.6-.1.2-.2.3-.4.4s-.3.1-.5.2-.3,0-.5,0l-.2,2-.6-.4.2-2-.5-.3-1,1.4-.5-.4ZM47.7,43.9l.7.5c0,0,.2.1.3.1s.2,0,.3,0c.1,0,.2-.1.3-.2,0-.1.1-.2.1-.3s0-.2,0-.3-.1-.2-.2-.3l-.7-.5-.8,1.1Z"/>
    <path class="uuid-d0b79d5c-f2ef-4b61-81b3-94d68658eb24" d="M50.1,48.2l1.6-3.9,2.4,1-.2.6-1.8-.8-.4.9,1.5.6-.2.6-1.5-.6-.5,1.2,1.8.8-.2.6-2.4-1Z"/>
    <path class="uuid-d0b79d5c-f2ef-4b61-81b3-94d68658eb24" d="M56.6,45.8h.7c0,0,1.1,4.4,1.1,4.4h-.7c0,0-.2-.9-.2-.9l-1.9-.2-.4.8h-.7c0,0,2-4.1,2-4.1ZM55.9,48.5l1.4.2-.5-2-.9,1.9Z"/>
    <path class="uuid-d0b79d5c-f2ef-4b61-81b3-94d68658eb24" d="M62.4,50c-.3,0-.6,0-.8,0-.3,0-.5-.2-.7-.4-.2-.2-.4-.4-.5-.6-.1-.3-.2-.5-.3-.8,0-.3,0-.6,0-.9s.2-.5.4-.7c.2-.2.4-.4.6-.5.2-.1.5-.2.8-.3.3,0,.7,0,1,.1.3.1.6.3.8.5l-.5.4c-.1-.1-.3-.3-.5-.3s-.4-.1-.6,0c-.2,0-.4,0-.5.2-.2.1-.3.2-.4.4s-.2.3-.3.5,0,.4,0,.6c0,.2,0,.4.2.6s.2.3.4.5.3.2.5.3c.2,0,.4,0,.6,0,.2,0,.4,0,.6-.2.2-.1.3-.3.4-.4l.6.2c-.2.3-.4.5-.6.7s-.6.3-.9.3Z"/>
    <path class="uuid-d0b79d5c-f2ef-4b61-81b3-94d68658eb24" d="M68,44.5v.6c.1,0-1.2.3-1.2.3l.8,3.5h-.6c0,.1-.8-3.3-.8-3.3l-1.3.3v-.6c-.1,0,3.1-.7,3.1-.7Z"/>
    <path class="uuid-d0b79d5c-f2ef-4b61-81b3-94d68658eb24" d="M70.7,48.2c0,0-.2,0-.2,0,0,0-.1-.1-.2-.2,0,0,0-.2,0-.2,0,0,.1-.1.2-.2s.2,0,.3,0c0,0,.1.1.2.2,0,0,0,.2,0,.3,0,0-.1.1-.2.2Z"/>
    <path class="uuid-d0b79d5c-f2ef-4b61-81b3-94d68658eb24" d="M75.3,46.9c-.1,0-.3,0-.4,0-.1,0-.3,0-.4-.1l.3-.6c0,0,.1,0,.2,0,0,0,.2,0,.2,0,.1,0,.2,0,.3-.2s.1-.2.2-.3c0-.1,0-.2,0-.3l-.8-2.9.6-.2.8,2.9c0,.2,0,.4,0,.7s-.2.4-.3.6c-.2.2-.3.3-.6.3Z"/>
    <path class="uuid-d0b79d5c-f2ef-4b61-81b3-94d68658eb24" d="M79.5,45.7c-.2,0-.4,0-.7,0s-.4,0-.6-.1c-.2,0-.3-.2-.5-.4l.5-.4c0,0,.1.1.3.2.1,0,.2,0,.4,0,.1,0,.3,0,.4,0,.2,0,.3-.1.4-.2.1,0,.2-.2.3-.3,0-.1,0-.2,0-.3,0-.1-.1-.2-.2-.3-.1,0-.2,0-.4,0-.1,0-.3,0-.5,0-.3,0-.6,0-.8,0-.2,0-.5,0-.6-.2-.2-.1-.3-.3-.4-.6,0-.2,0-.5,0-.7,0-.2.2-.4.4-.6.2-.2.4-.3.7-.4.2,0,.4,0,.7,0,.2,0,.4,0,.6.1.2,0,.3.2.5.4l-.5.4c0,0-.1-.1-.3-.2-.1,0-.2,0-.4,0-.1,0-.3,0-.4,0-.2,0-.3.1-.4.2-.1,0-.2.2-.3.3,0,.1,0,.2,0,.3,0,.1.1.2.2.3s.2,0,.4,0,.3,0,.5,0c.3,0,.5,0,.8,0,.3,0,.5.1.7.2.2.1.3.3.4.5,0,.2,0,.5,0,.7s-.2.4-.4.6c-.2.2-.4.3-.7.4Z"/>
    <path class="uuid-d0b79d5c-f2ef-4b61-81b3-94d68658eb24" d="M86.5,39.1l.2.6-1.3.4,1.1,3.4-.6.2-1.1-3.4-1.3.4-.2-.6,3.1-1Z"/>
    <path class="uuid-d0b79d5c-f2ef-4b61-81b3-94d68658eb24" d="M90.4,37.9l.7-.2-.7,2.6.6,1.8-.6.2-.6-1.8-2.1-1.8.7-.2,1.5,1.2.5-1.9Z"/>
    <path class="uuid-d0b79d5c-f2ef-4b61-81b3-94d68658eb24" d="M93.7,41.2l-1.3-4,1.4-.4c.2,0,.4,0,.6,0s.4.1.6.3c.2.1.3.3.4.5,0,.2,0,.4,0,.7s-.1.4-.3.6c-.1.2-.3.3-.5.3l-.8.3.5,1.6-.6.2ZM93.6,38.8l.7-.2c.1,0,.2,0,.3-.2,0,0,.1-.2.2-.3,0-.1,0-.2,0-.3,0-.1-.1-.2-.2-.3,0,0-.2-.1-.3-.2s-.2,0-.3,0l-.7.2.4,1.3Z"/>
    <path class="uuid-d0b79d5c-f2ef-4b61-81b3-94d68658eb24" d="M97.7,39.9l-1.3-4,2.5-.8.2.6-1.9.6.3,1,1.5-.5.2.6-1.5.5.4,1.2,1.9-.6.2.6-2.5.8Z"/>
    <path class="uuid-d0b79d5c-f2ef-4b61-81b3-94d68658eb24" d="M103.1,38.2c-.2,0-.4.1-.7.1-.2,0-.4,0-.6-.1-.2,0-.4-.2-.5-.3l.5-.4c0,0,.2.1.3.2.1,0,.2,0,.4,0,.1,0,.3,0,.4,0,.2,0,.3-.1.4-.2.1,0,.2-.2.3-.3,0-.1,0-.2,0-.3,0-.1-.1-.2-.2-.3s-.2,0-.4,0c-.1,0-.3,0-.5,0-.3,0-.6,0-.8,0-.3,0-.5,0-.6-.2s-.3-.3-.4-.5c0-.2,0-.5,0-.7,0-.2.2-.4.4-.6.2-.2.4-.3.7-.4.2,0,.4-.1.7-.1.2,0,.4,0,.6.1.2,0,.4.2.5.4l-.5.4c0,0-.2-.1-.3-.2-.1,0-.2,0-.4,0-.1,0-.3,0-.4,0-.2,0-.3.1-.4.2-.1,0-.2.2-.3.3,0,.1,0,.2,0,.3,0,.1.1.2.2.3s.2,0,.4,0,.3,0,.5,0c.3,0,.5,0,.8,0,.3,0,.5,0,.7.2.2.1.3.3.4.5,0,.2,0,.5,0,.7,0,.2-.2.4-.4.6-.2.2-.4.3-.7.4Z"/>
    <path class="uuid-d0b79d5c-f2ef-4b61-81b3-94d68658eb24" d="M107.9,36.6c-.3,0-.5.1-.8,0-.3,0-.5-.1-.8-.2-.2-.1-.5-.3-.6-.5-.2-.2-.3-.5-.4-.7s-.1-.6-.1-.9c0-.3,0-.6.2-.8s.3-.5.5-.7c.2-.2.4-.3.7-.4.3-.1.6-.1,1,0,.3,0,.6.2.9.4l-.4.5c-.2-.1-.4-.2-.6-.2-.2,0-.4,0-.6,0-.2,0-.4.2-.5.3-.1.1-.2.3-.3.5s-.1.4-.1.6,0,.4,0,.6c0,.2.2.4.3.5s.3.3.5.4.4.1.5.2c.2,0,.4,0,.6,0,.2,0,.4-.2.5-.3s.3-.3.3-.5h.6c0,.4-.3.7-.5.9-.2.2-.5.4-.8.5Z"/>
    <path class="uuid-d0b79d5c-f2ef-4b61-81b3-94d68658eb24" d="M110.9,35.5l-1.4-4,1.5-.5c.2,0,.4,0,.6,0,.2,0,.4.1.6.3.2.1.3.3.4.5,0,.2,0,.4,0,.5,0,.2,0,.3-.1.5,0,.2-.2.3-.3.4l1.5,1.3-.7.2-1.5-1.3-.5.2.6,1.6-.6.2ZM110.7,33.1l.8-.3c.1,0,.2-.1.3-.2,0,0,.1-.2.1-.3,0-.1,0-.2,0-.3,0-.1-.1-.2-.2-.3,0,0-.2-.1-.3-.1s-.2,0-.3,0l-.8.3.4,1.3Z"/>
    <path class="uuid-d0b79d5c-f2ef-4b61-81b3-94d68658eb24" d="M115.2,33.9l-1.4-3.9.6-.2,1.4,3.9-.6.2Z"/>
    <path class="uuid-d0b79d5c-f2ef-4b61-81b3-94d68658eb24" d="M117.3,33.1l-1.5-3.9,1.4-.5c.2,0,.4,0,.6,0,.2,0,.4.1.6.3.2.1.3.3.4.5,0,.2.1.4,0,.7,0,.2-.1.4-.3.6s-.3.3-.5.4l-.8.3.6,1.6-.6.2ZM117.1,30.7l.7-.3c.1,0,.2-.1.3-.2s.1-.2.1-.3,0-.2,0-.3c0-.1-.1-.2-.2-.3,0,0-.2-.1-.3-.1-.1,0-.2,0-.3,0l-.7.3.5,1.3Z"/>
    <path class="uuid-d0b79d5c-f2ef-4b61-81b3-94d68658eb24" d="M122.7,26.6l.2.6-1.3.5,1.3,3.3-.6.2-1.3-3.3-1.3.5-.2-.6,3.1-1.2Z"/>
    <path class="uuid-d0b79d5c-f2ef-4b61-81b3-94d68658eb24" d="M129.2,28.7c-.2,0-.4.1-.7.1-.2,0-.4,0-.6,0-.2,0-.4-.2-.5-.3l.5-.4c0,0,.2.1.3.2.1,0,.2,0,.4,0,.1,0,.3,0,.4,0,.1,0,.3-.1.4-.2s.2-.2.2-.3c0-.1,0-.2,0-.3,0-.1-.1-.2-.2-.2-.1,0-.2,0-.4,0-.1,0-.3,0-.4,0-.3,0-.6,0-.8,0-.3,0-.5,0-.7-.2-.2-.1-.3-.3-.4-.5,0-.2-.1-.5,0-.7,0-.2.2-.4.4-.6.2-.2.4-.3.7-.4.2,0,.4-.1.7-.1s.4,0,.6,0c.2,0,.4.2.5.3l-.5.4c0,0-.2-.1-.3-.2-.1,0-.2,0-.4,0-.1,0-.3,0-.4,0-.2,0-.3.1-.4.2-.1,0-.2.2-.2.3,0,.1,0,.2,0,.3,0,.1.1.2.2.3.1,0,.2,0,.4,0,.1,0,.3,0,.5,0,.3,0,.5,0,.8,0,.3,0,.5,0,.7.2.2.1.3.3.4.5,0,.2,0,.5,0,.7,0,.2-.2.4-.4.6-.2.2-.4.3-.7.4Z"/>
    <path class="uuid-d0b79d5c-f2ef-4b61-81b3-94d68658eb24" d="M131.9,23.1l.7-.3,2.9,3.4-.6.2-.6-.6-1.8.7v.8s-.6.2-.6.2v-4.5ZM132.6,25.8l1.3-.5-1.4-1.6v2.1Z"/>
    <path class="uuid-d0b79d5c-f2ef-4b61-81b3-94d68658eb24" d="M138.4,25.2c-.2,0-.4.1-.7.1s-.4,0-.6,0c-.2,0-.4-.2-.5-.3l.5-.4c0,0,.2.1.3.2s.2,0,.4,0c.1,0,.3,0,.4,0,.1,0,.3-.1.4-.2.1,0,.2-.2.2-.3,0-.1,0-.2,0-.3,0-.1-.1-.2-.2-.2-.1,0-.2,0-.4,0-.1,0-.3,0-.5,0-.3,0-.6,0-.8,0-.3,0-.5,0-.7-.2-.2-.1-.3-.3-.4-.5,0-.2,0-.5,0-.7,0-.2.2-.4.4-.6.2-.2.4-.3.7-.4.2,0,.4-.1.7-.1.2,0,.4,0,.6,0s.4.2.5.3l-.5.4c0,0-.2-.1-.3-.2-.1,0-.2,0-.4,0-.1,0-.3,0-.4,0-.2,0-.3.1-.4.2s-.2.2-.2.3,0,.2,0,.3c0,.1.1.2.2.3s.2,0,.4,0c.1,0,.3,0,.5,0,.3,0,.5,0,.8,0,.3,0,.5,0,.7.2.2.1.3.3.4.5,0,.2,0,.5,0,.7s-.2.4-.4.6c-.2.2-.4.3-.7.4Z"/>
    <path class="uuid-d0b79d5c-f2ef-4b61-81b3-94d68658eb24" d="M142.7,23.6c-.2,0-.4.1-.7.1-.2,0-.4,0-.6,0-.2,0-.4-.2-.5-.3l.5-.4c0,0,.2.1.3.2.1,0,.2,0,.4,0,.1,0,.3,0,.4,0,.1,0,.3-.1.4-.2.1,0,.2-.2.2-.3,0-.1,0-.2,0-.3,0-.1-.1-.2-.2-.2-.1,0-.2,0-.4,0-.1,0-.3,0-.4,0-.3,0-.6,0-.8,0-.3,0-.5,0-.7-.2-.2-.1-.3-.3-.4-.5,0-.2,0-.5,0-.7,0-.2.2-.4.4-.6.2-.2.4-.3.7-.4.2,0,.4-.1.7-.1.2,0,.4,0,.6,0s.4.2.5.3l-.5.4c0,0-.2-.1-.3-.2-.1,0-.2,0-.4,0-.1,0-.3,0-.4,0-.2,0-.3.1-.4.2-.1,0-.2.2-.2.3,0,.1,0,.2,0,.3,0,.1.1.2.2.3s.2,0,.4,0c.1,0,.3,0,.5,0,.3,0,.5,0,.8,0s.5,0,.7.2c.2.1.3.3.4.5,0,.2,0,.5,0,.7,0,.2-.2.4-.4.6s-.4.3-.7.4Z"/>
    <path class="uuid-d0b79d5c-f2ef-4b61-81b3-94d68658eb24" d="M147.8,21.7l-1.4-4,.6-.2,2.8,2.2-1-2.9.6-.2,1.4,4-.6.2-2.8-2.2,1,2.9-.6.2Z"/>
    <path class="uuid-d0b79d5c-f2ef-4b61-81b3-94d68658eb24" d="M154.2,19.5c-.3,0-.5.1-.8,0-.3,0-.5-.1-.8-.2s-.5-.3-.6-.5c-.2-.2-.3-.5-.4-.7s-.1-.6-.1-.9c0-.3,0-.6.2-.8.1-.3.3-.5.5-.7s.4-.3.7-.4c.3,0,.5-.1.8,0,.3,0,.5.1.8.2s.5.3.6.5c.2.2.3.5.4.7s.1.6.1.9c0,.3,0,.6-.2.8-.1.3-.3.5-.5.7s-.4.3-.7.4ZM154,18.9c.2,0,.4-.2.5-.3.1-.1.2-.3.3-.5,0-.2.1-.4.1-.6s0-.4,0-.6c0-.2-.2-.4-.3-.5-.1-.2-.3-.3-.5-.4s-.4-.1-.5-.2-.4,0-.6,0-.4.2-.5.3-.2.3-.3.5c0,.2-.1.4-.1.6s0,.4,0,.6c0,.2.2.4.3.5.1.2.3.3.5.4s.4.1.5.2.4,0,.6,0Z"/>
    <path class="uuid-d0b79d5c-f2ef-4b61-81b3-94d68658eb24" d="M157.5,18.3l-1.3-4,1.3-.4c.3,0,.6-.1.8,0,.3,0,.5.1.8.2.2.1.5.3.6.5.2.2.3.5.4.7,0,.3.1.6,0,.8,0,.3-.1.5-.2.8-.1.2-.3.5-.5.6-.2.2-.5.3-.7.4l-1.3.4ZM157.9,17.5l.7-.2c.2,0,.4-.2.5-.3.1-.1.3-.3.4-.4,0-.2.1-.4.2-.5,0-.2,0-.4,0-.6,0-.2-.2-.4-.3-.5s-.3-.3-.4-.4c-.2,0-.4-.1-.5-.2-.2,0-.4,0-.6,0l-.7.2.9,2.8Z"/>
    <path class="uuid-d0b79d5c-f2ef-4b61-81b3-94d68658eb24" d="M162.2,16.8l-1.2-4,2.5-.8.2.6-1.9.6.3,1,1.5-.5.2.6-1.5.5.4,1.3,1.9-.6.2.6-2.5.8Z"/>
    <path class="uuid-d0b79d5c-f2ef-4b61-81b3-94d68658eb24" d="M166.4,15.7c0,0-.2,0-.3,0s-.1-.1-.2-.2c0,0,0-.2,0-.2s.1-.1.2-.2c0,0,.2,0,.3,0s.1.1.2.2c0,0,0,.2,0,.3s-.1.1-.2.2Z"/>
    <path class="uuid-d0b79d5c-f2ef-4b61-81b3-94d68658eb24" d="M168.8,15c-.1,0-.3,0-.4,0-.1,0-.3,0-.4-.1l.3-.6c0,0,.1,0,.2,0s.2,0,.2,0c.1,0,.2,0,.3-.2,0,0,.1-.2.2-.3,0-.1,0-.2,0-.3l-.8-2.9.6-.2.8,2.9c0,.2,0,.4,0,.7,0,.2-.2.4-.3.6-.2.2-.3.3-.6.3Z"/>
    <path class="uuid-d0b79d5c-f2ef-4b61-81b3-94d68658eb24" d="M173.1,13.9c-.2,0-.4,0-.7,0-.2,0-.4,0-.6-.2-.2,0-.3-.2-.4-.4l.5-.4c0,0,.1.2.3.2.1,0,.2,0,.4,0,.1,0,.3,0,.4,0,.2,0,.3,0,.4-.2.1,0,.2-.2.3-.3,0-.1,0-.2,0-.3,0-.1-.1-.2-.2-.3s-.2,0-.4-.1-.3,0-.5,0c-.3,0-.6,0-.8,0-.2,0-.5-.1-.6-.2-.2-.1-.3-.3-.4-.6s0-.5,0-.7.2-.4.4-.6.4-.3.7-.3c.2,0,.4,0,.7,0s.4,0,.6.2c.2,0,.3.2.5.4l-.5.3c0,0-.1-.2-.3-.2-.1,0-.2,0-.4,0-.1,0-.3,0-.4,0-.2,0-.3,0-.4.2-.1,0-.2.2-.3.3,0,.1,0,.2,0,.3,0,.1.1.2.2.3s.2,0,.4,0c.1,0,.3,0,.5,0,.3,0,.5,0,.8,0,.3,0,.5.1.6.3.2.1.3.3.4.6,0,.2,0,.5,0,.7,0,.2-.2.4-.4.6s-.4.3-.7.3Z"/>
    <path class="uuid-d0b79d5c-f2ef-4b61-81b3-94d68658eb24" d="M178.3,12.6l-.9-4.1,1.4-.3c.2,0,.4,0,.6,0s.4.2.5.4.2.4.3.6c0,.2,0,.4,0,.7,0,.2-.2.4-.3.5-.2.1-.3.2-.6.3l-.8.2.3,1.7h-.6ZM178.5,10.2l.7-.2c.1,0,.2,0,.3-.2,0,0,.1-.2.2-.3,0-.1,0-.2,0-.3s0-.2-.2-.3c0,0-.2-.1-.3-.2-.1,0-.2,0-.3,0l-.7.2.3,1.3Z"/>
    <path class="uuid-d0b79d5c-f2ef-4b61-81b3-94d68658eb24" d="M184.3,11.5c-.3,0-.6,0-.8,0s-.5-.2-.7-.3c-.2-.2-.4-.4-.6-.6-.2-.2-.3-.5-.3-.8,0-.3,0-.6,0-.9,0-.3.2-.5.3-.8.2-.2.3-.4.6-.6s.5-.3.8-.3c.3,0,.6,0,.8,0s.5.2.7.3c.2.2.4.4.6.6s.3.5.3.8c0,.3,0,.6,0,.9,0,.3-.2.5-.3.8-.2.2-.3.4-.6.6-.2.2-.5.3-.8.3ZM184.2,10.9c.2,0,.4-.1.5-.2.2-.1.3-.2.4-.4.1-.2.2-.3.2-.5s0-.4,0-.6c0-.2-.1-.4-.2-.6s-.2-.3-.4-.4-.3-.2-.5-.3c-.2,0-.4,0-.6,0-.2,0-.4.1-.5.2-.2.1-.3.2-.4.4-.1.2-.2.3-.2.5s0,.4,0,.6c0,.2.1.4.2.6.1.2.2.3.4.4s.3.2.5.3.4,0,.6,0Z"/>
    <path class="uuid-d0b79d5c-f2ef-4b61-81b3-94d68658eb24" d="M189.3,10.7c-.2,0-.5,0-.7,0-.2,0-.4-.1-.6-.2s-.3-.3-.4-.4l.5-.3c0,0,.1.2.2.2.1,0,.2.1.4.1.1,0,.3,0,.4,0,.2,0,.3,0,.4-.1.1,0,.2-.2.3-.3,0-.1.1-.2,0-.3,0-.1,0-.2-.2-.3-.1,0-.2-.1-.4-.1-.1,0-.3,0-.5,0-.3,0-.6,0-.8-.1-.2,0-.4-.2-.6-.3s-.3-.4-.3-.6c0-.2,0-.5.1-.7.1-.2.3-.4.5-.5.2-.1.5-.2.7-.3.2,0,.4,0,.7,0,.2,0,.4.1.6.2s.3.3.4.4l-.6.3c0,0-.1-.2-.2-.2-.1,0-.2-.1-.4-.1s-.3,0-.4,0c-.2,0-.3,0-.4.1-.1,0-.2.2-.3.3,0,.1-.1.2,0,.3,0,.1,0,.3.2.3,0,0,.2.1.4.1.1,0,.3,0,.5,0,.3,0,.5,0,.8.1s.5.2.6.3c.2.1.3.3.3.6,0,.2,0,.5-.1.7-.1.2-.3.4-.5.5s-.5.2-.7.3Z"/>
    <path class="uuid-d0b79d5c-f2ef-4b61-81b3-94d68658eb24" d="M195.1,5.7v.6c0,0-1.3.1-1.3.1l.4,3.6h-.6c0,0-.4-3.5-.4-3.5h-1.3c0,.1,0-.5,0-.5l3.3-.3Z"/>
    <path class="uuid-d0b79d5c-f2ef-4b61-81b3-94d68658eb24" d="M198.9,9.7c-.3,0-.6,0-.8-.1-.3,0-.5-.2-.7-.4-.2-.2-.4-.4-.5-.7-.1-.3-.2-.5-.2-.8,0-.3,0-.6.1-.9,0-.3.2-.5.4-.7.2-.2.4-.4.6-.5.2-.1.5-.2.8-.2.3,0,.6,0,.9.2s.6.3.8.6l-.5.3c-.2-.2-.3-.3-.5-.4-.2,0-.4-.1-.6-.1-.2,0-.4,0-.5.2s-.3.2-.4.4c-.1.1-.2.3-.3.5s0,.4,0,.6c0,.2,0,.4.1.6s.2.3.3.5.3.2.5.3c.2,0,.4,0,.6,0,.1,0,.3,0,.4,0,.1,0,.3-.1.4-.2s.2-.2.3-.3c0-.1.1-.3.2-.4h-.9c0,0,0-.5,0-.5h1.6c0,.2,0,.5-.1.8s-.2.5-.4.7-.4.4-.6.5c-.2.1-.5.2-.8.2Z"/>
    <path class="uuid-d0b79d5c-f2ef-4b61-81b3-94d68658eb24" d="M202.4,9.5v-4.2c0,0,1.5,0,1.5,0,.2,0,.4,0,.6.2.2.1.3.3.4.4s.2.4.2.6c0,.2,0,.4,0,.5,0,.2-.2.3-.3.4-.1.1-.3.2-.4.3l1.1,1.7h-.7s-1-1.7-1-1.7h-.6s0,1.7,0,1.7h-.6ZM203,7.2h.9c.1,0,.2,0,.3-.1,0,0,.2-.1.2-.2,0-.1,0-.2,0-.3s0-.2,0-.3-.1-.2-.2-.2c-.1,0-.2,0-.3,0h-.9s0,1.4,0,1.4Z"/>
    <path class="uuid-d0b79d5c-f2ef-4b61-81b3-94d68658eb24" d="M206.8,9.4v-4.2s2.6,0,2.6,0v.6s-2,0-2,0v1s1.6,0,1.6,0v.6s-1.6,0-1.6,0v1.3s2,0,2,0v.6s-2.6,0-2.6,0Z"/>
    <path class="uuid-d0b79d5c-f2ef-4b61-81b3-94d68658eb24" d="M212.4,9.6c-.2,0-.4,0-.7-.1-.2,0-.4-.2-.5-.3s-.3-.3-.3-.5l.6-.2c0,0,0,.2.2.3,0,0,.2.1.3.2.1,0,.3,0,.4,0,.2,0,.3,0,.5,0s.3-.1.4-.2c0,0,.1-.2.1-.3,0-.1,0-.2-.1-.3s-.2-.2-.3-.2-.3,0-.4-.1c-.3,0-.6-.1-.8-.2-.2-.1-.4-.2-.5-.4s-.2-.4-.2-.7c0-.2,0-.5.2-.6s.3-.3.6-.4c.2,0,.5-.1.8-.1.2,0,.4,0,.6.1s.4.2.5.3c.2.1.3.3.3.5l-.6.2c0,0,0-.2-.2-.3,0,0-.2-.1-.3-.2-.1,0-.3,0-.4,0-.2,0-.3,0-.5,0-.1,0-.3.1-.3.2,0,0-.1.2-.1.3,0,.1,0,.3.1.3,0,0,.2.1.3.2.1,0,.3,0,.5.1.3,0,.5.1.8.3.2.1.4.3.5.4s.2.4.2.6c0,.2,0,.5-.2.6-.2.2-.3.3-.6.4-.2,0-.5.1-.8.1Z"/>
    <path class="uuid-d0b79d5c-f2ef-4b61-81b3-94d68658eb24" d="M217.4,10c-.3,0-.6-.1-.8-.3-.2-.1-.4-.3-.6-.5-.2-.2-.3-.5-.4-.7s-.1-.6,0-.9c0-.3.1-.6.3-.8.1-.3.3-.5.5-.6s.4-.3.7-.4c.3,0,.5-.1.8,0,.3,0,.6.1.9.3s.5.4.7.7l-.6.2c-.1-.2-.3-.3-.5-.5-.2-.1-.4-.2-.6-.2-.2,0-.4,0-.6,0-.2,0-.3.2-.5.3-.1.1-.3.3-.4.5,0,.2-.2.4-.2.6,0,.2,0,.4,0,.6,0,.2.1.4.3.5.1.2.3.3.4.4.2,0,.3.2.5.2.1,0,.3,0,.4,0,.1,0,.3,0,.4-.2.1,0,.2-.2.3-.3s.2-.2.3-.4h-.9c0,0,0-.6,0-.6l1.6.2c0,.3-.1.6-.2.8-.1.3-.3.5-.5.6-.2.2-.4.3-.7.4-.3,0-.5.1-.8,0Z"/>
    <path class="uuid-d0b79d5c-f2ef-4b61-81b3-94d68658eb24" d="M220.9,10.4l.7-4.1h.6c0,.1-.6,3.6-.6,3.6l1.8.3v.6c-.1,0-2.5-.4-2.5-.4Z"/>
    <path class="uuid-d0b79d5c-f2ef-4b61-81b3-94d68658eb24" d="M227,11.6l1.1-4,2.5.7-.2.6-1.9-.5-.3,1,1.5.4-.2.6-1.5-.4-.4,1.3,1.9.5-.2.6-2.5-.7Z"/>
    <path class="uuid-d0b79d5c-f2ef-4b61-81b3-94d68658eb24" d="M230.7,12.7l2.2-1.4-.7-2.5.7.3.5,1.9,1.6-1,.7.3-2.2,1.4.7,2.5-.7-.3-.5-1.9-1.6,1-.7-.3Z"/>
    <path class="uuid-d0b79d5c-f2ef-4b61-81b3-94d68658eb24" d="M235.5,14.7l2-3.7,1.3.7c.2.1.4.3.5.4.1.2.2.4.2.6,0,.2,0,.4-.2.6-.1.2-.3.4-.4.5-.2.1-.4.2-.6.2-.2,0-.4,0-.6-.1l-.7-.4-.8,1.5-.6-.3ZM237.2,12.9l.7.4c.1,0,.2,0,.3,0,.1,0,.2,0,.3-.1,0,0,.2-.1.2-.3s0-.2,0-.3c0-.1,0-.2,0-.3s-.1-.2-.2-.2l-.7-.4-.6,1.2Z"/>
    <path class="uuid-d0b79d5c-f2ef-4b61-81b3-94d68658eb24" d="M239,16.7l2.4-3.4,1.3.9c.2.1.3.3.4.5s.1.4,0,.6c0,.2,0,.4-.2.6-.1.2-.2.3-.4.4-.2,0-.3.1-.5.2s-.3,0-.5,0l-.2,2-.6-.4.2-2-.5-.3-1,1.4-.5-.4ZM240.9,15.1l.7.5c0,0,.2.1.3.1.1,0,.2,0,.3,0,.1,0,.2-.1.3-.2,0-.1.1-.2.1-.3,0-.1,0-.2,0-.3s-.1-.2-.2-.3l-.7-.5-.8,1.1Z"/>
    <path class="uuid-d0b79d5c-f2ef-4b61-81b3-94d68658eb24" d="M242.5,19.2l2.9-3.1,1.9,1.8-.4.5-1.5-1.4-.7.7,1.2,1.1-.4.5-1.2-1.1-.9,1,1.5,1.4-.4.5-1.9-1.8Z"/>
    <path class="uuid-d0b79d5c-f2ef-4b61-81b3-94d68658eb24" d="M246.2,23.2c-.1-.2-.2-.4-.3-.6,0-.2,0-.4,0-.6,0-.2,0-.4.2-.6l.5.3c0,0,0,.2,0,.3,0,.1,0,.3,0,.4s.1.3.2.4c0,.1.2.2.3.3s.3.1.4.1.2,0,.3,0c.1,0,.2-.2.2-.3,0-.1,0-.3,0-.4,0-.1-.1-.3-.2-.4-.1-.3-.2-.5-.3-.8s0-.5,0-.7c0-.2.2-.4.4-.6.2-.2.4-.2.7-.2s.5,0,.7.2c.2.1.4.3.6.5.1.2.2.4.3.6s.1.4,0,.6,0,.4-.2.6l-.5-.3c0,0,0-.2,0-.3,0-.1,0-.2,0-.4s-.1-.3-.2-.4c0-.1-.2-.2-.3-.3-.1,0-.3-.1-.4-.1-.1,0-.2,0-.3,0-.1,0-.2.2-.2.3s0,.2,0,.4c0,.1.1.3.2.4.1.2.2.5.3.7s0,.5,0,.7c0,.2-.2.4-.4.5-.2.1-.4.2-.6.2-.2,0-.5,0-.7-.2s-.4-.3-.6-.5Z"/>
    <path class="uuid-d0b79d5c-f2ef-4b61-81b3-94d68658eb24" d="M248.5,27c0-.2-.2-.4-.2-.6,0-.2,0-.4,0-.6,0-.2.2-.4.3-.5l.4.4c0,0-.1.2-.2.3s0,.2,0,.4c0,.1,0,.3.1.4,0,.1.2.3.3.4.1.1.2.2.3.2.1,0,.2,0,.3,0,.1,0,.2-.1.2-.3,0-.1,0-.2,0-.4s0-.3,0-.4c0-.3-.1-.6-.1-.8,0-.3,0-.5.1-.7s.3-.3.5-.5c.2-.1.5-.1.7,0,.2,0,.4.2.6.3.2.2.3.4.5.6,0,.2.2.4.2.6s0,.4,0,.6-.2.4-.3.5l-.4-.5c0,0,.1-.2.2-.3,0-.1,0-.2,0-.4s0-.3-.1-.4c0-.1-.1-.3-.3-.4s-.2-.2-.3-.2-.2,0-.3,0c-.1,0-.2.1-.3.3,0,.1,0,.2,0,.4,0,.1,0,.3.1.5,0,.3.1.5.1.8,0,.3,0,.5-.1.7s-.3.4-.5.5c-.2.1-.5.1-.7,0s-.4-.2-.6-.3c-.2-.2-.3-.4-.5-.6Z"/>
    <path class="uuid-d0b79d5c-f2ef-4b61-81b3-94d68658eb24" d="M249.9,31.8h4.2s0,1.6,0,1.6c0,.2,0,.4-.2.6-.1.2-.3.3-.5.4s-.4.2-.6.2c-.2,0-.4,0-.5-.1s-.3-.2-.4-.3c-.1-.1-.2-.3-.2-.5l-1.8,1v-.7s1.7-1,1.7-1v-.6s-1.7,0-1.7,0v-.6ZM252.3,32.4v.9c0,.1,0,.2,0,.3s.1.2.2.2c0,0,.2,0,.3,0s.2,0,.3,0c.1,0,.2-.1.2-.2s0-.2,0-.3v-.9s-1.3,0-1.3,0Z"/>
    <path class="uuid-d0b79d5c-f2ef-4b61-81b3-94d68658eb24" d="M249.7,35.9l4,1.3-.8,2.5-.6-.2.6-1.9-1-.3-.5,1.5-.6-.2.5-1.5-1.2-.4-.6,1.9-.6-.2.8-2.5Z"/>
    <path class="uuid-d0b79d5c-f2ef-4b61-81b3-94d68658eb24" d="M250.9,43.1l-.4.6-4.3-1.3.4-.5.8.2,1.1-1.5-.5-.7.4-.5,2.5,3.7ZM248.8,41.2l-.8,1.1,2,.6-1.2-1.7Z"/>
    <path class="uuid-d0b79d5c-f2ef-4b61-81b3-94d68658eb24" d="M243.7,44.5c.2-.2.5-.3.7-.4.3,0,.5,0,.8,0,.3,0,.5.1.8.3s.5.3.7.6.3.5.4.8.1.5,0,.8c0,.3,0,.5-.2.8s-.3.5-.5.6c-.3.2-.6.3-.9.4-.3,0-.6,0-.9,0l.2-.6c.2,0,.4,0,.6,0,.2,0,.4-.1.6-.3.2-.1.3-.3.4-.4s.1-.4.1-.5c0-.2,0-.4,0-.6,0-.2-.2-.4-.3-.5-.1-.2-.3-.3-.5-.4-.2,0-.4-.2-.6-.2-.2,0-.4,0-.6,0-.2,0-.4.1-.5.3-.2.1-.3.3-.4.5,0,.2-.1.4-.1.6h-.6c0-.2,0-.5.2-.8.1-.3.3-.6.6-.8Z"/>
    <path class="uuid-d0b79d5c-f2ef-4b61-81b3-94d68658eb24" d="M240.4,51.5l-.3-.5,1.2-.6-1.7-3.2.5-.3,1.7,3.1,1.2-.6.3.5-2.9,1.6Z"/>
    <path class="uuid-d0b79d5c-f2ef-4b61-81b3-94d68658eb24" d="M236.9,48.3c0,0,.2,0,.3,0s.1,0,.2.2c0,0,0,.2,0,.2,0,0,0,.1-.2.2,0,0-.2,0-.3,0,0,0-.1,0-.2-.2,0,0,0-.2,0-.3,0,0,0-.1.2-.2Z"/>
    <path class="uuid-d0b79d5c-f2ef-4b61-81b3-94d68658eb24" d="M232.4,50c.1,0,.3,0,.4,0,.1,0,.3,0,.4,0l-.2.6c0,0-.1,0-.2,0,0,0-.2,0-.2,0-.1,0-.2,0-.3.2,0,0-.1.2-.2.3,0,.1,0,.2,0,.3l.9,2.8-.6.2-.9-2.8c0-.2,0-.4,0-.7,0-.2.2-.4.3-.6.1-.2.3-.3.6-.4Z"/>
    <path class="uuid-d0b79d5c-f2ef-4b61-81b3-94d68658eb24" d="M228.3,51.1c.2,0,.4,0,.7,0,.2,0,.4,0,.6.2s.3.2.4.4l-.5.4c0,0-.1-.2-.3-.2s-.2,0-.4,0c-.1,0-.3,0-.4,0-.2,0-.3,0-.4.2-.1,0-.2.2-.3.3,0,.1,0,.2,0,.3,0,.1,0,.2.2.3.1,0,.2,0,.4.1.1,0,.3,0,.5,0,.3,0,.6,0,.8,0s.5.1.6.2c.2.1.3.3.4.6,0,.2,0,.5,0,.7,0,.2-.2.4-.4.6-.2.2-.4.3-.7.3-.2,0-.4,0-.7,0-.2,0-.4,0-.6-.2s-.3-.2-.5-.4l.5-.3c0,0,.1.2.3.2.1,0,.2,0,.4,0,.1,0,.3,0,.4,0,.2,0,.3,0,.4-.2.1,0,.2-.2.3-.3,0-.1,0-.2,0-.3,0-.1-.1-.2-.2-.3,0,0-.2,0-.4,0-.1,0-.3,0-.5,0-.3,0-.5,0-.8,0-.3,0-.5-.1-.6-.3-.2-.1-.3-.3-.4-.6,0-.2,0-.5,0-.7s.2-.4.4-.6c.2-.2.4-.3.7-.3Z"/>
    <path class="uuid-d0b79d5c-f2ef-4b61-81b3-94d68658eb24" d="M220.6,57v-.6c-.1,0,1.2-.2,1.2-.2l-.6-3.5h.6c0-.1.6,3.4.6,3.4l1.3-.2v.6c.1,0-3.1.6-3.1.6Z"/>
    <path class="uuid-d0b79d5c-f2ef-4b61-81b3-94d68658eb24" d="M216.5,57.6h-.7c0,0,1.1-2.4,1.1-2.4l-.3-1.9h.6c0,0,.3,1.8.3,1.8l1.7,2.1h-.7c0,0-1.2-1.4-1.2-1.4l-.8,1.7Z"/>
    <path class="uuid-d0b79d5c-f2ef-4b61-81b3-94d68658eb24" d="M213.7,53.7l.5,4.2-1.4.2c-.2,0-.4,0-.6,0-.2,0-.4-.2-.5-.4-.1-.2-.2-.4-.2-.6,0-.2,0-.4,0-.6,0-.2.2-.4.4-.5.2-.1.4-.2.6-.2h.8c0,0-.2-1.8-.2-1.8h.6ZM213.4,56.1h-.8c-.1,0-.2.1-.3.2,0,0-.2.2-.2.3,0,.1,0,.2,0,.3,0,.1,0,.2.1.3,0,0,.2.2.3.2.1,0,.2,0,.3,0h.8c0,0-.2-1.4-.2-1.4Z"/>
    <path class="uuid-d0b79d5c-f2ef-4b61-81b3-94d68658eb24" d="M209.6,54.2l.4,4.2-2.6.3v-.6c0,0,1.9-.2,1.9-.2v-1c-.1,0-1.7.2-1.7.2v-.6c0,0,1.5-.2,1.5-.2v-1.3c-.1,0-2.1.2-2.1.2v-.6c0,0,2.5-.3,2.5-.3Z"/>
    <path class="uuid-d0b79d5c-f2ef-4b61-81b3-94d68658eb24" d="M204,54.6c.2,0,.5,0,.7,0s.4.1.6.3c.2.1.3.3.4.4l-.6.3c0,0-.1-.2-.2-.2-.1,0-.2-.1-.4-.1-.1,0-.3,0-.4,0-.2,0-.3,0-.4.1s-.2.1-.3.2c0,0-.1.2,0,.3,0,.1,0,.2.2.3,0,0,.2.1.4.2.1,0,.3,0,.4,0,.3,0,.6,0,.8.1.2,0,.4.2.6.3.2.2.2.4.3.6,0,.2,0,.5-.2.7-.1.2-.3.4-.5.5-.2.1-.5.2-.7.2-.2,0-.4,0-.7,0-.2,0-.4-.1-.6-.3-.2-.1-.3-.3-.4-.5l.6-.3c0,0,.1.2.2.2s.2.1.4.1c.1,0,.3,0,.4,0,.2,0,.3,0,.4-.1.1,0,.2-.1.3-.3,0,0,.1-.2.1-.3,0-.1,0-.3-.2-.3,0,0-.2-.1-.3-.1-.1,0-.3,0-.5,0-.3,0-.5,0-.8-.1-.2,0-.4-.2-.6-.3-.2-.2-.3-.4-.3-.6,0-.2,0-.5.2-.7.1-.2.3-.4.5-.5.2-.1.5-.2.7-.2Z"/>
    <path class="uuid-d0b79d5c-f2ef-4b61-81b3-94d68658eb24" d="M199,55.2c.3,0,.6,0,.8,0,.3,0,.5.2.7.4s.4.4.5.6.2.5.3.8c0,.3,0,.6,0,.9,0,.3-.2.5-.4.7-.2.2-.4.4-.6.5-.2.1-.5.2-.8.3-.3,0-.7,0-1-.1-.3-.1-.6-.3-.8-.5l.5-.4c.1.1.3.3.5.3.2,0,.4.1.6,0,.2,0,.4,0,.5-.2.2-.1.3-.2.4-.4.1-.2.2-.3.3-.5,0-.2,0-.4,0-.6,0-.2,0-.4-.2-.6s-.2-.3-.4-.5c-.1-.1-.3-.2-.5-.3-.2,0-.4,0-.6,0-.2,0-.4,0-.6.2-.2.1-.3.3-.4.4l-.6-.2c.2-.3.4-.5.6-.7.3-.2.6-.3.9-.3Z"/>
    <path class="uuid-d0b79d5c-f2ef-4b61-81b3-94d68658eb24" d="M195.8,55.6l.5,4.2-1.5.2c-.2,0-.4,0-.6,0s-.4-.2-.5-.4c-.1-.2-.2-.4-.2-.6,0-.2,0-.4,0-.5,0-.2.1-.3.3-.4.1-.1.3-.2.4-.3l-1.2-1.6h.7c0,0,1.2,1.5,1.2,1.5h.6c0,0-.2-1.7-.2-1.7h.6ZM195.4,58h-.9c-.1.1-.2.1-.3.2,0,0-.2.2-.2.3,0,.1,0,.2,0,.3,0,.1,0,.2.1.3,0,0,.2.2.3.2.1,0,.2,0,.3,0h.8c0,0-.1-1.4-.1-1.4Z"/>
    <path class="uuid-d0b79d5c-f2ef-4b61-81b3-94d68658eb24" d="M191.3,56.2l.5,4.2h-.6c0,0-.5-4.1-.5-4.1h.6Z"/>
    <path class="uuid-d0b79d5c-f2ef-4b61-81b3-94d68658eb24" d="M189,56.4l.5,4.2-1.4.2c-.2,0-.4,0-.6,0-.2,0-.4-.2-.5-.4-.1-.2-.2-.4-.2-.6,0-.2,0-.4,0-.7,0-.2.2-.4.4-.5s.4-.2.6-.2h.8c0-.1-.2-1.8-.2-1.8h.6ZM188.7,58.8h-.8c-.1.1-.2.2-.3.2,0,0-.2.2-.2.3s0,.2,0,.3c0,.1,0,.2.1.3,0,0,.2.2.3.2s.2,0,.3,0h.8c0,0-.2-1.4-.2-1.4Z"/>
    <path class="uuid-d0b79d5c-f2ef-4b61-81b3-94d68658eb24" d="M182.3,61.6v-.6c0,0,1.2-.2,1.2-.2l-.5-3.5h.6c0,0,.5,3.5.5,3.5l1.3-.2v.6c0,0-3.2.5-3.2.5Z"/>
    <path class="uuid-d0b79d5c-f2ef-4b61-81b3-94d68658eb24" d="M176.4,58.1c.2,0,.5,0,.7,0s.4.1.6.2c.2.1.3.3.4.4l-.5.3c0,0-.1-.2-.2-.2s-.2-.1-.4-.1c-.1,0-.3,0-.4,0-.2,0-.3,0-.4.1s-.2.2-.3.3c0,.1,0,.2,0,.3,0,.1,0,.2.2.3.1,0,.2.1.4.1s.3,0,.5,0c.3,0,.6,0,.8,0s.4.2.6.3c.2.1.3.3.3.6,0,.2,0,.5-.1.7-.1.2-.3.4-.5.5-.2.1-.5.2-.7.3-.2,0-.4,0-.7,0-.2,0-.4-.1-.6-.2s-.3-.3-.4-.4l.6-.3c0,0,.1.2.2.2.1,0,.2,0,.4.1s.3,0,.4,0c.2,0,.3,0,.4-.1s.2-.2.3-.3c0-.1.1-.2,0-.3,0-.1,0-.3-.2-.3,0,0-.2-.1-.4-.1-.1,0-.3,0-.5,0-.3,0-.5,0-.8-.1-.2,0-.5-.2-.6-.3s-.3-.3-.3-.6c0-.2,0-.5.1-.7s.3-.4.5-.5c.2-.1.5-.2.7-.3Z"/>
    <path class="uuid-d0b79d5c-f2ef-4b61-81b3-94d68658eb24" d="M172.6,63.1h-.7c0,.1-2.2-3.8-2.2-3.8h.7c0-.1.4.6.4.6l1.9-.3.2-.8h.7c0-.1-.9,4.3-.9,4.3ZM172.5,60.3l-1.4.2,1,1.8.4-2Z"/>
    <path class="uuid-d0b79d5c-f2ef-4b61-81b3-94d68658eb24" d="M166.8,59.6c.2,0,.5,0,.7,0,.2,0,.4.1.6.2s.3.3.4.4l-.5.3c0,0-.1-.2-.2-.2s-.2,0-.4-.1c-.1,0-.3,0-.4,0-.2,0-.3,0-.4.1-.1,0-.2.2-.3.3,0,.1,0,.2,0,.3,0,.1,0,.2.2.3.1,0,.2.1.4.1.1,0,.3,0,.5,0,.3,0,.6,0,.8,0,.2,0,.4.2.6.3s.3.3.3.6c0,.2,0,.5-.1.7-.1.2-.3.4-.5.5-.2.1-.5.2-.7.3-.2,0-.4,0-.7,0-.2,0-.4-.1-.6-.2-.2-.1-.3-.3-.4-.4l.6-.3c0,0,.1.2.2.2.1,0,.2,0,.4.1s.3,0,.4,0c.2,0,.3,0,.4-.1.1,0,.2-.2.3-.3,0-.1.1-.2,0-.3,0-.1,0-.3-.2-.3s-.2-.1-.4-.1c-.1,0-.3,0-.5,0-.3,0-.5,0-.8,0s-.5-.2-.6-.3c-.2-.1-.3-.3-.3-.6,0-.2,0-.5.1-.7.1-.2.3-.4.5-.5.2-.1.5-.2.7-.3Z"/>
    <path class="uuid-d0b79d5c-f2ef-4b61-81b3-94d68658eb24" d="M162.2,60.3c.2,0,.5,0,.7,0s.4.1.6.2c.2.1.3.3.4.4l-.5.3c0,0-.1-.2-.2-.2-.1,0-.2,0-.4-.1-.1,0-.3,0-.4,0-.2,0-.3,0-.4.1-.1,0-.2.2-.3.3,0,.1,0,.2,0,.3,0,.1,0,.2.2.3.1,0,.2.1.4.1.1,0,.3,0,.5,0,.3,0,.6,0,.8,0s.4.2.6.3c.2.1.3.3.3.6,0,.2,0,.5-.1.7-.1.2-.3.4-.5.5s-.5.2-.7.3c-.2,0-.4,0-.7,0s-.4-.1-.6-.2c-.2-.1-.3-.3-.4-.4l.6-.3c0,0,.1.2.2.2.1,0,.2,0,.4.1.1,0,.3,0,.4,0,.2,0,.3,0,.4-.1.1,0,.2-.2.3-.3s.1-.2,0-.3c0-.1,0-.3-.2-.3,0,0-.2-.1-.4-.1-.1,0-.3,0-.5,0-.3,0-.5,0-.8-.1-.2,0-.5-.2-.6-.3-.2-.1-.3-.3-.3-.6,0-.2,0-.5.1-.7.1-.2.3-.4.5-.5.2-.1.5-.2.7-.3Z"/>
    <path class="uuid-d0b79d5c-f2ef-4b61-81b3-94d68658eb24" d="M156.8,61.2l.6,4.2h-.7c0,0-2.3-2.7-2.3-2.7l.4,3h-.6c0,0-.6-4.1-.6-4.1h.7c0,0,2.3,2.7,2.3,2.7l-.4-3h.6Z"/>
    <path class="uuid-d0b79d5c-f2ef-4b61-81b3-94d68658eb24" d="M150.1,62.1c.3,0,.6,0,.8,0s.5.2.7.4c.2.2.4.4.5.6.1.2.2.5.3.8,0,.3,0,.6,0,.9s-.2.5-.4.7c-.2.2-.4.4-.6.6-.2.1-.5.2-.8.3-.3,0-.6,0-.8,0-.3,0-.5-.2-.7-.4-.2-.2-.4-.4-.5-.6-.1-.2-.2-.5-.3-.8s0-.6,0-.9.2-.5.4-.7c.2-.2.4-.4.6-.6s.5-.2.8-.3ZM150.2,62.7c-.2,0-.4,0-.5.2-.2.1-.3.2-.4.4-.1.2-.2.3-.2.5,0,.2,0,.4,0,.6,0,.2,0,.4.2.6,0,.2.2.3.4.5.2.1.3.2.5.3.2,0,.4,0,.6,0,.2,0,.4,0,.5-.2.2-.1.3-.2.4-.4.1-.2.2-.3.2-.5,0-.2,0-.4,0-.6,0-.2,0-.4-.2-.6s-.2-.3-.4-.5c-.2-.1-.3-.2-.5-.3-.2,0-.4,0-.6,0Z"/>
    <path class="uuid-d0b79d5c-f2ef-4b61-81b3-94d68658eb24" d="M146.6,62.6l.5,4.2-1.4.2c-.3,0-.6,0-.8,0-.3,0-.5-.2-.7-.4-.2-.2-.4-.4-.5-.6-.1-.2-.2-.5-.3-.8s0-.6,0-.8c0-.3.2-.5.4-.7s.4-.4.6-.5c.2-.1.5-.2.8-.3l1.4-.2ZM146,63.3h-.8c-.2.1-.4.2-.6.3-.2,0-.3.2-.4.4-.1.2-.2.3-.3.5,0,.2,0,.4,0,.6,0,.2,0,.4.2.6s.2.3.4.4c.2.1.3.2.5.3.2,0,.4,0,.6,0h.8c0,0-.3-3-.3-3Z"/>
    <path class="uuid-d0b79d5c-f2ef-4b61-81b3-94d68658eb24" d="M141.7,63.1l.4,4.2-2.6.3v-.6c0,0,1.9-.2,1.9-.2v-1c0,0-1.7.2-1.7.2v-.6c0,0,1.5-.2,1.5-.2v-1.3c-.1,0-2.1.2-2.1.2v-.6c0,0,2.5-.3,2.5-.3Z"/>
    <path class="uuid-d0b79d5c-f2ef-4b61-81b3-94d68658eb24" d="M137.4,63.5c0,0,.2,0,.2,0,0,0,.1.1.1.2,0,0,0,.2,0,.2,0,0-.1.1-.2.1s-.2,0-.2,0c0,0-.1-.1-.1-.2,0,0,0-.2,0-.2,0,0,.1-.1.2-.1Z"/>
    <path class="uuid-d0b79d5c-f2ef-4b61-81b3-94d68658eb24" d="M134.8,63.7c.1,0,.3,0,.4,0,.1,0,.3.1.4.2l-.4.5c0,0-.1,0-.2,0,0,0-.2,0-.2,0-.1,0-.2,0-.3.1,0,0-.2.2-.2.3,0,.1,0,.2,0,.3l.2,3h-.6s-.2-2.9-.2-2.9c0-.2,0-.5.1-.7.1-.2.2-.4.4-.5.2-.1.4-.2.6-.2Z"/>
    <path class="uuid-d0b79d5c-f2ef-4b61-81b3-94d68658eb24" d="M130.5,64c.2,0,.5,0,.7,0,.2,0,.4.2.6.3.2.1.3.3.4.5l-.6.2c0,0-.1-.2-.2-.2-.1,0-.2-.1-.4-.2-.1,0-.3,0-.4,0-.2,0-.3,0-.4.1-.1,0-.2.1-.3.2,0,0-.1.2-.1.3,0,.1,0,.2.2.3,0,0,.2.1.4.2.1,0,.3,0,.4,0,.3,0,.6,0,.8.2.2,0,.4.2.6.4s.2.4.2.6c0,.3,0,.5-.2.7-.1.2-.3.3-.5.5-.2.1-.5.2-.8.2-.2,0-.4,0-.7,0-.2,0-.4-.2-.6-.3-.2-.1-.3-.3-.4-.5l.6-.2c0,0,.1.2.2.2,0,0,.2.1.4.2.1,0,.3,0,.4,0,.2,0,.3,0,.4,0,.1,0,.2-.1.3-.2,0,0,.1-.2.1-.3,0-.1,0-.3-.1-.3s-.2-.1-.3-.2c-.1,0-.3,0-.5,0-.3,0-.5,0-.8-.2-.2,0-.4-.2-.6-.4s-.2-.4-.2-.6c0-.2,0-.5.2-.7.1-.2.3-.3.5-.5.2-.1.5-.2.8-.2Z"/>
    <path class="uuid-d0b79d5c-f2ef-4b61-81b3-94d68658eb24" d="M125,64.3l.3,4.2h-1.4c-.2.1-.4,0-.6,0-.2,0-.3-.2-.5-.4-.1-.2-.2-.4-.2-.6,0-.2,0-.4.1-.6,0-.2.2-.4.4-.5.2-.1.4-.2.6-.2h.8c0,0-.1-1.7-.1-1.7h.6ZM124.5,66.7h-.8c-.1,0-.2,0-.3.2s-.2.2-.2.3c0,.1,0,.2,0,.3,0,.1,0,.2.1.3,0,0,.2.2.3.2.1,0,.2,0,.3,0h.8c0,0,0-1.4,0-1.4Z"/>
    <path class="uuid-d0b79d5c-f2ef-4b61-81b3-94d68658eb24" d="M118.9,64.7c.3,0,.6,0,.8,0s.5.2.7.4c.2.2.4.4.5.7.1.3.2.5.2.8,0,.3,0,.6,0,.9,0,.3-.2.5-.4.7-.2.2-.4.4-.6.5-.2.1-.5.2-.8.2-.3,0-.6,0-.8,0s-.5-.2-.7-.4c-.2-.2-.4-.4-.5-.7-.1-.3-.2-.5-.2-.8,0-.3,0-.6,0-.9,0-.3.2-.5.4-.7.2-.2.4-.4.6-.5.2-.1.5-.2.8-.2ZM119,65.3c-.2,0-.4,0-.5.2-.2,0-.3.2-.4.4-.1.2-.2.3-.3.5s0,.4,0,.6c0,.2,0,.4.2.6s.2.3.4.5.3.2.5.3c.2,0,.4,0,.6,0s.4,0,.5-.2.3-.2.4-.4.2-.3.3-.5c0-.2,0-.4,0-.6,0-.2,0-.4-.2-.6s-.2-.3-.4-.5c-.1-.1-.3-.2-.5-.3-.2,0-.4,0-.6,0Z"/>
    <path class="uuid-d0b79d5c-f2ef-4b61-81b3-94d68658eb24" d="M113.9,65.2c.2,0,.5,0,.7,0,.2,0,.4.1.6.2s.3.3.4.4l-.6.3c0,0-.1-.2-.2-.2s-.2-.1-.4-.1c-.1,0-.3,0-.4,0-.2,0-.3,0-.4.1-.1,0-.2.2-.3.3,0,.1-.1.2,0,.3,0,.1,0,.2.2.3.1,0,.2.1.4.2.1,0,.3,0,.4,0,.3,0,.6,0,.8.1.2,0,.4.2.6.3.2.1.2.4.3.6,0,.2,0,.5-.1.7-.1.2-.3.4-.5.5-.2.1-.5.2-.7.2-.2,0-.4,0-.7,0s-.4-.1-.6-.2c-.2-.1-.3-.3-.4-.4l.6-.3c0,0,.1.2.2.2s.2.1.4.1c.1,0,.3,0,.4,0,.2,0,.3,0,.4-.1.1,0,.2-.2.3-.3,0-.1.1-.2,0-.3,0-.1,0-.3-.2-.3,0,0-.2-.1-.4-.1s-.3,0-.5,0c-.3,0-.5,0-.8-.1-.2,0-.5-.2-.6-.3-.2-.1-.3-.3-.3-.6,0-.2,0-.5.1-.7.1-.2.3-.4.5-.5.2-.1.5-.2.7-.2Z"/>
    <path class="uuid-d0b79d5c-f2ef-4b61-81b3-94d68658eb24" d="M108.3,70.4v-.6c-.1,0,1.2-.2,1.2-.2l-.6-3.5h.6c0-.1.6,3.4.6,3.4l1.3-.2v.6c.1,0-3.1.6-3.1.6Z"/>
    <path class="uuid-d0b79d5c-f2ef-4b61-81b3-94d68658eb24" d="M104,67.1c.3,0,.6,0,.8,0,.3,0,.5.1.8.3.2.1.4.3.6.6s.3.5.4.8c0,.3,0,.6,0,.9,0,.3-.1.5-.3.8-.1.2-.3.4-.5.6-.2.2-.5.3-.7.4-.3,0-.6,0-.9,0-.3,0-.6-.2-.9-.4l.5-.4c.2.1.4.2.6.3.2,0,.4,0,.6,0,.2,0,.4-.1.5-.3.1-.1.3-.3.4-.4,0-.2.2-.4.2-.6s0-.4,0-.6c0-.2-.1-.4-.3-.6-.1-.2-.3-.3-.4-.4-.2-.1-.3-.2-.5-.2-.2,0-.4,0-.6,0-.1,0-.3,0-.4.2-.1,0-.2.2-.3.3,0,.1-.2.2-.2.4s0,.3,0,.5l.9-.2v.5c.1,0-1.4.4-1.4.4,0-.3-.1-.6,0-.9,0-.3.1-.5.3-.8.1-.2.3-.5.5-.6s.5-.3.7-.4Z"/>
    <path class="uuid-d0b79d5c-f2ef-4b61-81b3-94d68658eb24" d="M100.4,68.2l1.5,3.9-1.4.5c-.2,0-.4,0-.6,0-.2,0-.4-.1-.6-.3s-.3-.3-.4-.5c0-.2,0-.4,0-.5,0-.2,0-.3.1-.5s.2-.3.3-.4l-1.6-1.3.7-.3,1.5,1.2.5-.2-.6-1.6.6-.2ZM100.6,70.6l-.8.3c-.1,0-.2.1-.3.2,0,0-.1.2-.1.3,0,.1,0,.2,0,.3s.1.2.2.3c0,0,.2.1.3.1.1,0,.2,0,.3,0l.8-.3-.5-1.3Z"/>
    <path class="uuid-d0b79d5c-f2ef-4b61-81b3-94d68658eb24" d="M96,69.9l1.9,3.8-2.3,1.2-.3-.6,1.8-.9-.4-.9-1.4.7-.3-.6,1.4-.7-.6-1.2-1.8.9-.3-.6,2.3-1.2Z"/>
    <path class="uuid-d0b79d5c-f2ef-4b61-81b3-94d68658eb24" d="M90.7,72.9c.2-.1.4-.2.6-.3.2,0,.4,0,.6,0s.4,0,.6.2l-.4.5c0,0-.2,0-.3,0-.1,0-.3,0-.4,0s-.3.1-.4.2c-.1,0-.2.2-.3.3,0,.1-.1.2-.2.4,0,.1,0,.2,0,.3,0,.1.2.2.3.2.1,0,.3,0,.4,0,.1,0,.3,0,.4-.2.3-.1.5-.2.8-.3.2,0,.5,0,.7,0,.2,0,.4.2.5.4.1.2.2.4.2.7,0,.2,0,.5-.2.7-.1.2-.3.4-.5.6-.2.1-.4.2-.6.3-.2,0-.4,0-.6,0-.2,0-.4,0-.6-.2l.4-.5c0,0,.2,0,.3,0,.1,0,.2,0,.4,0s.3-.1.4-.2c.1,0,.2-.2.3-.3,0-.1.1-.2.2-.4,0-.1,0-.2,0-.3,0-.1-.2-.2-.3-.2-.1,0-.2,0-.4,0-.1,0-.3.1-.4.2-.3.1-.5.2-.8.3-.3,0-.5,0-.7,0-.2,0-.4-.2-.5-.4s-.2-.4-.2-.7c0-.2,0-.5.2-.7.1-.2.3-.4.5-.6Z"/>
    <path class="uuid-d0b79d5c-f2ef-4b61-81b3-94d68658eb24" d="M86.4,76.4c.2-.2.4-.4.7-.5.3,0,.5-.1.8-.1.3,0,.5,0,.8.2.3.1.5.3.7.5.2.2.4.5.5.7.1.3.2.5.2.8,0,.3,0,.5-.1.8,0,.3-.2.5-.4.7-.2.2-.5.4-.8.5-.3.1-.6.1-1,0l.2-.6c.2,0,.4,0,.6,0,.2,0,.4-.2.5-.3.1-.1.2-.3.3-.5,0-.2,0-.4,0-.6s0-.4-.1-.6c0-.2-.2-.4-.4-.5-.2-.2-.3-.3-.5-.3-.2,0-.4-.1-.6-.1-.2,0-.4,0-.6,0-.2,0-.3.2-.5.3-.1.1-.2.2-.2.4,0,.1-.1.3-.1.4,0,.1,0,.3,0,.4,0,.1,0,.3.1.4l.6-.6.4.4-1.1,1.2c-.2-.2-.4-.4-.5-.7s-.2-.5-.2-.8c0-.3,0-.5.1-.8,0-.3.2-.5.4-.7Z"/>
    <path class="uuid-d0b79d5c-f2ef-4b61-81b3-94d68658eb24" d="M83.8,79.5l3.5,2.4-.4.5-3-2-1,1.5-.5-.4,1.4-2Z"/>
    <path class="uuid-d0b79d5c-f2ef-4b61-81b3-94d68658eb24" d="M80.4,85.7l4,1.2-.7,2.5-.6-.2.6-1.9-1-.3-.5,1.5-.6-.2.5-1.5-1.3-.4-.6,1.9-.6-.2.7-2.5Z"/>
    <path class="uuid-d0b79d5c-f2ef-4b61-81b3-94d68658eb24" d="M79.3,90.3l2.1,1.6,2.1-1.5v.8s-1.6,1.1-1.6,1.1l1.5,1.2v.8s-2.1-1.5-2.1-1.5l-2.1,1.5v-.8s1.6-1.1,1.6-1.1l-1.6-1.2v-.8Z"/>
    <path class="uuid-d0b79d5c-f2ef-4b61-81b3-94d68658eb24" d="M79.6,96.4l4-1.3.4,1.4c0,.2,0,.4,0,.6,0,.2-.1.4-.3.6-.1.2-.3.3-.5.3-.2,0-.4,0-.7,0s-.4-.1-.6-.3c-.2-.1-.3-.3-.3-.5l-.3-.8-1.6.5-.2-.6ZM82,96.2l.2.7c0,.1,0,.2.2.3,0,0,.2.1.3.2s.2,0,.3,0c.1,0,.2-.1.3-.2s.1-.2.2-.3c0-.1,0-.2,0-.3l-.2-.7-1.3.4Z"/>
    <path class="uuid-d0b79d5c-f2ef-4b61-81b3-94d68658eb24" d="M81.3,100.8l3.6-2.2.8,1.3c.1.2.2.4.2.6,0,.2,0,.4-.2.6-.1.2-.3.3-.5.5-.2.1-.3.2-.5.2s-.3,0-.5,0c-.2,0-.3-.1-.4-.3l-1,1.8-.4-.6.9-1.7-.3-.5-1.4.9-.3-.5ZM83.6,100.1l.5.7c0,.1.1.2.3.2.1,0,.2,0,.3,0,.1,0,.2,0,.3-.1.1,0,.2-.2.2-.3,0-.1,0-.2,0-.3s0-.2,0-.3l-.5-.7-1.1.7Z"/>
    <path class="uuid-d0b79d5c-f2ef-4b61-81b3-94d68658eb24" d="M84.3,105l2.9-3,1.9,1.8-.4.5-1.4-1.4-.7.7,1.2,1.1-.4.5-1.2-1.1-.9.9,1.4,1.4-.4.5-1.9-1.8Z"/>
    <path class="uuid-d0b79d5c-f2ef-4b61-81b3-94d68658eb24" d="M89.1,108.9c-.2-.1-.4-.3-.5-.4-.1-.2-.2-.4-.3-.6,0-.2,0-.4,0-.6h.6c0,.2,0,.3,0,.4,0,.1.1.2.2.3,0,.1.2.2.3.3.1,0,.3.1.4.2s.3,0,.4,0c.1,0,.2-.1.3-.2,0-.1,0-.2,0-.3s0-.2-.2-.3-.2-.2-.3-.3c-.2-.2-.4-.4-.6-.6-.2-.2-.2-.4-.3-.6,0-.2,0-.4.2-.7.1-.2.3-.4.5-.4.2,0,.5-.1.7,0,.3,0,.5.1.7.3.2.1.4.3.5.4.1.2.2.4.3.6,0,.2,0,.4,0,.6h-.6c0-.2,0-.3,0-.4,0-.1-.1-.2-.2-.3s-.2-.2-.3-.3c-.1,0-.3-.1-.4-.2s-.3,0-.4,0-.2,0-.3.2c0,.1-.1.2,0,.4,0,.1,0,.2.2.3,0,.1.2.2.3.3.2.2.4.4.5.6s.2.4.3.6,0,.4-.1.6c-.1.2-.3.4-.5.4-.2,0-.5.1-.7,0-.3,0-.5-.1-.7-.3Z"/>
    <path class="uuid-d0b79d5c-f2ef-4b61-81b3-94d68658eb24" d="M93.6,111.2c-.2,0-.4-.2-.6-.3-.2-.1-.3-.3-.4-.5,0-.2-.1-.4-.1-.6h.6c0,.1,0,.2,0,.3,0,.1.1.2.3.3s.2.2.4.2c.1,0,.3,0,.4,0s.3,0,.4,0,.2-.1.2-.3c0-.1,0-.2,0-.3s-.1-.2-.3-.3c-.1,0-.2-.2-.4-.3-.3-.2-.5-.3-.7-.5-.2-.2-.3-.4-.4-.6,0-.2,0-.4,0-.7,0-.2.2-.4.4-.5.2-.1.4-.2.7-.2.3,0,.5,0,.8.1.2,0,.4.2.6.3.2.1.3.3.4.5s.1.4.1.6h-.6c0-.1,0-.2,0-.3,0-.1-.1-.2-.3-.3s-.2-.2-.4-.2c-.1,0-.3,0-.4,0-.1,0-.3,0-.4,0-.1,0-.2.1-.2.2,0,.1,0,.3,0,.4,0,.1.1.2.2.3.1,0,.2.2.4.3.2.1.4.3.6.5s.3.4.4.6c0,.2,0,.4,0,.7,0,.2-.2.4-.4.5-.2.1-.4.2-.7.2-.3,0-.5,0-.8-.1Z"/>
    <path class="uuid-d0b79d5c-f2ef-4b61-81b3-94d68658eb24" d="M99.2,112.9l.9-4.1,1.5.3c.2,0,.4.1.6.3.2.1.3.3.3.5,0,.2,0,.4,0,.7,0,.2-.1.4-.2.5-.1.1-.2.3-.4.3-.2,0-.3.1-.5.1l.6,1.9-.7-.2-.6-1.9h-.6c0-.1-.4,1.5-.4,1.5h-.6ZM100.3,110.8l.8.2c.1,0,.2,0,.3,0s.2,0,.3-.2c0,0,.1-.2.2-.3s0-.2,0-.4c0-.1,0-.2-.2-.3,0,0-.2-.1-.3-.2l-.8-.2-.3,1.3Z"/>
    <path class="uuid-d0b79d5c-f2ef-4b61-81b3-94d68658eb24" d="M103.8,113.8l.6-4.2,2.6.4v.6c0,0-2-.3-2-.3v1c-.1,0,1.4.2,1.4.2v.6c0,0-1.7-.2-1.7-.2l-.2,1.3,2,.3v.6c0,0-2.7-.4-2.7-.4Z"/>
    <path class="uuid-d0b79d5c-f2ef-4b61-81b3-94d68658eb24" d="M109.8,110.3h.7c0,0,1.2,4.3,1.2,4.3h-.7s-.2-.9-.2-.9h-1.9c0-.1-.3.6-.3.6h-.7s1.8-4.1,1.8-4.1ZM109.2,113h1.4c0,0-.6-1.9-.6-1.9l-.8,1.9Z"/>
    <path class="uuid-d0b79d5c-f2ef-4b61-81b3-94d68658eb24" d="M115.3,114.8c-.3,0-.5,0-.8-.2-.2-.1-.5-.3-.7-.5-.2-.2-.3-.4-.4-.7-.1-.3-.2-.5-.2-.8,0-.3,0-.6.2-.8.1-.3.3-.5.5-.7.2-.2.4-.4.7-.5.3-.1.5-.2.8-.2.3,0,.7,0,.9.2s.5.4.7.6l-.6.3c-.1-.2-.3-.3-.5-.4-.2-.1-.4-.2-.6-.2-.2,0-.4,0-.6.1-.2,0-.3.2-.5.3s-.2.3-.3.5c0,.2-.1.4-.1.6,0,.2,0,.4.1.6,0,.2.2.4.3.5.1.1.3.3.5.3.2,0,.4.1.6.1.2,0,.4,0,.6-.1.2,0,.4-.2.5-.4l.6.3c-.2.3-.4.5-.7.6-.3.2-.6.2-.9.2Z"/>
    <path class="uuid-d0b79d5c-f2ef-4b61-81b3-94d68658eb24" d="M121.5,110.4v.6s-1.3,0-1.3,0v3.6c.1,0-.5,0-.5,0v-3.6c-.1,0-1.4,0-1.4,0v-.6s3.3-.1,3.3-.1Z"/>
    <path class="uuid-d0b79d5c-f2ef-4b61-81b3-94d68658eb24" d="M123.3,114.6c0,0-.2,0-.2,0,0,0-.1-.1-.1-.2,0,0,0-.2,0-.2s.1-.1.2-.1c0,0,.2,0,.2,0,0,0,.1.1.1.2,0,0,0,.2,0,.2,0,0-.1.1-.2.1Z"/>
    <path class="uuid-d0b79d5c-f2ef-4b61-81b3-94d68658eb24" d="M128.2,114.2c-.1,0-.3,0-.4,0-.1,0-.3,0-.4-.2l.4-.5c0,0,.1,0,.2,0s.2,0,.2,0c.1,0,.2,0,.3-.1s.2-.2.2-.3c0-.1,0-.2,0-.3l-.3-3h.6c0,0,.3,2.9.3,2.9,0,.2,0,.5-.1.7s-.2.4-.4.5c-.2.1-.4.2-.6.2Z"/>
    <path class="uuid-d0b79d5c-f2ef-4b61-81b3-94d68658eb24" d="M132.5,113.7c-.2,0-.5,0-.7,0-.2,0-.4-.1-.6-.2s-.3-.3-.4-.4l.6-.3c0,0,.1.2.2.2.1,0,.2.1.4.1.1,0,.3,0,.4,0,.2,0,.3,0,.4-.1.1,0,.2-.2.3-.3,0-.1.1-.2,0-.3,0-.1,0-.2-.2-.3,0,0-.2-.1-.4-.2-.1,0-.3,0-.4,0-.3,0-.6,0-.8-.1-.2,0-.4-.2-.6-.3-.2-.1-.2-.4-.3-.6,0-.2,0-.5.1-.7.1-.2.3-.4.5-.5s.5-.2.7-.2c.2,0,.4,0,.7,0s.4.1.6.2.3.3.4.4l-.6.3c0,0-.1-.2-.2-.2-.1,0-.2-.1-.4-.1-.1,0-.3,0-.4,0-.2,0-.3,0-.4.1-.1,0-.2.2-.3.3,0,.1-.1.2,0,.3,0,.1,0,.3.2.3,0,0,.2.1.3.1s.3,0,.5,0c.3,0,.5,0,.8.1.2,0,.4.2.6.3.2.2.3.3.3.6,0,.2,0,.5-.1.7s-.3.4-.5.5c-.2.1-.5.2-.7.2Z"/>
    <path class="uuid-d0b79d5c-f2ef-4b61-81b3-94d68658eb24" d="M140.4,108.3v.6c0,0-1.2.2-1.2.2l.6,3.5h-.6c0,0-.6-3.4-.6-3.4l-1.3.2v-.6c0,0,3.2-.5,3.2-.5Z"/>
    <path class="uuid-d0b79d5c-f2ef-4b61-81b3-94d68658eb24" d="M144.3,107.6h.7c0-.1-1,2.4-1,2.4l.3,1.9h-.6c0,.1-.3-1.8-.3-1.8l-1.8-2h.7c0-.1,1.3,1.3,1.3,1.3l.7-1.8Z"/>
    <path class="uuid-d0b79d5c-f2ef-4b61-81b3-94d68658eb24" d="M147.2,111.3l-.8-4.1,1.4-.3c.2,0,.4,0,.6,0,.2,0,.4.2.5.4.1.2.2.4.3.6,0,.2,0,.4,0,.7s-.2.4-.3.5-.3.2-.6.3l-.8.2.3,1.7h-.6ZM147.3,108.9l.7-.2c.1,0,.2,0,.3-.2,0,0,.1-.2.2-.3,0-.1,0-.2,0-.4,0-.1,0-.2-.2-.3,0,0-.2-.2-.3-.2-.1,0-.2,0-.3,0l-.7.2.3,1.3Z"/>
    <path class="uuid-d0b79d5c-f2ef-4b61-81b3-94d68658eb24" d="M151.3,110.5l-.9-4.1,2.5-.5v.6c.1,0-1.8.4-1.8.4l.2,1,1.6-.3v.6c.1,0-1.4.3-1.4.3l.3,1.3,1.9-.4v.6c.1,0-2.4.5-2.4.5Z"/>
    <path class="uuid-d0b79d5c-f2ef-4b61-81b3-94d68658eb24" d="M156.8,109.4c-.2,0-.4,0-.7,0s-.4,0-.6-.2c-.2,0-.3-.2-.4-.4l.5-.3c0,0,.1.2.2.2.1,0,.2,0,.4,0,.1,0,.3,0,.4,0,.2,0,.3,0,.4-.2.1,0,.2-.2.3-.3,0-.1,0-.2,0-.3,0-.1,0-.2-.2-.3s-.2,0-.4-.1c-.1,0-.3,0-.5,0-.3,0-.6,0-.8,0-.2,0-.5-.1-.6-.3-.2-.1-.3-.3-.3-.6,0-.2,0-.5,0-.7,0-.2.3-.4.5-.5s.4-.3.7-.3c.2,0,.4,0,.7,0,.2,0,.4,0,.6.2s.3.2.4.4l-.5.3c0,0-.1-.2-.2-.2-.1,0-.2,0-.4,0-.1,0-.3,0-.4,0-.2,0-.3,0-.4.2-.1,0-.2.2-.3.3,0,.1,0,.2,0,.3,0,.1,0,.2.2.3s.2,0,.4,0c.1,0,.3,0,.5,0,.3,0,.5,0,.8,0,.3,0,.5.1.6.3.2.1.3.3.3.6,0,.2,0,.5,0,.7,0,.2-.3.4-.5.5-.2.2-.4.3-.7.3Z"/>
    <path class="uuid-d0b79d5c-f2ef-4b61-81b3-94d68658eb24" d="M161.7,108.3c-.3,0-.5,0-.8,0-.3,0-.5-.2-.7-.3-.2-.2-.4-.3-.6-.6-.2-.2-.3-.5-.3-.8,0-.3,0-.6,0-.9,0-.3.1-.5.3-.8.1-.2.3-.4.5-.6.2-.2.5-.3.7-.3.3,0,.7,0,1,0,.3,0,.6.2.8.5l-.5.4c-.2-.1-.3-.2-.6-.3-.2,0-.4,0-.6,0-.2,0-.4.1-.5.2s-.3.3-.4.4-.2.4-.2.6c0,.2,0,.4,0,.6,0,.2.1.4.2.6.1.2.3.3.4.4s.3.2.5.2.4,0,.6,0c.2,0,.4-.1.6-.3.2-.1.3-.3.4-.5l.6.2c-.1.3-.3.6-.6.8-.2.2-.5.4-.9.4Z"/>
    <path class="uuid-d0b79d5c-f2ef-4b61-81b3-94d68658eb24" d="M164.8,107.5l-1-4.1,1.5-.4c.2,0,.4,0,.6,0s.4.2.5.3c.1.2.2.4.3.6,0,.2,0,.4,0,.5,0,.2-.1.3-.2.5-.1.1-.2.3-.4.3l1.4,1.5-.7.2-1.4-1.4h-.6c0,.1.4,1.8.4,1.8h-.6ZM164.9,105.1l.8-.2c.1,0,.2,0,.3-.2,0,0,.1-.2.2-.3,0-.1,0-.2,0-.3,0-.1,0-.2-.2-.3,0,0-.2-.1-.3-.2-.1,0-.2,0-.3,0l-.8.2.3,1.3Z"/>
    <path class="uuid-d0b79d5c-f2ef-4b61-81b3-94d68658eb24" d="M169.2,106.4l-1-4.1h.6c0-.1,1,3.9,1,3.9h-.6Z"/>
    <path class="uuid-d0b79d5c-f2ef-4b61-81b3-94d68658eb24" d="M171.5,105.9l-1-4.1,1.4-.3c.2,0,.4,0,.6,0,.2,0,.4.2.5.3s.3.3.3.6c0,.2,0,.4,0,.7,0,.2-.2.4-.3.5-.2.2-.3.3-.5.3l-.8.2.4,1.6h-.6ZM171.6,103.4l.7-.2c.1,0,.2,0,.3-.2,0,0,.1-.2.2-.3s0-.2,0-.4,0-.2-.2-.3c0,0-.2-.1-.3-.2-.1,0-.2,0-.3,0l-.7.2.3,1.3Z"/>
    <path class="uuid-d0b79d5c-f2ef-4b61-81b3-94d68658eb24" d="M177.6,100l.2.6-1.3.3.9,3.5-.6.2-.9-3.5-1.3.3-.2-.6,3.2-.8Z"/>
    <path class="uuid-d0b79d5c-f2ef-4b61-81b3-94d68658eb24" d="M183.8,102.9c-.2,0-.4,0-.7,0-.2,0-.4,0-.6-.2-.2,0-.3-.2-.4-.4l.5-.4c0,0,.1.2.3.2s.2,0,.4,0c.1,0,.3,0,.4,0,.2,0,.3-.1.4-.2s.2-.2.3-.3c0-.1,0-.2,0-.3,0-.1-.1-.2-.2-.3s-.2,0-.4-.1c-.1,0-.3,0-.5,0-.3,0-.6,0-.8,0-.2,0-.5-.1-.6-.2-.2-.1-.3-.3-.4-.6,0-.2,0-.5,0-.7,0-.2.2-.4.4-.6.2-.2.4-.3.7-.3.2,0,.4,0,.7,0,.2,0,.4,0,.6.2.2,0,.3.2.5.4l-.5.4c0,0-.1-.2-.3-.2-.1,0-.2,0-.4,0-.1,0-.3,0-.4,0-.2,0-.3,0-.4.2s-.2.2-.3.3c0,.1,0,.2,0,.3,0,.1.1.2.2.3s.2,0,.4,0,.3,0,.5,0c.3,0,.5,0,.8,0,.3,0,.5.1.6.3s.3.3.4.6c0,.2,0,.5,0,.7,0,.2-.2.4-.4.6-.2.2-.4.3-.7.3Z"/>
    <path class="uuid-d0b79d5c-f2ef-4b61-81b3-94d68658eb24" d="M187.2,97.6l.7-.2,2.5,3.7-.6.2-.5-.7-1.8.5v.8c0,0-.7.2-.7.2l.5-4.4ZM187.5,100.4l1.4-.3-1.2-1.7-.2,2.1Z"/>
    <path class="uuid-d0b79d5c-f2ef-4b61-81b3-94d68658eb24" d="M193.3,100.5c-.2,0-.4,0-.7,0-.2,0-.4,0-.6-.2s-.3-.2-.4-.4l.5-.4c0,0,.1.2.3.2.1,0,.2,0,.4,0,.1,0,.3,0,.4,0,.2,0,.3-.1.4-.2s.2-.2.3-.3c0-.1,0-.2,0-.3,0-.1-.1-.2-.2-.3s-.2,0-.4-.1-.3,0-.5,0c-.3,0-.6,0-.8,0s-.5-.1-.6-.2c-.2-.1-.3-.3-.4-.6,0-.2,0-.5,0-.7,0-.2.2-.4.4-.6s.4-.3.7-.3c.2,0,.4,0,.7,0,.2,0,.4,0,.6.2.2,0,.3.2.5.4l-.5.4c0,0-.1-.2-.3-.2-.1,0-.2,0-.4,0-.1,0-.3,0-.4,0-.2,0-.3,0-.4.2s-.2.2-.3.3c0,.1,0,.2,0,.3,0,.1.1.2.2.3,0,0,.2,0,.4,0,.1,0,.3,0,.5,0,.3,0,.5,0,.8,0,.3,0,.5.1.6.3s.3.3.4.6c0,.2,0,.5,0,.7,0,.2-.2.4-.4.6-.2.2-.4.3-.7.3Z"/>
    <path class="uuid-d0b79d5c-f2ef-4b61-81b3-94d68658eb24" d="M197.8,99.3c-.2,0-.4,0-.7,0-.2,0-.4,0-.6-.2-.2,0-.3-.2-.4-.4l.5-.4c0,0,.1.2.3.2.1,0,.2,0,.4,0,.1,0,.3,0,.4,0,.2,0,.3,0,.4-.2.1,0,.2-.2.3-.3,0-.1,0-.2,0-.3,0-.1,0-.2-.2-.3-.1,0-.2,0-.4-.1-.1,0-.3,0-.5,0-.3,0-.6,0-.8,0-.2,0-.5-.1-.6-.2s-.3-.3-.4-.6c0-.2,0-.5,0-.7,0-.2.2-.4.4-.6.2-.2.4-.3.7-.3.2,0,.4,0,.7,0,.2,0,.4,0,.6.2.2,0,.3.2.5.4l-.5.3c0,0-.1-.2-.3-.2s-.2,0-.4,0c-.1,0-.3,0-.4,0-.2,0-.3,0-.4.2-.1,0-.2.2-.3.3s0,.2,0,.3c0,.1.1.2.2.3,0,0,.2,0,.4,0,.1,0,.3,0,.5,0,.3,0,.5,0,.8,0,.3,0,.5.1.6.3.2.1.3.3.4.6,0,.2,0,.5,0,.7s-.2.4-.4.6-.4.3-.7.3Z"/>
    <path class="uuid-d0b79d5c-f2ef-4b61-81b3-94d68658eb24" d="M203.1,98l-1-4.1.7-.2,2.6,2.5-.7-3h.6c0-.1,1,3.9,1,3.9l-.7.2-2.6-2.5.7,3h-.6Z"/>
    <path class="uuid-d0b79d5c-f2ef-4b61-81b3-94d68658eb24" d="M209.7,96.5c-.3,0-.5,0-.8,0-.3,0-.5-.2-.7-.3s-.4-.3-.6-.6c-.2-.2-.3-.5-.3-.8,0-.3,0-.6,0-.9,0-.3.1-.5.3-.8.1-.2.3-.4.5-.6.2-.2.5-.3.7-.3.3,0,.6,0,.8,0,.3,0,.5.2.7.3.2.2.4.3.6.6.2.2.3.5.3.8,0,.3,0,.6,0,.9,0,.3-.1.5-.3.8-.1.2-.3.4-.5.6-.2.2-.5.3-.7.3ZM209.6,95.9c.2,0,.4-.1.5-.2.2-.1.3-.3.4-.4,0-.2.2-.4.2-.6,0-.2,0-.4,0-.6,0-.2-.1-.4-.2-.6-.1-.2-.3-.3-.4-.4-.2-.1-.3-.2-.5-.2-.2,0-.4,0-.6,0-.2,0-.4.1-.5.2-.2.1-.3.3-.4.4,0,.2-.2.4-.2.6,0,.2,0,.4,0,.6,0,.2.1.4.2.6.1.2.3.3.4.4s.3.2.5.2c.2,0,.4,0,.6,0Z"/>
    <path class="uuid-d0b79d5c-f2ef-4b61-81b3-94d68658eb24" d="M213.2,95.6l-.9-4.1,1.4-.3c.3,0,.6,0,.8,0,.3,0,.5.2.8.3.2.1.4.3.6.6.2.2.3.5.3.8,0,.3,0,.6,0,.8,0,.3-.1.5-.3.8-.1.2-.3.4-.6.6-.2.2-.5.3-.8.3l-1.4.3ZM213.6,94.9l.7-.2c.2,0,.4-.1.5-.2.2-.1.3-.3.4-.4.1-.2.2-.3.2-.5,0-.2,0-.4,0-.6s-.1-.4-.2-.5c-.1-.2-.3-.3-.4-.4-.2-.1-.3-.2-.5-.2-.2,0-.4,0-.6,0l-.7.2.6,2.9Z"/>
    <path class="uuid-d0b79d5c-f2ef-4b61-81b3-94d68658eb24" d="M218,94.6l-.9-4.1,2.5-.5v.6c.1,0-1.8.4-1.8.4l.2,1,1.6-.3v.6c.1,0-1.4.3-1.4.3l.3,1.3,1.9-.4v.6c.1,0-2.4.5-2.4.5Z"/>
    <path class="uuid-d0b79d5c-f2ef-4b61-81b3-94d68658eb24" d="M222.3,93.8c0,0-.2,0-.2,0,0,0-.1-.1-.1-.2,0,0,0-.2,0-.2,0,0,.1-.1.2-.1,0,0,.2,0,.2,0,0,0,.1.1.1.2,0,0,0,.2,0,.2,0,0-.1.1-.2.1Z"/>
    <path class="uuid-d0b79d5c-f2ef-4b61-81b3-94d68658eb24" d="M224.7,93.3c-.1,0-.3,0-.4,0-.1,0-.3,0-.4-.2l.3-.5c0,0,.1,0,.2,0,0,0,.2,0,.2,0,.1,0,.2,0,.3-.1,0,0,.2-.2.2-.3,0-.1,0-.2,0-.3l-.5-2.9h.6c0-.1.5,2.8.5,2.8,0,.2,0,.5,0,.7,0,.2-.2.4-.4.5-.2.1-.4.2-.6.3Z"/>
    <path class="uuid-d0b79d5c-f2ef-4b61-81b3-94d68658eb24" d="M229,92.7c-.2,0-.5,0-.7,0-.2,0-.4-.1-.6-.2-.2-.1-.3-.3-.4-.4l.6-.3c0,0,.1.2.2.2.1,0,.2.1.4.1.1,0,.3,0,.4,0,.2,0,.3,0,.4-.1.1,0,.2-.2.3-.3s.1-.2,0-.3c0-.1,0-.2-.2-.3,0,0-.2-.1-.4-.2-.1,0-.3,0-.4,0-.3,0-.6,0-.8-.1s-.4-.2-.6-.3c-.2-.1-.2-.4-.3-.6,0-.2,0-.5.1-.7.1-.2.3-.4.5-.5.2-.1.5-.2.7-.2.2,0,.4,0,.7,0,.2,0,.4.1.6.2.2.1.3.3.4.4l-.6.3c0,0-.1-.2-.2-.2-.1,0-.2-.1-.4-.1-.1,0-.3,0-.4,0-.2,0-.3,0-.4.1s-.2.2-.3.3-.1.2,0,.3c0,.1,0,.3.2.3s.2.1.3.1c.1,0,.3,0,.5,0,.3,0,.5,0,.8.1.2,0,.4.2.6.3.2.2.3.3.3.6,0,.2,0,.5-.1.7-.1.2-.3.4-.5.5-.2.1-.5.2-.7.2Z"/>
  </g>
  <path class="uuid-6a71cbd8-8d63-4268-8202-79bcc3dd76d6" d="M83.6,46.9v-29.2h11.7v5.6h-5.7v5.7h5.5v5.5h-5.5v6.7h6.1v5.7h-12.1Z"/>
  <path class="uuid-6a71cbd8-8d63-4268-8202-79bcc3dd76d6" d="M97.6,46.9v-29.2h6l2.7,14v-14h5.6v29.2h-5.7l-2.9-14.6v14.6h-5.7Z"/>
  <path class="uuid-6a71cbd8-8d63-4268-8202-79bcc3dd76d6" d="M121.4,47.1c-2.1,0-3.8-.7-5.1-2-1.3-1.3-1.9-3.2-1.9-5.5v-13.5c0-2.8.6-5,1.7-6.5,1.1-1.5,3-2.3,5.5-2.3s2.6.3,3.7.8,1.9,1.3,2.5,2.3c.6,1,.9,2.3.9,3.8v5h-5.8v-4.3c0-.9-.1-1.5-.3-1.8-.2-.3-.6-.5-1-.5s-.9.2-1.1.6c-.2.4-.3.9-.3,1.6v14.6c0,.8.1,1.4.4,1.7.2.3.6.5,1,.5s.8-.2,1.1-.6c.2-.4.3-.9.3-1.6v-5.3h5.9v5.5c0,2.6-.6,4.4-1.9,5.6-1.3,1.2-3.1,1.7-5.4,1.7Z"/>
  <path class="uuid-6a71cbd8-8d63-4268-8202-79bcc3dd76d6" d="M130.7,46.9v-29.2h5.8v10.4h2.8v-10.4h5.8v29.2h-5.8v-13.2h-2.8v13.2h-5.8Z"/>
  <path class="uuid-6a71cbd8-8d63-4268-8202-79bcc3dd76d6" d="M146.9,46.9l2.8-29.2h9.9l2.8,29.2h-5.5l-.4-4.7h-3.5l-.4,4.7h-5.7ZM153.3,37.5h2.7l-1.3-14.9h-.3l-1.1,14.9Z"/>
  <path class="uuid-6a71cbd8-8d63-4268-8202-79bcc3dd76d6" d="M164.2,46.9v-29.2h6l2.7,14v-14h5.6v29.2h-5.7l-2.9-14.6v14.6h-5.7Z"/>
  <path class="uuid-6a71cbd8-8d63-4268-8202-79bcc3dd76d6" d="M183.6,46.9v-23.6h-3.5v-5.6h12.8v5.6h-3.5v23.6h-5.8Z"/>
  <path class="uuid-6a71cbd8-8d63-4268-8202-79bcc3dd76d6" d="M194.5,46.9v-29.2h11.7v5.6h-5.7v5.7h5.5v5.5h-5.5v6.7h6.1v5.7h-12.1ZM196.7,16.8v-3.7l7.9-3.6v5.8l-7.9,1.6Z"/>
  <path class="uuid-6a71cbd8-8d63-4268-8202-79bcc3dd76d6" d="M208.5,46.9v-29.2h11.7v5.6h-5.7v5.7h5.5v5.5h-5.5v6.7h6.1v5.7h-12.1Z"/>
  <path class="uuid-6a71cbd8-8d63-4268-8202-79bcc3dd76d6" d="M223.2,50.8l1.1-3.9h-2.1v-4.9h6.2v4.8l-1.7,4.1h-3.5Z"/>
  <path class="uuid-6a71cbd8-8d63-4268-8202-79bcc3dd76d6" d="M139.1,87.9c-2.1,0-3.8-.7-5.1-2-1.3-1.3-1.9-3.2-1.9-5.5v-13.5c0-2.8.6-5,1.7-6.5s3-2.3,5.5-2.3,2.6.3,3.7.8c1.1.5,1.9,1.3,2.5,2.3.6,1,.9,2.3.9,3.8v5h-5.8v-4.3c0-.9-.1-1.5-.3-1.8-.2-.3-.6-.5-1-.5s-.9.2-1.1.6c-.2.4-.3.9-.3,1.6v14.6c0,.8.1,1.4.4,1.7s.6.5,1,.5.8-.2,1.1-.6c.2-.4.3-.9.3-1.6v-5.3h5.9v5.5c0,2.6-.6,4.4-1.9,5.6-1.3,1.2-3.1,1.7-5.4,1.7Z"/>
  <path class="uuid-6a71cbd8-8d63-4268-8202-79bcc3dd76d6" d="M148.4,87.7v-29.2h5.8v10.4h2.8v-10.4h5.8v29.2h-5.8v-13.2h-2.8v13.2h-5.8Z"/>
  <path class="uuid-6a71cbd8-8d63-4268-8202-79bcc3dd76d6" d="M164.5,87.7l2.8-29.2h9.9l2.8,29.2h-5.5l-.4-4.7h-3.5l-.4,4.7h-5.7ZM171,78.3h2.7l-1.3-14.9h-.3l-1.1,14.9Z"/>
  <path class="uuid-6a71cbd8-8d63-4268-8202-79bcc3dd76d6" d="M181.8,87.7v-29.2h6l2.7,14v-14h5.6v29.2h-5.7l-2.9-14.6v14.6h-5.7Z"/>
  <path class="uuid-6a71cbd8-8d63-4268-8202-79bcc3dd76d6" d="M198.8,87.7v-29.2h6l2.7,14v-14h5.6v29.2h-5.7l-2.9-14.6v14.6h-5.7Z"/>
  <path class="uuid-6a71cbd8-8d63-4268-8202-79bcc3dd76d6" d="M219.2,87.7v-9.6l-4.7-19.6h5.8l1.6,9.9,1.6-9.9h5.8l-4.6,19.6v9.6h-5.5Z"/>
</svg>