<svg id="b81cc28c-114f-4cfa-89bf-5d0a58482d84" data-name="Layer 1" xmlns="http://www.w3.org/2000/svg" xmlns:xlink="http://www.w3.org/1999/xlink" viewBox="0 0 242 239">
  <defs>
    <style>
      .a089206e-bc03-4a2b-a4eb-d51008605fdb {
        fill: none;
      }

      .a3da43db-f717-4210-975d-bdc539721489 {
        clip-path: url(#a8454a19-9eab-42ca-bf3e-18faa9c933f4);
      }

      .a1897a76-360f-4b39-ac2f-9cc1732a6c4a {
        fill: #FAF9F6
;
        stroke: #000;
        stroke-miterlimit: 10;
      }

      .b38827ee-6298-4bf2-be26-8006d595d054 {
        fill: #e5d9d5;
      }

      .b01daa43-6174-4640-a675-b9417f487ec0 {
        fill: #e8c328;
      }
    </style>
    <clipPath id="a8454a19-9eab-42ca-bf3e-18faa9c933f4">
      <circle class="a089206e-bc03-4a2b-a4eb-d51008605fdb" cx="121" cy="119.5" r="119"/>
    </clipPath>
  </defs>
  <g class="a3da43db-f717-4210-975d-bdc539721489">
    <rect class="a1897a76-360f-4b39-ac2f-9cc1732a6c4a" x="-27.5" y="-28.5" width="298" height="298"/>
    <g>
      <path class="b38827ee-6298-4bf2-be26-8006d595d054" d="M88,157.8c-4.8,0-8.4-1.4-10.6-4.4S74,145.9,74,140V130h8.8v9.4c0,2,.1,3.7.2,5.4a8.6,8.6,0,0,0,1.3,3.9,4,4,0,0,0,3.5,1.5,3.8,3.8,0,0,0,3.4-1.5,8.2,8.2,0,0,0,1.3-4c.1-1.7.2-3.7.2-6V81.2h9v57.2c0,6.4-1.1,11.3-3.4,14.5S92.6,157.8,88,157.8Z"/>
      <polygon class="b38827ee-6298-4bf2-be26-8006d595d054" points="168 81.2 168 157.8 106.6 157.8 106.6 81.2 115.6 81.2 115.6 150.4 159 150.4 159 81.2 168 81.2"/>
      <path class="b01daa43-6174-4640-a675-b9417f487ec0" d="M120.2,146.8l11.6-65.6h10.8l12.7,65.6h-8.5l-2.1-14.7H130.8l-2.1,14.7Zm11.6-22h11.7l-6-32.6h-.2Z"/>
    </g>
  </g>
</svg>
