<svg id="ab1ae798-2692-4437-8805-36cbf86a48bf" data-name="Layer 1" xmlns="http://www.w3.org/2000/svg" viewBox="0 0 400 400">
  <defs>
    <style>
      .b54872b3-b036-40be-9304-e7c2a7b2614c {
        fill: #c39c90;
      }
    </style>
  </defs>
  <g>
    <circle class="b54872b3-b036-40be-9304-e7c2a7b2614c" cx="200" cy="200" r="200"/>
    <g>
      <g>
        <path d="M103.3,220.5c12.6-.7,23.7-4.7,32.4-14.1a23,23,0,0,0,5.8-10.3c1.4-5.4-.2-10.1-3.4-14.4a31.5,31.5,0,0,0-8.9-7.8,70.8,70.8,0,0,0-18.1-7.8L93.3,161a60.1,60.1,0,0,1-10.8-4.5l-3.4-2.3c-6.5-5.3-7.4-12.9-4.4-20a36.1,36.1,0,0,1,6.1-9.4,64,64,0,0,1,21.3-14.7,68.1,68.1,0,0,1,19.7-5.5,40.7,40.7,0,0,1,21,2.1,21.1,21.1,0,0,1,13.6,20,31.3,31.3,0,0,1-.8,7.5,6.3,6.3,0,0,1-1.2,2.8,3.3,3.3,0,0,1-5.9-.5,8,8,0,0,1-.7-3.4,37.8,37.8,0,0,1,.5-7.6c.6-4.1-.9-7.1-3.7-9.7a24.2,24.2,0,0,0-10.5-4.9,46.1,46.1,0,0,0-19.9.8,62.6,62.6,0,0,0-26,12.4,33.4,33.4,0,0,0-9.6,11.8,15.9,15.9,0,0,0-1.4,7.5,10.6,10.6,0,0,0,4.7,8,32.3,32.3,0,0,0,9.3,4.6c5.9,2,11.8,3.3,17.7,5.2a119.5,119.5,0,0,1,15.2,5.4,51.9,51.9,0,0,1,13.3,8.5,26.9,26.9,0,0,1,6.9,9.8c2.6,6.6,1.6,12.9-2.1,18.8s-7.8,9.1-13,12.3a52.3,52.3,0,0,1-19.8,6.7,37.3,37.3,0,0,1-12.9-.7,16.7,16.7,0,0,1-5.7-2.3,7.3,7.3,0,0,1-2.8-3,5.6,5.6,0,0,1,.8-7.3,19.2,19.2,0,0,1,6.9-4.5,98.4,98.4,0,0,1,23.5-6.4,36.5,36.5,0,0,1,4.7-.1h.8c.3,0,.6.1.6.5s-.3.5-.8.6a32.7,32.7,0,0,0-6.1.5A99.8,99.8,0,0,0,97.7,206a23,23,0,0,0-6.8,4.3c-2.4,2.4-2.3,4.9.4,7.2a11.2,11.2,0,0,0,4.4,2.1A27.8,27.8,0,0,0,103.3,220.5Z"/>
        <path d="M178.7,157.9a10.8,10.8,0,0,0-3,2.1,1.7,1.7,0,0,0-.5,1.4c-.2,1.8-.6,2.2-2.3,2a2.4,2.4,0,0,0-2.3.8l-10.5,9.1a20,20,0,0,1-2.8,2,4.1,4.1,0,0,1-3.9,0,4,4,0,0,1-1.4-3.8,6.8,6.8,0,0,1,.7-2.3,23.3,23.3,0,0,1,8.4-10.5,11.1,11.1,0,0,1,6.5-2.2,7.4,7.4,0,0,1,4.8,1.4,1.5,1.5,0,0,0,2.2-.1l3.2-2.3a5,5,0,0,1,1.9-1,1.8,1.8,0,0,1,2.3,2,3.9,3.9,0,0,1-.6,1.8c-1,2.1-1.8,4.1-2.7,6.2a13.2,13.2,0,0,0-1.3,4.7c-.2,1.8.2,2.1,1.8,2a11,11,0,0,0,2.6-.6,73.7,73.7,0,0,0,15.9-7.3l1.2-.7a.7.7,0,0,1,.9.1.7.7,0,0,1-.1.9c-.7.4-1.2.9-1.8,1.3a74,74,0,0,1-10.1,5.2,47.7,47.7,0,0,1-6.6,2.6,22.7,22.7,0,0,1-2.5.6c-2.4.1-3.7-1.2-3.6-3.8a12.1,12.1,0,0,1,.7-3.7c.7-2.2,1.6-4.3,2.5-6.5A2.9,2.9,0,0,0,178.7,157.9Zm-10.8,4.8c-4,1.2-6.8,4.1-9.2,7.4A54.3,54.3,0,0,0,167.9,162.7Z"/>
        <path d="M179,213.8a33.1,33.1,0,0,1,2.9-12.4,79.7,79.7,0,0,1,12.6-20.7l2.5-2.8a2.4,2.4,0,0,0,.7-2.8,24,24,0,0,1-.9-7,16,16,0,0,1,3.6-10.3,22.2,22.2,0,0,1,7.6-6.3,5.3,5.3,0,0,1,7.2,3.9,5,5,0,0,1-1.8,4.8,2.4,2.4,0,0,1-3.7-.4c-.6-.8-1-1-1.8-.4-3,2.7-5.4,5.7-5.6,9.9a5.6,5.6,0,0,0,0,1.3c0,.6-.1,1.4.4,1.7s1-.3,1.5-.7c5.8-4.7,12.8-6.9,19.7-9.1a5.7,5.7,0,0,1,2.2-.2c.4,0,.6.2.6.5a.4.4,0,0,1-.3.6l-1.6.5A58.5,58.5,0,0,0,205.3,174l-1,.8a1.9,1.9,0,0,0-.8,2.4,50.3,50.3,0,0,1,1.8,9.4c1,10.7-1,20.9-7.8,29.7a21.8,21.8,0,0,1-6.5,5.6,10.7,10.7,0,0,1-5.1,1.3,6,6,0,0,1-6.1-4.3,11.7,11.7,0,0,0-.6-2A16.2,16.2,0,0,1,179,213.8ZM199,180l-.5.2a2.6,2.6,0,0,0-.9.9,69.9,69.9,0,0,0-13.1,20,34.1,34.1,0,0,0-2.6,9.1,16.4,16.4,0,0,0,.3,7.3c.8,2.8,2.6,3.7,5.2,2.6a15.3,15.3,0,0,0,2.7-1.7,22.9,22.9,0,0,0,7.2-10.1c2.8-7.2,3.4-14.7,2.8-22.3A21.8,21.8,0,0,0,199,180Z"/>
        <path d="M226.7,172l4.3-4a119,119,0,0,1,14.2-11.5,15.1,15.1,0,0,1,3.5-2,6.6,6.6,0,0,1,2-.6,3.1,3.1,0,0,1,3.9,2.5,13.1,13.1,0,0,1,.5,3.9c.1,1,.3,2,.5,3s1.8,2.9,3.8,3.5a19.9,19.9,0,0,0,7.3-.2c6.9-1.1,13.8-2.8,20.7-4.3.6-.2,1.6-.8,1.8,0s-.9,1-1.6,1.2c-5.7,1.6-11.5,2.9-17.3,4.2A44.6,44.6,0,0,1,263,169a14,14,0,0,1-4.5-.6,6.8,6.8,0,0,1-4.7-4.2,21.1,21.1,0,0,1-1-5c-.2-3.4-.7-3.7-3.9-2.3a27,27,0,0,0-5.3,3.5,125.1,125.1,0,0,0-14.2,13l-3.6,3.6a6.6,6.6,0,0,1-1.7,1.2,2.1,2.1,0,0,1-3.1-1.9,12.4,12.4,0,0,1,.5-3.8,177.5,177.5,0,0,1,5.8-16.9A224.2,224.2,0,0,1,253.7,107l1.2-1.5a2.6,2.6,0,0,1,2.9-1.1A3.1,3.1,0,0,1,260,107a6.9,6.9,0,0,1-.8,3.2c-1.4,3-3.2,5.8-4.8,8.7-7.5,12.5-14.9,25.2-21.2,38.3-2,4.1-3.9,8.2-5.9,12.2-.3.8-.5,1.6-.8,2.3S226.6,172,226.7,172Z"/>
        <path d="M308.2,157.9a10.8,10.8,0,0,0-3,2.1,1.7,1.7,0,0,0-.5,1.4c-.2,1.8-.6,2.2-2.3,2a2.4,2.4,0,0,0-2.3.8l-10.5,9.1a28.3,28.3,0,0,1-2.8,2,4.1,4.1,0,0,1-3.9,0,4,4,0,0,1-1.4-3.8,6.8,6.8,0,0,1,.7-2.3,23.3,23.3,0,0,1,8.4-10.5,11.1,11.1,0,0,1,6.5-2.2,7.5,7.5,0,0,1,4.8,1.4,1.5,1.5,0,0,0,2.2-.1l3.2-2.3a5,5,0,0,1,1.9-1,1.8,1.8,0,0,1,2.3,2,3.9,3.9,0,0,1-.6,1.8c-1,2.1-1.8,4.1-2.7,6.2a13.2,13.2,0,0,0-1.3,4.7c-.3,1.8.2,2.1,1.8,2a11,11,0,0,0,2.6-.6,73.7,73.7,0,0,0,15.9-7.3l1.2-.7a.7.7,0,0,1,.9.1.7.7,0,0,1-.1.9c-.7.4-1.2.9-1.8,1.3a74,74,0,0,1-10.1,5.2,47.7,47.7,0,0,1-6.6,2.6,22.7,22.7,0,0,1-2.5.6c-2.4.1-3.7-1.2-3.6-3.8a12.1,12.1,0,0,1,.7-3.7c.7-2.2,1.6-4.3,2.4-6.5A2.1,2.1,0,0,0,308.2,157.9Zm-10.8,4.8c-4,1.2-6.8,4.1-9.2,7.4A54.3,54.3,0,0,0,297.4,162.7Z"/>
      </g>
      <g>
        <path d="M212.3,252.3c.6,0,.9-.5,1.3-.8a45.8,45.8,0,0,1,19.9-9.7c4.3-1,8.6-1.8,12.9-2.6h3.5c.5.1,1.2.1,1.2.9s-.7.6-1.2.6a86.4,86.4,0,0,0-22.9,5.7,46.1,46.1,0,0,0-12.4,7.5,13.4,13.4,0,0,0-3.9,4.3,3.7,3.7,0,0,0,.2,5,16.7,16.7,0,0,0,1.2,1.6c3.5,4.4,4.4,9.4,3.4,14.8a46.8,46.8,0,0,1-3.1,9.6,68.8,68.8,0,0,1-6.9,12.1,12.9,12.9,0,0,1-2.5,2.7c-2.3,1.8-4.2,1.2-5-1.7-.2-1-.3-2.1-.4-3.1-.2-6.2.8-12.2,1.9-18.2a199.3,199.3,0,0,1,11.3-39.6,80.5,80.5,0,0,1,11.1-20.1,20.3,20.3,0,0,1,5.6-5.7,6.7,6.7,0,0,1,5.8-1.2,7.8,7.8,0,0,1,5.7,4.3,6.9,6.9,0,0,1,.5,2.4c0,1.8-1.4,2.8-3.3,2.3a8.8,8.8,0,0,1-2.4-1.9,1.8,1.8,0,0,0-2.5-.3,15.4,15.4,0,0,0-4.1,3.6,71.8,71.8,0,0,0-7.9,11.6,143.1,143.1,0,0,0-6.9,14.9C212.3,251.5,212,251.8,212.3,252.3Zm-4,10.5a4.3,4.3,0,0,0-.8,1.9c-2.3,6.9-4.3,13.8-6,21a103.3,103.3,0,0,0-1.8,12.6,12.9,12.9,0,0,0,.3,3.9c.2.8.8,1,1.4.6a16.2,16.2,0,0,0,1.8-1.9,65.2,65.2,0,0,0,7.5-12.7,35.4,35.4,0,0,0,3.1-11C214.5,271.4,212,267,208.3,262.8Z"/>
        <path d="M235.3,290.2a55.3,55.3,0,0,1,1.7-9.5c3-12,6.6-23.8,10.2-35.6a337.5,337.5,0,0,1,12-33.7c3.2-7.8,6.8-15.4,10.4-23a8.3,8.3,0,0,1,1.5-2.3,3.1,3.1,0,0,1,4.1-.7,3.5,3.5,0,0,1,1.9,3.9A10.9,10.9,0,0,1,276,192c-2.3,4-4.5,8.1-6.8,12.2a293.2,293.2,0,0,0-18.5,40.7c-4.5,12.5-8.5,25.2-11.9,38.1a31.8,31.8,0,0,0-1.6,8.6,1.6,1.6,0,0,1,0,.7c-.1.4-.3.7-.7.7s-.9-.1-1-.5A10.6,10.6,0,0,1,235.3,290.2Z"/>
        <path d="M299.5,242.7a18.5,18.5,0,0,0-3.7,3.7c-1.7,2.1-3.2,4.2-5,6.2s-2.2,2.2-3.9,1.6-2.3-2.1-2.5-3.6.1-5.4.7-8a57.4,57.4,0,0,1,3.1-9.1c.1-.6.5-1,.3-1.6a1.3,1.3,0,0,0-1.2-.1,35.4,35.4,0,0,0-9.6,3.4c-1,.6-1.1.7-.3,1.6a8.7,8.7,0,0,1,1.8,8.4,21.1,21.1,0,0,1-6.8,10.8,8.1,8.1,0,0,1-4.4,2c-4.7.6-7.9-3.2-8.4-7.4a18.6,18.6,0,0,1,1.2-7.7,44,44,0,0,1,5.3-9.1,9.1,9.1,0,0,1,2.1-1.8c2-1.2,3.7-1,5.5.6s1.2,1.1,2.7.3a69.3,69.3,0,0,1,9.9-3.7l1.1-.3c4-.9,6.2,1,5.6,5a25.7,25.7,0,0,1-.8,3.8c-1.1,3.7-2.6,7.3-3.3,11.2a.8.8,0,0,1-.2.7c.6.4.8-.1,1-.3a20.9,20.9,0,0,0,2-2.2l9.6-11.5a5.3,5.3,0,0,1,1.2-1.4,1.7,1.7,0,0,1,2.9.9,3.9,3.9,0,0,1-.1,2.6c-.6,2-1.2,4.2-1.7,6.3a28.3,28.3,0,0,0-.9,5.6c-.1,1-.3,2.3.7,2.9s1.7-.6,2.5-1.2a36.5,36.5,0,0,0,4.7-5.7c2.5-3.6,5.1-7.1,7.9-10.4a12.4,12.4,0,0,1,2.1-1.9c1.6-1.1,2.9-.8,3.6,1.1a4.6,4.6,0,0,1,.5,1.4,4,4,0,0,0,3,3.2,20.8,20.8,0,0,0,7.8.8c.6,0,1.5-.3,1.6.5s-.9,1-1.5,1.1a16.3,16.3,0,0,1-3.8.1,46.8,46.8,0,0,1-5.4-1,4.8,4.8,0,0,1-3.9-4.2c-.1-.4,0-1.2-.6-1.4s-1.1.6-1.4,1a62.5,62.5,0,0,0-6.8,9.2c-1.3,2.1-2.7,4.3-4.2,6.3a16.2,16.2,0,0,1-3.5,3.4c-2.5,1.6-5.3.9-6.4-2.1a13.4,13.4,0,0,1-.6-6.6C299.1,245,299.3,243.8,299.5,242.7Zm-33.6,8.6c0,1.4.1,1.9.6,2.2a2.1,2.1,0,0,0,2-.5.9.9,0,0,0,.6-.4,17.8,17.8,0,0,0,6.9-11.2,4.1,4.1,0,0,0-1.2-3.5c-.4-.6-.9-.8-1.5-.2l-1.4,1.4a39.7,39.7,0,0,0-5.2,9.2A7.1,7.1,0,0,0,265.9,251.3Z"/>
      </g>
    </g>
  </g>
</svg>
